<?xml version="1.0" standalone="no"?>
<!DOCTYPE svg PUBLIC "-//W3C//DTD SVG 1.1//EN" "http://www.w3.org/Graphics/SVG/1.1/DTD/svg11.dtd" >
<svg xmlns="http://www.w3.org/2000/svg" xmlns:xlink="http://www.w3.org/1999/xlink" version="1.1">
<metadata>
Created by FontForge 20170924 at Tue Sep 18 23:24:37 2018
 By www-data
Modern and elegant sans serif font..
</metadata>
<defs>
<font id="SeattleSans" horiz-adv-x="0" >
  <font-face 
    font-family="Seattle Sans"
    font-weight="400"
    font-stretch="normal"
    units-per-em="1000"
    panose-1="0 0 10 0 0 0 0 0 0 0"
    ascent="800"
    descent="-200"
    x-height="540"
    cap-height="700"
    bbox="-803 -321 1103 992"
    underline-thickness="50"
    underline-position="-125"
    unicode-range="U+001D-2265"
  />
<missing-glyph horiz-adv-x="465" 
d="M381 735v-930h-295v930h295zM310 673h-154v-31h61v-34h-62v-31h155v31h-62v34h62v31zM248 553h-93v-97h155v32h-62v65zM217 521v-33h-31v33h31zM310 431h-155v-31h62v-34h-62v-31h93v65h62v31zM310 375h-31v-61h-124v-32h155v93zM310 262h-93v-52h31v21h31v-44h-93v75
h-31v-105h155v105zM310 101h-155v-105h155v105zM279 70v-44h-93v44h93zM310 -26h-155v-30h65l-65 -44v-31h155v31h-95l65 44h30v30z" />
    <glyph glyph-name=".notdef" horiz-adv-x="465" 
d="M381 735v-930h-295v930h295zM310 673h-154v-31h61v-34h-62v-31h155v31h-62v34h62v31zM248 553h-93v-97h155v32h-62v65zM217 521v-33h-31v33h31zM310 431h-155v-31h62v-34h-62v-31h93v65h62v31zM310 375h-31v-61h-124v-32h155v93zM310 262h-93v-52h31v21h31v-44h-93v75
h-31v-105h155v105zM310 101h-155v-105h155v105zM279 70v-44h-93v44h93zM310 -26h-155v-30h65l-65 -44v-31h155v31h-95l65 44h30v30z" />
    <glyph glyph-name="A" unicode="A" horiz-adv-x="748" 
d="M467 113v0q28 0 41 -29l19 -55q13 -29 41 -29h117q23 0 35.5 18.5t4.5 41.5l-246 612q-14 28 -40 28h-130q-27 0 -40 -28l-241 -613q-8 -22 5 -40.5t36 -18.5h111q28 0 41 29l19 55q13 29 41 29h186zM333 365v0q13 30 41 30t41 -29l15 -43q7 -23 -5.5 -41t-35.5 -18h-30
q-23 0 -35.5 18t-5.5 41z" />
    <glyph glyph-name="Aacute" unicode="&#xc1;" horiz-adv-x="748" 
d="M467 113v0q28 0 41 -29l19 -55q13 -29 41 -29h117q23 0 35.5 18.5t4.5 41.5l-246 612q-14 28 -40 28h-130q-27 0 -40 -28l-241 -613q-8 -22 5 -40.5t36 -18.5h111q28 0 41 29l19 55q13 29 41 29h186zM333 365v0q13 30 41 30t41 -29l15 -43q7 -23 -5.5 -41t-35.5 -18h-30
q-23 0 -35.5 18t-5.5 41zM504 923v0q13 0 19 -11.5t-1 -23.5l-77 -116q-10 -15 -27 -15h-73q-17 0 -26.5 13.5t-4.5 29.5l34 101q10 22 31 22h125z" />
    <glyph glyph-name="Abreve" unicode="&#x102;" horiz-adv-x="748" 
d="M467 113v0q28 0 41 -29l19 -55q13 -29 41 -29h117q23 0 35.5 18.5t4.5 41.5l-246 612q-14 28 -40 28h-130q-27 0 -40 -28l-241 -613q-8 -22 5 -40.5t36 -18.5h111q28 0 41 29l19 55q13 29 41 29h186zM333 365v0q13 30 41 30t41 -29l15 -43q7 -23 -5.5 -41t-35.5 -18h-30
q-23 0 -35.5 18t-5.5 41zM520 832v0q8 23 9 59q2 9 -5 15q-5 7 -14 7h-48q-7 0 -14 -6q-5 -5 -7 -13q0 -9 -2 -16q-4 -12 -17 -20q-13 -7 -43 -7t-43 7q-13 8 -17 20q-2 6 -2 16q-1 8 -6 13q-7 6 -14 6h-47q-9 0 -15 -7q-6 -6 -5 -15q1 -36 10 -59q10 -31 43 -50
q32 -18 96 -18t97 18q33 19 44 50z" />
    <glyph glyph-name="Acircumflex" unicode="&#xc2;" horiz-adv-x="748" 
d="M467 113v0q28 0 41 -29l19 -55q13 -29 41 -29h117q23 0 35.5 18.5t4.5 41.5l-246 612q-14 28 -40 28h-130q-27 0 -40 -28l-241 -613q-8 -22 5 -40.5t36 -18.5h111q28 0 41 29l19 55q13 29 41 29h186zM333 365v0q13 30 41 30t41 -29l15 -43q7 -23 -5.5 -41t-35.5 -18h-30
q-23 0 -35.5 18t-5.5 41zM220 787v0q-5 -8 -1.5 -15.5t12.5 -7.5h75q7 0 11 6l41 56q5 6 11.5 6t11.5 -6l40 -56q5 -6 12 -6h77q8 0 12 7.5t-1 15.5l-126 149q-5 5 -11 5h-27q-7 0 -12 -5z" />
    <glyph glyph-name="Adieresis" unicode="&#xc4;" horiz-adv-x="748" 
d="M467 113v0q28 0 41 -29l19 -55q13 -29 41 -29h117q23 0 35.5 18.5t4.5 41.5l-246 612q-14 28 -40 28h-130q-27 0 -40 -28l-241 -613q-8 -22 5 -40.5t36 -18.5h111q28 0 41 29l19 55q13 29 41 29h186zM333 365v0q13 30 41 30t41 -29l15 -43q7 -23 -5.5 -41t-35.5 -18h-30
q-23 0 -35.5 18t-5.5 41zM247.725 899.429v0q-14.5811 0 -24.3008 -10.126q-9.72168 -10.125 -9.72168 -23.8955v-72.9043q0 -13.7715 9.72168 -23.8965q9.71973 -10.126 24.3008 -10.126h79.3848q13.7695 0 23.4912 10.126q9.71973 10.125 9.71973 23.8965v72.9043
q0 13.7705 -9.71973 23.8955q-9.72168 10.126 -23.4912 10.126h-79.3848zM436.725 900.429v0q-14.5811 0 -24.3008 -10.126q-9.72168 -10.125 -9.72168 -23.8955v-72.9043q0 -13.7715 9.72168 -23.8965q9.71973 -10.126 24.3008 -10.126h79.3848q13.7695 0 23.4912 10.126
q9.71973 10.125 9.71973 23.8965v72.9043q0 13.7705 -9.71973 23.8955q-9.72168 10.126 -23.4912 10.126h-79.3848z" />
    <glyph glyph-name="Agrave" unicode="&#xc0;" horiz-adv-x="748" 
d="M467 113v0q28 0 41 -29l19 -55q13 -29 41 -29h117q23 0 35.5 18.5t4.5 41.5l-246 612q-14 28 -40 28h-130q-27 0 -40 -28l-241 -613q-8 -22 5 -40.5t36 -18.5h111q28 0 41 29l19 55q13 29 41 29h186zM333 365v0q13 30 41 30t41 -29l15 -43q7 -23 -5.5 -41t-35.5 -18h-30
q-23 0 -35.5 18t-5.5 41zM233 923h106q20 0 30 -22l35 -101q5 -16 -4.5 -29.5t-26.5 -13.5h-73q-17 0 -28 15l-66 100q-10 18 -1 34.5t28 16.5v0z" />
    <glyph glyph-name="Amacron" unicode="&#x100;" horiz-adv-x="744" 
d="M216 891v0q-17 0 -29 -12t-12 -29v-67q0 -17 12 -29t29 -12h285q17 0 29 12t12 29v67q0 17 -12 29t-29 12h-285zM467 113v0q28 0 41 -29l19 -55q13 -29 41 -29h117q23 0 35.5 18.5t4.5 41.5l-246 612q-14 28 -40 28h-130q-27 0 -40 -28l-241 -613q-8 -22 5 -40.5
t36 -18.5h111q28 0 41 29l19 55q13 29 41 29h186zM333 365v0q13 30 41 30t41 -29l15 -43q7 -23 -5.5 -41t-35.5 -18h-30q-23 0 -35.5 18t-5.5 41z" />
    <glyph glyph-name="Aogonek" unicode="&#x104;" horiz-adv-x="748" 
d="M467 113v0q28 0 41 -29l19 -55q13 -29 41 -29h117q23 0 35.5 18.5t4.5 41.5l-246 612q-14 28 -40 28h-130q-27 0 -40 -28l-241 -613q-8 -22 5 -40.5t36 -18.5h111q28 0 41 29l19 55q13 29 41 29h186zM333 365v0q13 30 41 30t41 -29l15 -43q7 -23 -5.5 -41t-35.5 -18h-30
q-23 0 -35.5 18t-5.5 41zM487 -129v0q0 -51 37.5 -82t94.5 -31q42 0 83 18q23 12 23 34v20q0 17 -12.5 27.5t-30.5 8.5h-12q-51 0 -56 45q0 57 88 90q24 12 24 36v0q0 20 -16 30.5t-35 4.5q-188 -77 -188 -201z" />
    <glyph glyph-name="Aring" unicode="&#xc5;" horiz-adv-x="748" 
d="M467 113v0q28 0 41 -29l19 -55q13 -29 41 -29h117q23 0 35.5 18.5t4.5 41.5l-246 612q-14 28 -40 28h-130q-27 0 -40 -28l-241 -613q-8 -22 5 -40.5t36 -18.5h111q28 0 41 29l19 55q13 29 41 29h186zM333 365v0q13 30 41 30t41 -29l15 -43q7 -23 -5.5 -41t-35.5 -18h-30
q-23 0 -35.5 18t-5.5 41zM377.603 975.509q45.501 0 75.251 -29.75q29.751 -29.751 29.751 -75.252q0 -44.8008 -29.751 -74.9014q-29.75 -30.0996 -75.251 -30.0996q-44.8008 0 -74.9014 30.0996q-30.1006 30.1006 -30.1006 74.9014q0 45.501 30.1006 75.252
q30.1006 29.75 74.9014 29.75zM379.702 820.106q22.4004 0 36.751 14.3506q14.3496 14.3496 14.3496 36.75t-14.3496 36.751q-14.3506 14.3506 -36.751 14.3506t-36.75 -14.3506q-14.3506 -14.3506 -14.3506 -36.751t14.7002 -36.75q14.7002 -14.3506 36.4004 -14.3506z" />
    <glyph glyph-name="Atilde" unicode="&#xc3;" horiz-adv-x="748" 
d="M467 113v0q28 0 41 -29l19 -55q13 -29 41 -29h117q23 0 35.5 18.5t4.5 41.5l-246 612q-14 28 -40 28h-130q-27 0 -40 -28l-241 -613q-8 -22 5 -40.5t36 -18.5h111q28 0 41 29l19 55q13 29 41 29h186zM333 365v0q13 30 41 30t41 -29l15 -43q7 -23 -5.5 -41t-35.5 -18h-30
q-23 0 -35.5 18t-5.5 41zM508 824v0q3 15 4 38q0 10 -7 16q-7 8 -16 8h-14q-9 0 -15 -6t-8 -14v-3q-1 -2 -1 -4q-4 -5 -16 -5q-11 0 -30 4q-8 1 -14 3q-7 2 -11 2q-56 14 -86 14q-31 0 -47 -12q-14 -11 -18 -32q-3 -14 -3 -38q0 -10 7 -16q7 -7 15 -7h16q7 0 14 5q7 6 8 14
q0 4 2 7q3 5 15 5t30 -4q12 -2 19 -4q4 -1 6 -1q56 -14 87 -14t45 12q15 11 18 32z" />
    <glyph glyph-name="AE" unicode="&#xc6;" horiz-adv-x="1027" 
d="M332 365q13 30 41.5 30t41.5 -29l15 -43q7 -23 -6 -41t-35 -18h-31q-22 0 -35 18t-6 41zM942 0q18 0 31 12.5t13 30.5v80q0 18 -13 31t-31 13h-177q-18 0 -31 12.5t-13 30.5v18q0 18 13 31t31 13h143q18 0 30.5 12.5t12.5 30.5v71q0 18 -12.5 31t-30.5 13h-143
q-18 0 -31 12.5t-13 30.5v16q0 18 13 31t31 13h169q18 0 30.5 12.5t12.5 30.5v80q0 18 -12.5 30.5t-30.5 12.5h-361q-18 0 -31 -12.5t-13 -30.5v-108l-50 124q-14 28 -41 28h-129q-27 0 -41 -28l-240 -613q-8 -22 4.5 -40.5t35.5 -18.5h112q28 0 41 29l19 55q13 29 41 29
h185q29 0 42 -29l18 -55q14 -29 42 -29h374z" />
    <glyph glyph-name="AEacute" unicode="&#x1fc;" horiz-adv-x="1027" 
d="M332 365q13 30 41.5 30t41.5 -29l15 -43q7 -23 -6 -41t-35 -18h-31q-22 0 -35 18t-6 41zM942 0q18 0 31 12.5t13 30.5v80q0 18 -13 31t-31 13h-177q-18 0 -31 12.5t-13 30.5v18q0 18 13 31t31 13h143q18 0 30.5 12.5t12.5 30.5v71q0 18 -12.5 31t-30.5 13h-143
q-18 0 -31 12.5t-13 30.5v16q0 18 13 31t31 13h169q18 0 30.5 12.5t12.5 30.5v80q0 18 -12.5 30.5t-30.5 12.5h-361q-18 0 -31 -12.5t-13 -30.5v-108l-50 124q-14 28 -41 28h-129q-27 0 -41 -28l-240 -613q-8 -22 4.5 -40.5t35.5 -18.5h112q28 0 41 29l19 55q13 29 41 29
h185q29 0 42 -29l18 -55q14 -29 42 -29h374zM633 923v0q13 0 19 -11.5t-1 -23.5l-77 -116q-10 -15 -27 -15h-73q-17 0 -26.5 13.5t-4.5 29.5l34 101q10 22 31 22h125z" />
    <glyph glyph-name="B" unicode="B" horiz-adv-x="651" 
d="M509 369v0v0q88 58 88 152q0 77 -60.5 128t-153.5 51h-273q-18 0 -30.5 -13t-12.5 -31v-613q0 -18 12.5 -30.5t30.5 -12.5h279q97 0 162 57t65 142q0 115 -107 170zM425 222v0q0 -28 -18.5 -46t-50.5 -18h-61q-18 0 -30.5 13t-12.5 31v40q0 18 12.5 30.5t30.5 12.5h61
q63 0 69 -63zM414 489v0v0q0 -28 -17.5 -44.5t-47.5 -16.5h-54q-18 0 -30.5 12.5t-12.5 30.5v35q0 18 12.5 31t30.5 13h54q61 0 65 -61z" />
    <glyph glyph-name="C" unicode="C" horiz-adv-x="784" 
d="M412 -18v0v0q126 0 217.5 68.5t126.5 185.5q6 21 -7 38t-35 17h-112q-27 0 -40 -28q-47 -100 -149 -100q-75 0 -123.5 52.5t-48.5 133.5t48.5 134.5t123.5 53.5q97 0 148 -94q14 -24 39 -24h111q22 0 35 17t7 39q-37 111 -127.5 176.5t-213.5 65.5q-160 0 -266 -105
t-106 -263q0 -157 106 -262t266 -105z" />
    <glyph glyph-name="Cacute" unicode="&#x106;" horiz-adv-x="784" 
d="M412 -18v0v0q126 0 217.5 68.5t126.5 185.5q6 21 -7 38t-35 17h-112q-27 0 -40 -28q-47 -100 -149 -100q-75 0 -123.5 52.5t-48.5 133.5t48.5 134.5t123.5 53.5q97 0 148 -94q14 -24 39 -24h111q22 0 35 17t7 39q-37 111 -127.5 176.5t-213.5 65.5q-160 0 -266 -105
t-106 -263q0 -157 106 -262t266 -105zM517 923v0q13 0 19 -11.5t-1 -23.5l-77 -116q-10 -15 -27 -15h-73q-17 0 -26.5 13.5t-4.5 29.5l34 101q10 22 31 22h125z" />
    <glyph glyph-name="Ccaron" unicode="&#x10c;" horiz-adv-x="784" 
d="M412 -18v0v0q126 0 217.5 68.5t126.5 185.5q6 21 -7 38t-35 17h-112q-27 0 -40 -28q-47 -100 -149 -100q-75 0 -123.5 52.5t-48.5 133.5t48.5 134.5t123.5 53.5q97 0 148 -94q14 -24 39 -24h111q22 0 35 17t7 39q-37 111 -127.5 176.5t-213.5 65.5q-160 0 -266 -105
t-106 -263q0 -157 106 -262t266 -105zM522 911v0q5 7 1 14t-12 7h-71q-6 0 -11 -5l-38 -53q-5 -6 -11.5 -6t-10.5 6l-38 53q-5 5 -11 5h-73q-8 0 -11.5 -7t1.5 -14l119 -141q4 -5 11 -5h25q6 0 11 5z" />
    <glyph glyph-name="Ccedilla" unicode="&#xc7;" horiz-adv-x="784" 
d="M412 -18v0v0q126 0 217.5 68.5t126.5 185.5q6 21 -7 38t-35 17h-112q-27 0 -40 -28q-47 -100 -149 -100q-75 0 -123.5 52.5t-48.5 133.5t48.5 134.5t123.5 53.5q97 0 148 -94q14 -24 39 -24h111q22 0 35 17t7 39q-37 111 -127.5 176.5t-213.5 65.5q-160 0 -266 -105
t-106 -263q0 -157 106 -262t266 -105zM501 -131v0q0 73 -80 93q-7 2 -10.5 7.5t-1.5 12.5l10 36q3 14 -5 25t-22 11h-28q-19 0 -27 -21l-31 -111q-2 -7 3 -13v0q5 -7 12 -7h38q28 0 31 -27q0 -26 -31 -28h-36q-12 0 -20 -8.5t-8 -19.5v-25q0 -12 8 -20t20 -8h49
q56 0 92.5 28t36.5 75z" />
    <glyph glyph-name="Ccircumflex" unicode="&#x108;" horiz-adv-x="784" 
d="M412 -18v0v0q126 0 217.5 68.5t126.5 185.5q6 21 -7 38t-35 17h-112q-27 0 -40 -28q-47 -100 -149 -100q-75 0 -123.5 52.5t-48.5 133.5t48.5 134.5t123.5 53.5q97 0 148 -94q14 -24 39 -24h111q22 0 35 17t7 39q-37 111 -127.5 176.5t-213.5 65.5q-160 0 -266 -105
t-106 -263q0 -157 106 -262t266 -105zM247 787v0q-5 -8 -1.5 -15.5t12.5 -7.5h75q7 0 11 6l41 56q5 6 11.5 6t11.5 -6l40 -56q5 -6 12 -6h77q8 0 12 7.5t-1 15.5l-126 149q-5 5 -11 5h-27q-7 0 -12 -5z" />
    <glyph glyph-name="Cdotaccent" unicode="&#x10a;" horiz-adv-x="784" 
d="M412 -18v0v0q126 0 217.5 68.5t126.5 185.5q6 21 -7 38t-35 17h-112q-27 0 -40 -28q-47 -100 -149 -100q-75 0 -123.5 52.5t-48.5 133.5t48.5 134.5t123.5 53.5q97 0 148 -94q14 -24 39 -24h111q22 0 35 17t7 39q-37 111 -127.5 176.5t-213.5 65.5q-160 0 -266 -105
t-106 -263q0 -157 106 -262t266 -105zM358.803 926.011v0q-16.2012 0 -27.001 -11.25q-10.8008 -11.25 -10.8008 -26.5508v-81.002q0 -15.3008 10.8008 -26.5508q10.7998 -11.251 27.001 -11.251h88.2021q15.2998 0 26.1006 11.251q10.7998 11.25 10.7998 26.5508v81.002
q0 15.3008 -10.7998 26.5508q-10.8008 11.25 -26.1006 11.25h-88.2021z" />
    <glyph glyph-name="D" unicode="D" horiz-adv-x="745" 
d="M714 350v0q0 154 -101 252t-260 98h-240q-18 0 -30.5 -13t-12.5 -31v-613q0 -18 12.5 -30.5t30.5 -12.5h240q158 0 259.5 98.5t101.5 251.5zM516 350v0q0 -77 -47.5 -125.5t-124.5 -48.5h-37q-18 0 -31 13t-13 31v260q0 18 13 30.5t31 12.5h37q77 0 124.5 -47.5
t47.5 -125.5z" />
    <glyph glyph-name="Eth" unicode="&#xd0;" horiz-adv-x="794" 
d="M714 350v0q0 154 -101 252t-260 98h-240q-18 0 -30.5 -13t-12.5 -31v-613q0 -18 12.5 -30.5t30.5 -12.5h240q158 0 259.5 98.5t101.5 251.5zM516 350v0q0 -77 -47.5 -125.5t-124.5 -48.5h-37q-18 0 -31 13t-13 31v260q0 18 13 30.5t31 12.5h37q77 0 124.5 -47.5
t47.5 -125.5zM-23 434v0q-17 0 -29 -12t-12 -29v-87q0 -17 12 -29t29 -12h405q17 0 29 12t12 29v87q0 17 -12 29t-29 12h-405z" />
    <glyph glyph-name="Dcaron" unicode="&#x10e;" horiz-adv-x="745" 
d="M714 350v0q0 154 -101 252t-260 98h-240q-18 0 -30.5 -13t-12.5 -31v-613q0 -18 12.5 -30.5t30.5 -12.5h240q158 0 259.5 98.5t101.5 251.5zM516 350v0q0 -77 -47.5 -125.5t-124.5 -48.5h-37q-18 0 -31 13t-13 31v260q0 18 13 30.5t31 12.5h37q77 0 124.5 -47.5
t47.5 -125.5zM534 911v0q5 7 1 14t-12 7h-71q-6 0 -11 -5l-38 -53q-5 -6 -11.5 -6t-10.5 6l-38 53q-5 5 -11 5h-73q-8 0 -11.5 -7t1.5 -14l119 -141q4 -5 11 -5h25q6 0 11 5z" />
    <glyph glyph-name="Dcroat" unicode="&#x110;" horiz-adv-x="794" 
d="M714 350v0q0 154 -101 252t-260 98h-240q-18 0 -30.5 -13t-12.5 -31v-613q0 -18 12.5 -30.5t30.5 -12.5h240q158 0 259.5 98.5t101.5 251.5zM516 350v0q0 -77 -47.5 -125.5t-124.5 -48.5h-37q-18 0 -31 13t-13 31v260q0 18 13 30.5t31 12.5h37q77 0 124.5 -47.5
t47.5 -125.5zM-23 434v0q-17 0 -29 -12t-12 -29v-87q0 -17 12 -29t29 -12h405q17 0 29 12t12 29v87q0 17 -12 29t-29 12h-405z" />
    <glyph glyph-name="E" unicode="E" horiz-adv-x="567" 
d="M527 123v0q0 19 -13 31.5t-31 12.5h-177q-18 0 -31 13t-13 31v17q0 18 13 31t31 13h143q18 0 30.5 12.5t12.5 30.5v71q0 18 -12.5 31t-30.5 13h-143q-18 0 -31 13t-13 31v15q0 18 13 31t31 13h169q18 0 30.5 13t12.5 31v79q0 18 -12.5 31t-30.5 13h-361q-18 0 -31 -13
t-13 -31v-613q0 -18 13 -30.5t31 -12.5h369q18 0 31 12.5t13 30.5v80z" />
    <glyph glyph-name="Eacute" unicode="&#xc9;" horiz-adv-x="567" 
d="M527 123v0q0 19 -13 31.5t-31 12.5h-177q-18 0 -31 13t-13 31v17q0 18 13 31t31 13h143q18 0 30.5 12.5t12.5 30.5v71q0 18 -12.5 31t-30.5 13h-143q-18 0 -31 13t-13 31v15q0 18 13 31t31 13h169q18 0 30.5 13t12.5 31v79q0 18 -12.5 31t-30.5 13h-361q-18 0 -31 -13
t-13 -31v-613q0 -18 13 -30.5t31 -12.5h369q18 0 31 12.5t13 30.5v80zM417 923v0q13 0 19 -11.5t-1 -23.5l-77 -116q-10 -15 -27 -15h-73q-17 0 -26.5 13.5t-4.5 29.5l34 101q10 22 31 22h125z" />
    <glyph glyph-name="Ebreve" unicode="&#x114;" horiz-adv-x="567" 
d="M527 123v0q0 19 -13 31.5t-31 12.5h-177q-18 0 -31 13t-13 31v17q0 18 13 31t31 13h143q18 0 30.5 12.5t12.5 30.5v71q0 18 -12.5 31t-30.5 13h-143q-18 0 -31 13t-13 31v15q0 18 13 31t31 13h169q18 0 30.5 13t12.5 31v79q0 18 -12.5 31t-30.5 13h-361q-18 0 -31 -13
t-13 -31v-613q0 -18 13 -30.5t31 -12.5h369q18 0 31 12.5t13 30.5v80zM439 832v0q8 23 9 59q2 9 -5 15q-5 7 -14 7h-48q-7 0 -14 -6q-5 -5 -7 -13q0 -9 -2 -16q-4 -12 -17 -20q-13 -7 -43 -7t-43 7q-13 8 -17 20q-2 6 -2 16q-1 8 -6 13q-7 6 -14 6h-47q-9 0 -15 -7
q-6 -6 -5 -15q1 -36 10 -59q10 -31 43 -50q32 -18 96 -18t97 18q33 19 44 50z" />
    <glyph glyph-name="Ecaron" unicode="&#x11a;" horiz-adv-x="567" 
d="M527 123v0q0 19 -13 31.5t-31 12.5h-177q-18 0 -31 13t-13 31v17q0 18 13 31t31 13h143q18 0 30.5 12.5t12.5 30.5v71q0 18 -12.5 31t-30.5 13h-143q-18 0 -31 13t-13 31v15q0 18 13 31t31 13h169q18 0 30.5 13t12.5 31v79q0 18 -12.5 31t-30.5 13h-361q-18 0 -31 -13
t-13 -31v-613q0 -18 13 -30.5t31 -12.5h369q18 0 31 12.5t13 30.5v80zM439 911v0q5 7 1 14t-12 7h-71q-6 0 -11 -5l-38 -53q-5 -6 -11.5 -6t-10.5 6l-38 53q-5 5 -11 5h-73q-8 0 -11.5 -7t1.5 -14l119 -141q4 -5 11 -5h25q6 0 11 5z" />
    <glyph glyph-name="Ecircumflex" unicode="&#xca;" horiz-adv-x="567" 
d="M527 123v0q0 19 -13 31.5t-31 12.5h-177q-18 0 -31 13t-13 31v17q0 18 13 31t31 13h143q18 0 30.5 12.5t12.5 30.5v71q0 18 -12.5 31t-30.5 13h-143q-18 0 -31 13t-13 31v15q0 18 13 31t31 13h169q18 0 30.5 13t12.5 31v79q0 18 -12.5 31t-30.5 13h-361q-18 0 -31 -13
t-13 -31v-613q0 -18 13 -30.5t31 -12.5h369q18 0 31 12.5t13 30.5v80zM146 787v0q-5 -8 -1.5 -15.5t12.5 -7.5h75q7 0 11 6l41 56q5 6 11.5 6t11.5 -6l40 -56q5 -6 12 -6h77q8 0 12 7.5t-1 15.5l-126 149q-5 5 -11 5h-27q-7 0 -12 -5z" />
    <glyph glyph-name="Edieresis" unicode="&#xcb;" horiz-adv-x="567" 
d="M527 123v0q0 19 -13 31.5t-31 12.5h-177q-18 0 -31 13t-13 31v17q0 18 13 31t31 13h143q18 0 30.5 12.5t12.5 30.5v71q0 18 -12.5 31t-30.5 13h-143q-18 0 -31 13t-13 31v15q0 18 13 31t31 13h169q18 0 30.5 13t12.5 31v79q0 18 -12.5 31t-30.5 13h-361q-18 0 -31 -13
t-13 -31v-613q0 -18 13 -30.5t31 -12.5h369q18 0 31 12.5t13 30.5v80zM164.725 916.429v0q-14.5811 0 -24.3008 -10.126q-9.72168 -10.125 -9.72168 -23.8955v-72.9043q0 -13.7715 9.72168 -23.8965q9.71973 -10.126 24.3008 -10.126h79.3848q13.7695 0 23.4912 10.126
q9.71973 10.125 9.71973 23.8965v72.9043q0 13.7705 -9.71973 23.8955q-9.72168 10.126 -23.4912 10.126h-79.3848zM353.725 917.429v0q-14.5811 0 -24.3008 -10.126q-9.72168 -10.125 -9.72168 -23.8955v-72.9043q0 -13.7715 9.72168 -23.8965
q9.71973 -10.126 24.3008 -10.126h79.3848q13.7695 0 23.4912 10.126q9.71973 10.125 9.71973 23.8965v72.9043q0 13.7705 -9.71973 23.8955q-9.72168 10.126 -23.4912 10.126h-79.3848z" />
    <glyph glyph-name="Edotaccent" unicode="&#x116;" horiz-adv-x="567" 
d="M527 123v0q0 19 -13 31.5t-31 12.5h-177q-18 0 -31 13t-13 31v17q0 18 13 31t31 13h143q18 0 30.5 12.5t12.5 30.5v71q0 18 -12.5 31t-30.5 13h-143q-18 0 -31 13t-13 31v15q0 18 13 31t31 13h169q18 0 30.5 13t12.5 31v79q0 18 -12.5 31t-30.5 13h-361q-18 0 -31 -13
t-13 -31v-613q0 -18 13 -30.5t31 -12.5h369q18 0 31 12.5t13 30.5v80zM254.803 926.011v0q-16.2012 0 -27.001 -11.25q-10.8008 -11.25 -10.8008 -26.5508v-81.002q0 -15.3008 10.8008 -26.5508q10.7998 -11.251 27.001 -11.251h88.2021q15.2998 0 26.1006 11.251
q10.7998 11.25 10.7998 26.5508v81.002q0 15.3008 -10.7998 26.5508q-10.8008 11.25 -26.1006 11.25h-88.2021z" />
    <glyph glyph-name="Egrave" unicode="&#xc8;" horiz-adv-x="567" 
d="M527 123v0q0 19 -13 31.5t-31 12.5h-177q-18 0 -31 13t-13 31v17q0 18 13 31t31 13h143q18 0 30.5 12.5t12.5 30.5v71q0 18 -12.5 31t-30.5 13h-143q-18 0 -31 13t-13 31v15q0 18 13 31t31 13h169q18 0 30.5 13t12.5 31v79q0 18 -12.5 31t-30.5 13h-361q-18 0 -31 -13
t-13 -31v-613q0 -18 13 -30.5t31 -12.5h369q18 0 31 12.5t13 30.5v80zM189 923h106q20 0 30 -22l35 -101q5 -16 -4.5 -29.5t-26.5 -13.5h-73q-17 0 -28 15l-66 100q-10 18 -1 34.5t28 16.5v0z" />
    <glyph glyph-name="Emacron" unicode="&#x112;" horiz-adv-x="567" 
d="M152 936v0q-17 0 -29 -12t-12 -29v-67q0 -17 12 -29.5t29 -12.5h285q17 0 29 12.5t12 29.5v67q0 17 -12 29t-29 12h-285zM527 123v0q0 19 -13 31.5t-31 12.5h-177q-18 0 -31 13t-13 31v17q0 18 13 31t31 13h143q18 0 30.5 12.5t12.5 30.5v71q0 18 -12.5 31t-30.5 13h-143
q-18 0 -31 13t-13 31v15q0 18 13 31t31 13h169q18 0 30.5 13t12.5 31v79q0 18 -12.5 31t-30.5 13h-361q-18 0 -31 -13t-13 -31v-613q0 -18 13 -30.5t31 -12.5h369q18 0 31 12.5t13 30.5v80z" />
    <glyph glyph-name="Eogonek" unicode="&#x118;" horiz-adv-x="567" 
d="M527 123v0q0 19 -13 31.5t-31 12.5h-177q-18 0 -31 13t-13 31v17q0 18 13 31t31 13h143q18 0 30.5 12.5t12.5 30.5v71q0 18 -12.5 31t-30.5 13h-143q-18 0 -31 13t-13 31v15q0 18 13 31t31 13h169q18 0 30.5 13t12.5 31v79q0 18 -12.5 31t-30.5 13h-361q-18 0 -31 -13
t-13 -31v-613q0 -18 13 -30.5t31 -12.5h369q18 0 31 12.5t13 30.5v80zM287 -129v0q0 -51 37.5 -82t94.5 -31q42 0 83 18q23 12 23 34v20q0 17 -12.5 27.5t-30.5 8.5h-12q-51 0 -56 45q0 57 88 90q24 12 24 36v0q0 20 -16 30.5t-35 4.5q-188 -77 -188 -201z" />
    <glyph glyph-name="F" unicode="F" horiz-adv-x="548" 
d="M264 482v0q0 18 13 30.5t31 12.5h163q18 0 31 13t13 31v87q0 18 -13 31t-31 13h-358q-18 0 -30.5 -13t-12.5 -31v-613q0 -18 12.5 -30.5t30.5 -12.5h107q19 0 31.5 12.5t12.5 30.5v158q0 19 13 31.5t31 12.5h137q18 0 31 13t13 31v81q0 18 -13 31t-31 13h-137
q-18 0 -31 12.5t-13 30.5v25z" />
    <glyph glyph-name="G" unicode="G" horiz-adv-x="766" 
d="M446 232v0q-26 0 -44.5 18.5t-18.5 44.5v38q0 27 18.5 45.5t44.5 18.5h201q27 0 45.5 -18.5t18.5 -45.5v-288q0 -26 -18.5 -44.5t-45.5 -18.5h-110q-5 0 -7.5 3t-2.5 7v0q0 4 -3 6t-7 1q-8 -2 -15 -4q-34 -13 -70 -13q-161 0 -267 104t-106 263q0 160 104.5 264
t266.5 104q137 0 238 -76q23 -19 25 -45.5t-17 -48.5l-33 -36q-17 -17 -39 -19.5t-42 10.5q-53 35 -118 35h-5v0v0v0h-7q-72 0 -119 -44q-57 -53 -57 -144q0 -83 48 -134.5t128 -51.5q42 0 77 14q18 9 18 26v0q0 12 -8.5 20.5t-20.5 8.5h-52z" />
    <glyph glyph-name="Gbreve" unicode="&#x11e;" horiz-adv-x="766" 
d="M446 232v0q-26 0 -44.5 18.5t-18.5 44.5v38q0 27 18.5 45.5t44.5 18.5h201q27 0 45.5 -18.5t18.5 -45.5v-288q0 -26 -18.5 -44.5t-45.5 -18.5h-110q-5 0 -7.5 3t-2.5 7v0q0 4 -3 6t-7 1q-8 -2 -15 -4q-34 -13 -70 -13q-161 0 -267 104t-106 263q0 160 104.5 264
t266.5 104q137 0 238 -76q23 -19 25 -45.5t-17 -48.5l-33 -36q-17 -17 -39 -19.5t-42 10.5q-53 35 -118 35h-5v0v0v0h-7q-72 0 -119 -44q-57 -53 -57 -144q0 -83 48 -134.5t128 -51.5q42 0 77 14q18 9 18 26v0q0 12 -8.5 20.5t-20.5 8.5h-52zM526 832v0q8 23 9 59q2 9 -5 15
q-5 7 -14 7h-48q-7 0 -14 -6q-5 -5 -7 -13q0 -9 -2 -16q-4 -12 -17 -20q-13 -7 -43 -7t-43 7q-13 8 -17 20q-2 6 -2 16q-1 8 -6 13q-7 6 -14 6h-47q-9 0 -15 -7q-6 -6 -5 -15q1 -36 10 -59q10 -31 43 -50q32 -18 96 -18t97 18q33 19 44 50z" />
    <glyph glyph-name="Gcircumflex" unicode="&#x11c;" horiz-adv-x="766" 
d="M446 232v0q-26 0 -44.5 18.5t-18.5 44.5v38q0 27 18.5 45.5t44.5 18.5h201q27 0 45.5 -18.5t18.5 -45.5v-288q0 -26 -18.5 -44.5t-45.5 -18.5h-110q-5 0 -7.5 3t-2.5 7v0q0 4 -3 6t-7 1q-8 -2 -15 -4q-34 -13 -70 -13q-161 0 -267 104t-106 263q0 160 104.5 264
t266.5 104q137 0 238 -76q23 -19 25 -45.5t-17 -48.5l-33 -36q-17 -17 -39 -19.5t-42 10.5q-53 35 -118 35h-5v0v0v0h-7q-72 0 -119 -44q-57 -53 -57 -144q0 -83 48 -134.5t128 -51.5q42 0 77 14q18 9 18 26v0q0 12 -8.5 20.5t-20.5 8.5h-52zM234 787v0q-5 -8 -1.5 -15.5
t12.5 -7.5h75q7 0 11 6l41 56q5 6 11.5 6t11.5 -6l40 -56q5 -6 12 -6h77q8 0 12 7.5t-1 15.5l-126 149q-5 5 -11 5h-27q-7 0 -12 -5z" />
    <glyph glyph-name="Gdotaccent" unicode="&#x120;" horiz-adv-x="766" 
d="M446 232v0q-26 0 -44.5 18.5t-18.5 44.5v38q0 27 18.5 45.5t44.5 18.5h201q27 0 45.5 -18.5t18.5 -45.5v-288q0 -26 -18.5 -44.5t-45.5 -18.5h-110q-5 0 -7.5 3t-2.5 7v0q0 4 -3 6t-7 1q-8 -2 -15 -4q-34 -13 -70 -13q-161 0 -267 104t-106 263q0 160 104.5 264
t266.5 104q137 0 238 -76q23 -19 25 -45.5t-17 -48.5l-33 -36q-17 -17 -39 -19.5t-42 10.5q-53 35 -118 35h-5v0v0v0h-7q-72 0 -119 -44q-57 -53 -57 -144q0 -83 48 -134.5t128 -51.5q42 0 77 14q18 9 18 26v0q0 12 -8.5 20.5t-20.5 8.5h-52zM341.803 926.011v0
q-16.2012 0 -27.001 -11.25q-10.8008 -11.25 -10.8008 -26.5508v-81.002q0 -15.3008 10.8008 -26.5508q10.7998 -11.251 27.001 -11.251h88.2021q15.2998 0 26.1006 11.251q10.7998 11.25 10.7998 26.5508v81.002q0 15.3008 -10.7998 26.5508q-10.8008 11.25 -26.1006 11.25
h-88.2021z" />
    <glyph glyph-name="H" unicode="H" horiz-adv-x="734" 
d="M663 656v0q0 18 -12.5 31t-31.5 13h-107q-18 0 -30.5 -13t-12.5 -31v-165q0 -18 -13 -31t-31 -13h-123q-18 0 -30.5 13t-12.5 31v165q0 18 -13 31t-31 13h-107q-18 0 -31 -13t-13 -31v-613q0 -18 13 -30.5t31 -12.5h107q18 0 31 12.5t13 30.5v182q0 18 12.5 30.5
t30.5 12.5h123q18 0 31 -12.5t13 -30.5v-182q0 -18 12.5 -30.5t30.5 -12.5h107q19 0 31.5 12.5t12.5 30.5v613z" />
    <glyph glyph-name="Hbar" unicode="&#x126;" horiz-adv-x="734" 
d="M663 656v0q0 18 -12.5 31t-31.5 13h-107q-18 0 -30.5 -13t-12.5 -31v-165q0 -18 -13 -31t-31 -13h-123q-18 0 -30.5 13t-12.5 31v165q0 18 -13 31t-31 13h-107q-18 0 -31 -13t-13 -31v-613q0 -18 13 -30.5t31 -12.5h107q18 0 31 12.5t13 30.5v182q0 18 12.5 30.5
t30.5 12.5h123q18 0 31 -12.5t13 -30.5v-182q0 -18 12.5 -30.5t30.5 -12.5h107q19 0 31.5 12.5t12.5 30.5v613zM174 655v0q-17 0 -29 -12t-12 -29v-87q0 -17 12 -29t29 -12h405q17 0 29 12t12 29v87q0 17 -12 29t-29 12h-405z" />
    <glyph glyph-name="Hcircumflex" unicode="&#x124;" horiz-adv-x="734" 
d="M663 656v0q0 18 -12.5 31t-31.5 13h-107q-18 0 -30.5 -13t-12.5 -31v-165q0 -18 -13 -31t-31 -13h-123q-18 0 -30.5 13t-12.5 31v165q0 18 -13 31t-31 13h-107q-18 0 -31 -13t-13 -31v-613q0 -18 13 -30.5t31 -12.5h107q18 0 31 12.5t13 30.5v182q0 18 12.5 30.5
t30.5 12.5h123q18 0 31 -12.5t13 -30.5v-182q0 -18 12.5 -30.5t30.5 -12.5h107q19 0 31.5 12.5t12.5 30.5v613zM212 787v0q-5 -8 -1.5 -15.5t12.5 -7.5h75q7 0 11 6l41 56q5 6 11.5 6t11.5 -6l40 -56q5 -6 12 -6h77q8 0 12 7.5t-1 15.5l-126 149q-5 5 -11 5h-27q-7 0 -12 -5
z" />
    <glyph glyph-name="I" unicode="I" horiz-adv-x="331" 
d="M117 700v0q-18 0 -31 -13t-13 -31v-613q0 -18 13 -30.5t31 -12.5h108q18 0 30.5 12.5t12.5 30.5v613q0 18 -12.5 31t-30.5 13h-108z" />
    <glyph glyph-name="IJ" unicode="&#x132;" horiz-adv-x="953" 
d="M116 700v0q-18 0 -31 -13t-13 -31v-613q0 -18 13 -30.5t31 -12.5h108q18 0 30.5 12.5t12.5 30.5v613q0 18 -12.5 31t-30.5 13h-108zM347 240v0q0 -114 76.5 -186t197.5 -72t196 72t75 186v416q0 18 -12.5 31t-31.5 13h-107q-18 0 -30.5 -13t-12.5 -31v-406q0 -82 -77 -88
q-36 0 -58 23.5t-22 64.5v0q0 7 -5 12t-13 5h-158q-8 0 -13 -5t-5 -12v-10z" />
    <glyph glyph-name="Iacute" unicode="&#xcd;" horiz-adv-x="331" 
d="M117 700v0q-18 0 -31 -13t-13 -31v-613q0 -18 13 -30.5t31 -12.5h108q18 0 30.5 12.5t12.5 30.5v613q0 18 -12.5 31t-30.5 13h-108zM290 923v0q13 0 19 -11.5t-1 -23.5l-77 -116q-10 -15 -27 -15h-73q-17 0 -26.5 13.5t-4.5 29.5l34 101q10 22 31 22h125z" />
    <glyph glyph-name="Ibreve" unicode="&#x12c;" horiz-adv-x="331" 
d="M117 700v0q-18 0 -31 -13t-13 -31v-613q0 -18 13 -30.5t31 -12.5h108q18 0 30.5 12.5t12.5 30.5v613q0 18 -12.5 31t-30.5 13h-108zM312 832v0q8 23 9 59q2 9 -5 15q-5 7 -14 7h-48q-7 0 -14 -6q-5 -5 -7 -13q0 -9 -2 -16q-4 -12 -17 -20q-13 -7 -43 -7t-43 7
q-13 8 -17 20q-2 6 -2 16q-1 8 -6 13q-7 6 -14 6h-47q-9 0 -15 -7q-6 -6 -5 -15q1 -36 10 -59q10 -31 43 -50q32 -18 96 -18t97 18q33 19 44 50z" />
    <glyph glyph-name="Icircumflex" unicode="&#xce;" horiz-adv-x="331" 
d="M117 700v0q-18 0 -31 -13t-13 -31v-613q0 -18 13 -30.5t31 -12.5h108q18 0 30.5 12.5t12.5 30.5v613q0 18 -12.5 31t-30.5 13h-108zM20 787v0q-5 -8 -1.5 -15.5t12.5 -7.5h75q7 0 11 6l41 56q5 6 11.5 6t11.5 -6l40 -56q5 -6 12 -6h77q8 0 12 7.5t-1 15.5l-126 149
q-5 5 -11 5h-27q-7 0 -12 -5z" />
    <glyph glyph-name="Idieresis" unicode="&#xcf;" horiz-adv-x="331" 
d="M117 700v0q-18 0 -31 -13t-13 -31v-613q0 -18 13 -30.5t31 -12.5h108q18 0 30.5 12.5t12.5 30.5v613q0 18 -12.5 31t-30.5 13h-108zM37.7246 916.429v0q-14.5811 0 -24.3008 -10.126q-9.72168 -10.125 -9.72168 -23.8955v-72.9043q0 -13.7715 9.72168 -23.8965
q9.71973 -10.126 24.3008 -10.126h79.3848q13.7695 0 23.4912 10.126q9.71973 10.125 9.71973 23.8965v72.9043q0 13.7705 -9.71973 23.8955q-9.72168 10.126 -23.4912 10.126h-79.3848zM226.725 917.429v0q-14.5811 0 -24.3008 -10.126q-9.72168 -10.125 -9.72168 -23.8955
v-72.9043q0 -13.7715 9.72168 -23.8965q9.71973 -10.126 24.3008 -10.126h79.3848q13.7695 0 23.4912 10.126q9.71973 10.125 9.71973 23.8965v72.9043q0 13.7705 -9.71973 23.8955q-9.72168 10.126 -23.4912 10.126h-79.3848z" />
    <glyph glyph-name="Idotaccent" unicode="&#x130;" horiz-adv-x="331" 
d="M117 700v0q-18 0 -31 -13t-13 -31v-613q0 -18 13 -30.5t31 -12.5h108q18 0 30.5 12.5t12.5 30.5v613q0 18 -12.5 31t-30.5 13h-108zM127.803 926.011v0q-16.2012 0 -27.001 -11.25q-10.8008 -11.25 -10.8008 -26.5508v-81.002q0 -15.3008 10.8008 -26.5508
q10.7998 -11.251 27.001 -11.251h88.2021q15.2998 0 26.1006 11.251q10.7998 11.25 10.7998 26.5508v81.002q0 15.3008 -10.7998 26.5508q-10.8008 11.25 -26.1006 11.25h-88.2021z" />
    <glyph glyph-name="Igrave" unicode="&#xcc;" horiz-adv-x="331" 
d="M117 700v0q-18 0 -31 -13t-13 -31v-613q0 -18 13 -30.5t31 -12.5h108q18 0 30.5 12.5t12.5 30.5v613q0 18 -12.5 31t-30.5 13h-108zM63 923h106q20 0 30 -22l35 -101q5 -16 -4.5 -29.5t-26.5 -13.5h-73q-17 0 -28 15l-66 100q-10 18 -1 34.5t28 16.5v0z" />
    <glyph glyph-name="Imacron" unicode="&#x12a;" horiz-adv-x="331" 
d="M26 928v0q-18 0 -30 -12t-12 -30v-66q0 -17 12 -29.5t30 -12.5h284q17 0 29.5 12.5t12.5 29.5v66q0 18 -12.5 30t-29.5 12h-284zM117 700v0q-18 0 -31 -13t-13 -31v-613q0 -18 13 -30.5t31 -12.5h108q18 0 30.5 12.5t12.5 30.5v613q0 18 -12.5 31t-30.5 13h-108z" />
    <glyph glyph-name="Iogonek" unicode="&#x12e;" horiz-adv-x="331" 
d="M117 700v0q-18 0 -31 -13t-13 -31v-613q0 -18 13 -30.5t31 -12.5h108q18 0 30.5 12.5t12.5 30.5v613q0 18 -12.5 31t-30.5 13h-108zM30 -129v0q0 -51 37.5 -82t94.5 -31q42 0 83 18q23 12 23 34v20q0 17 -12.5 27.5t-30.5 8.5h-12q-51 0 -56 45q0 57 88 90q24 12 24 36v0
q0 20 -16 30.5t-35 4.5q-188 -77 -188 -201z" />
    <glyph glyph-name="Itilde" unicode="&#x128;" horiz-adv-x="331" 
d="M117 700v0q-18 0 -31 -13t-13 -31v-613q0 -18 13 -30.5t31 -12.5h108q18 0 30.5 12.5t12.5 30.5v613q0 18 -12.5 31t-30.5 13h-108zM311 824v0q3 15 4 38q0 10 -7 16q-7 8 -16 8h-14q-9 0 -15 -6t-8 -14v-3q-1 -2 -1 -4q-4 -5 -16 -5q-11 0 -30 4q-8 1 -14 3q-7 2 -11 2
q-56 14 -86 14q-31 0 -47 -12q-14 -11 -18 -32q-3 -14 -3 -38q0 -10 7 -16q7 -7 15 -7h16q7 0 14 5q7 6 8 14q0 4 2 7q3 5 15 5t30 -4q12 -2 19 -4q4 -1 6 -1q56 -14 87 -14t45 12q15 11 18 32z" />
    <glyph glyph-name="J" unicode="J" horiz-adv-x="622" 
d="M17 240v0q0 -114 76.5 -186t197.5 -72t196 72t75 186v416q0 18 -12.5 31t-31.5 13h-107q-18 0 -30.5 -13t-12.5 -31v-406q0 -82 -77 -88q-36 0 -58 23.5t-22 64.5v0q0 7 -5 12t-13 5h-158q-8 0 -13 -5t-5 -12v-10z" />
    <glyph glyph-name="Jcircumflex" unicode="&#x134;" horiz-adv-x="622" 
d="M17 240v0q0 -114 76.5 -186t197.5 -72t196 72t75 186v416q0 18 -12.5 31t-31.5 13h-107q-18 0 -30.5 -13t-12.5 -31v-406q0 -82 -77 -88q-36 0 -58 23.5t-22 64.5v0q0 7 -5 12t-13 5h-158q-8 0 -13 -5t-5 -12v-10zM287 787v0q-5 -8 -1.5 -15.5t12.5 -7.5h75q7 0 11 6
l41 56q5 6 11.5 6t11.5 -6l40 -56q5 -6 12 -6h77q8 0 12 7.5t-1 15.5l-126 149q-5 5 -11 5h-27q-7 0 -12 -5z" />
    <glyph glyph-name="K" unicode="K" horiz-adv-x="664" 
d="M453 20v0q15 -20 37 -20h123q26 0 38 22.5t-2 45.5l-183 269q-15 24 0 48l163 247q14 23 2 45.5t-38 22.5h-118q-23 0 -37 -21l-92 -146q-20 -27 -50 -18t-30 41v100q0 18 -13 31t-31 13h-106q-18 0 -30.5 -13t-12.5 -31v-613q0 -18 12.5 -30.5t30.5 -12.5h106
q18 0 31 12.5t13 30.5v119q0 32 29.5 41t50.5 -18z" />
    <glyph glyph-name="L" unicode="L" horiz-adv-x="531" 
d="M509 133v0q0 18 -13 30.5t-31 12.5h-161q-18 0 -31 13t-13 31v436q0 18 -13 31t-31 13h-108q-18 0 -30.5 -13t-12.5 -31v-613q0 -18 12.5 -30.5t30.5 -12.5h357q18 0 31 12.5t13 30.5v90z" />
    <glyph glyph-name="Lacute" unicode="&#x139;" horiz-adv-x="531" 
d="M509 133v0q0 18 -13 30.5t-31 12.5h-161q-18 0 -31 13t-13 31v436q0 18 -13 31t-31 13h-108q-18 0 -30.5 -13t-12.5 -31v-613q0 -18 12.5 -30.5t30.5 -12.5h357q18 0 31 12.5t13 30.5v90zM293 923v0q13 0 19 -11.5t-1 -23.5l-77 -116q-10 -15 -27 -15h-73
q-17 0 -26.5 13.5t-4.5 29.5l34 101q10 22 31 22h125z" />
    <glyph glyph-name="Lcaron" unicode="&#x13d;" horiz-adv-x="531" 
d="M18 923v0q-17 0 -29.5 -12t-12.5 -29v-67q0 -17 12.5 -29t29.5 -12h285q17 0 29 12t12 29v67q0 17 -12 29t-29 12h-285zM510 133v0q0 18 -13 30.5t-31 12.5h-161q-18 0 -31 13t-13 31v436q0 18 -13 31t-31 13h-108q-18 0 -30.5 -13t-12.5 -31v-613q0 -18 12.5 -30.5
t30.5 -12.5h357q18 0 31 12.5t13 30.5v90z" />
    <glyph glyph-name="Ldot" unicode="&#x13f;" horiz-adv-x="531" 
d="M509 133v0q0 18 -13 30.5t-31 12.5h-161q-18 0 -31 13t-13 31v436q0 18 -13 31t-31 13h-108q-18 0 -30.5 -13t-12.5 -31v-613q0 -18 12.5 -30.5t30.5 -12.5h357q18 0 31 12.5t13 30.5v90zM317 437v0q-18 0 -30 -12.5t-12 -29.5v-90q0 -17 12 -29.5t30 -12.5h98
q17 0 29 12.5t12 29.5v90q0 17 -12 29.5t-29 12.5h-98z" />
    <glyph glyph-name="Lslash" unicode="&#x141;" horiz-adv-x="531" 
d="M509 133v0q0 18 -13 30.5t-31 12.5h-161q-18 0 -31 13t-13 31v436q0 18 -13 31t-31 13h-108q-18 0 -30.5 -13t-12.5 -31v-613q0 -18 12.5 -30.5t30.5 -12.5h357q18 0 31 12.5t13 30.5v90zM-9 435v0q-17 0 -29 -12t-12 -29v-87q0 -17 12 -29t29 -12h405q17 0 29 12t12 29
v87q0 17 -12 29t-29 12h-405z" />
    <glyph glyph-name="M" unicode="M" horiz-adv-x="982" 
d="M800 0v0q-17 0 -29 10.5t-15 27.5l-29 216q-7 33 -36.5 37.5t-46.5 -25.5l-84 -214q-13 -28 -40 -28h-55q-26 0 -40 28l-83 214q-17 29 -46.5 24.5t-36.5 -37.5l-29 -215q-3 -17 -15 -27.5t-28 -10.5h-118q-15 0 -25 11.5t-9 27.5l95 624q3 16 15 26.5t28 10.5h126
q26 0 40 -27l114 -262q13 -26 39.5 -26t40.5 26l114 263q14 26 40 26h127q16 0 28 -10.5t15 -26.5l93 -624q2 -16 -8 -27.5t-26 -11.5h-116z" />
    <glyph glyph-name="N" unicode="N" horiz-adv-x="760" 
d="M686 656v0q0 18 -12.5 31t-30.5 13h-100q-18 0 -31 -13t-13 -31v-190q0 -32 -28.5 -41t-49.5 15l-177 242q-15 18 -35 18h-103q-18 0 -31 -13t-13 -31v-613q0 -18 13 -30.5t31 -12.5h99q18 0 31 12.5t13 30.5v203q0 32 28.5 41.5t50.5 -15.5l186 -254q14 -18 35 -18h94
q18 0 30.5 12.5t12.5 30.5v613z" />
    <glyph glyph-name="Nacute" unicode="&#x143;" horiz-adv-x="760" 
d="M686 656v0q0 18 -12.5 31t-30.5 13h-100q-18 0 -31 -13t-13 -31v-190q0 -32 -28.5 -41t-49.5 15l-177 242q-15 18 -35 18h-103q-18 0 -31 -13t-13 -31v-613q0 -18 13 -30.5t31 -12.5h99q18 0 31 12.5t13 30.5v203q0 32 28.5 41.5t50.5 -15.5l186 -254q14 -18 35 -18h94
q18 0 30.5 12.5t12.5 30.5v613zM494 923v0q13 0 19 -11.5t-1 -23.5l-77 -116q-10 -15 -27 -15h-73q-17 0 -26.5 13.5t-4.5 29.5l34 101q10 22 31 22h125z" />
    <glyph glyph-name="Ncaron" unicode="&#x147;" horiz-adv-x="760" 
d="M686 656v0q0 18 -12.5 31t-30.5 13h-100q-18 0 -31 -13t-13 -31v-190q0 -32 -28.5 -41t-49.5 15l-177 242q-15 18 -35 18h-103q-18 0 -31 -13t-13 -31v-613q0 -18 13 -30.5t31 -12.5h99q18 0 31 12.5t13 30.5v203q0 32 28.5 41.5t50.5 -15.5l186 -254q14 -18 35 -18h94
q18 0 30.5 12.5t12.5 30.5v613zM516 911v0q5 7 1 14t-12 7h-71q-6 0 -11 -5l-38 -53q-5 -6 -11.5 -6t-10.5 6l-38 53q-5 5 -11 5h-73q-8 0 -11.5 -7t1.5 -14l119 -141q4 -5 11 -5h25q6 0 11 5z" />
    <glyph glyph-name="Eng" unicode="&#x14a;" horiz-adv-x="760" 
d="M686 656v0q0 18 -12.5 31t-30.5 13h-100q-18 0 -31 -13t-13 -31v-190q0 -32 -28.5 -41t-49.5 15l-177 242q-15 18 -35 18h-103q-18 0 -31 -13t-13 -31v-613q0 -18 13 -30.5t31 -12.5h99q18 0 31 12.5t13 30.5v203q0 32 28.5 41.5t50.5 -15.5l186 -254q14 -18 35 -18h94
q18 0 30.5 12.5t12.5 30.5v613zM325 -185v0q-25 -11 -25 -35v-18q0 -19 14.5 -29.5t32.5 -5.5q59 19 93.5 66t34.5 115v123q0 15 -10.5 25.5t-25.5 10.5h-110q-15 0 -26 -10.5t-11 -25.5v-101q0 -15 11 -25.5t26 -10.5v0q25 0 33.5 -23t-10.5 -41q-11 -9 -27 -15z" />
    <glyph glyph-name="Ntilde" unicode="&#xd1;" horiz-adv-x="760" 
d="M686 656v0q0 18 -12.5 31t-30.5 13h-100q-18 0 -31 -13t-13 -31v-190q0 -32 -28.5 -41t-49.5 15l-177 242q-15 18 -35 18h-103q-18 0 -31 -13t-13 -31v-613q0 -18 13 -30.5t31 -12.5h99q18 0 31 12.5t13 30.5v203q0 32 28.5 41.5t50.5 -15.5l186 -254q14 -18 35 -18h94
q18 0 30.5 12.5t12.5 30.5v613zM514 824v0q3 15 4 38q0 10 -7 16q-7 8 -16 8h-14q-9 0 -15 -6t-8 -14v-3q-1 -2 -1 -4q-4 -5 -16 -5q-11 0 -30 4q-8 1 -14 3q-7 2 -11 2q-56 14 -86 14q-31 0 -47 -12q-14 -11 -18 -32q-3 -14 -3 -38q0 -10 7 -16q7 -7 15 -7h16q7 0 14 5
q7 6 8 14q0 4 2 7q3 5 15 5t30 -4q12 -2 19 -4q4 -1 6 -1q56 -14 87 -14t45 12q15 11 18 32z" />
    <glyph glyph-name="O" unicode="O" horiz-adv-x="832" 
d="M417 -18q-172 3 -279 105.5t-107 262.5t108.5 264t277.5 104q168 0 276 -103.5t108 -264.5t-108 -264.5t-276 -103.5zM417 162q81 1 132 53.5t51 134.5t-51.5 135t-131.5 53t-132.5 -53t-52.5 -135t52.5 -135t132.5 -53z" />
    <glyph glyph-name="Oacute" unicode="&#xd3;" horiz-adv-x="832" 
d="M417 -18q-172 3 -279 105.5t-107 262.5t108.5 264t277.5 104q168 0 276 -103.5t108 -264.5t-108 -264.5t-276 -103.5zM417 162q81 1 132 53.5t51 134.5t-51.5 135t-131.5 53t-132.5 -53t-52.5 -135t52.5 -135t132.5 -53zM534 923v0q13 0 19 -11.5t-1 -23.5l-77 -116
q-10 -15 -27 -15h-73q-17 0 -26.5 13.5t-4.5 29.5l34 101q10 22 31 22h125z" />
    <glyph glyph-name="Obreve" unicode="&#x14e;" horiz-adv-x="832" 
d="M417 -18q-172 3 -279 105.5t-107 262.5t108.5 264t277.5 104q168 0 276 -103.5t108 -264.5t-108 -264.5t-276 -103.5zM417 162q81 1 132 53.5t51 134.5t-51.5 135t-131.5 53t-132.5 -53t-52.5 -135t52.5 -135t132.5 -53zM556 832v0q8 23 9 59q2 9 -5 15q-5 7 -14 7h-48
q-7 0 -14 -6q-5 -5 -7 -13q0 -9 -2 -16q-4 -12 -17 -20q-13 -7 -43 -7t-43 7q-13 8 -17 20q-2 6 -2 16q-1 8 -6 13q-7 6 -14 6h-47q-9 0 -15 -7q-6 -6 -5 -15q1 -36 10 -59q10 -31 43 -50q32 -18 96 -18t97 18q33 19 44 50z" />
    <glyph glyph-name="Ocircumflex" unicode="&#xd4;" horiz-adv-x="832" 
d="M417 -18q-172 3 -279 105.5t-107 262.5t108.5 264t277.5 104q168 0 276 -103.5t108 -264.5t-108 -264.5t-276 -103.5zM417 162q81 1 132 53.5t51 134.5t-51.5 135t-131.5 53t-132.5 -53t-52.5 -135t52.5 -135t132.5 -53zM264 787v0q-5 -8 -1.5 -15.5t12.5 -7.5h75
q7 0 11 6l41 56q5 6 11.5 6t11.5 -6l40 -56q5 -6 12 -6h77q8 0 12 7.5t-1 15.5l-126 149q-5 5 -11 5h-27q-7 0 -12 -5z" />
    <glyph glyph-name="Odieresis" unicode="&#xd6;" horiz-adv-x="832" 
d="M417 -18q-172 3 -279 105.5t-107 262.5t108.5 264t277.5 104q168 0 276 -103.5t108 -264.5t-108 -264.5t-276 -103.5zM417 162q81 1 132 53.5t51 134.5t-51.5 135t-131.5 53t-132.5 -53t-52.5 -135t52.5 -135t132.5 -53zM281.725 916.429v0q-14.5811 0 -24.3008 -10.126
q-9.72168 -10.125 -9.72168 -23.8955v-72.9043q0 -13.7715 9.72168 -23.8965q9.71973 -10.126 24.3008 -10.126h79.3848q13.7695 0 23.4912 10.126q9.71973 10.125 9.71973 23.8965v72.9043q0 13.7705 -9.71973 23.8955q-9.72168 10.126 -23.4912 10.126h-79.3848z
M470.725 917.429v0q-14.5811 0 -24.3008 -10.126q-9.72168 -10.125 -9.72168 -23.8955v-72.9043q0 -13.7715 9.72168 -23.8965q9.71973 -10.126 24.3008 -10.126h79.3848q13.7695 0 23.4912 10.126q9.71973 10.125 9.71973 23.8965v72.9043q0 13.7705 -9.71973 23.8955
q-9.72168 10.126 -23.4912 10.126h-79.3848z" />
    <glyph glyph-name="Ograve" unicode="&#xd2;" horiz-adv-x="832" 
d="M417 -18q-172 3 -279 105.5t-107 262.5t108.5 264t277.5 104q168 0 276 -103.5t108 -264.5t-108 -264.5t-276 -103.5zM417 162q81 1 132 53.5t51 134.5t-51.5 135t-131.5 53t-132.5 -53t-52.5 -135t52.5 -135t132.5 -53zM307 923h106q20 0 30 -22l35 -101
q5 -16 -4.5 -29.5t-26.5 -13.5h-73q-17 0 -28 15l-66 100q-10 18 -1 34.5t28 16.5v0z" />
    <glyph glyph-name="Ohungarumlaut" unicode="&#x150;" horiz-adv-x="832" 
d="M417 -18q-172 3 -279 105.5t-107 262.5t108.5 264t277.5 104q168 0 276 -103.5t108 -264.5t-108 -264.5t-276 -103.5zM417 162q81 1 132 53.5t51 134.5t-51.5 135t-131.5 53t-132.5 -53t-52.5 -135t52.5 -135t132.5 -53zM389 923v0q14 0 20 -11.5t-1 -23.5l-77 -116
q-11 -15 -27 -15h-73q-17 0 -26.5 13.5t-4.5 29.5l34 101q10 22 31 22h124zM598 923v0q20 0 29 -16.5t-2 -34.5l-66 -100q-11 -15 -27 -15h-74q-16 0 -25.5 13.5t-4.5 29.5l34 101q10 22 31 22h105z" />
    <glyph glyph-name="Omacron" unicode="&#x14c;" horiz-adv-x="832" 
d="M417 -18q-172 3 -279 105.5t-107 262.5t108.5 264t277.5 104q168 0 276 -103.5t108 -264.5t-108 -264.5t-276 -103.5zM417 162q81 1 132 53.5t51 134.5t-51.5 135t-131.5 53t-132.5 -53t-52.5 -135t52.5 -135t132.5 -53zM262 917v0q-17 0 -29 -12t-12 -30v-66
q0 -17 12 -29.5t29 -12.5h285q17 0 29.5 12.5t12.5 29.5v66q0 18 -12.5 30t-29.5 12h-285z" />
    <glyph glyph-name="Oslash" unicode="&#xd8;" horiz-adv-x="832" 
d="M611 676v0q88 -47 139 -130.5t51 -192.5q0 -161 -108 -264.5t-277 -103.5h-5h-1l-34 -117q-12 -29 -40 -29h-99q-21 0 -33 16t-7 37l38 132q-95 44 -149.5 130t-54.5 199q0 160 108.5 264t276.5 104q11 0 22 -1l18 63q12 30 40 30h99q21 0 33 -16.5t7 -36.5zM232 353v0
q0 -87 58 -141l95 327q-69 -12 -111 -62.5t-42 -123.5zM464 170v0q62 16 99 64.5t37 118.5q0 77 -46 129z" />
    <glyph glyph-name="Otilde" unicode="&#xd5;" horiz-adv-x="832" 
d="M417 -18q-172 3 -279 105.5t-107 262.5t108.5 264t277.5 104q168 0 276 -103.5t108 -264.5t-108 -264.5t-276 -103.5zM417 162q81 1 132 53.5t51 134.5t-51.5 135t-131.5 53t-132.5 -53t-52.5 -135t52.5 -135t132.5 -53zM555 824v0q3 15 4 38q0 10 -7 16q-7 8 -16 8h-14
q-9 0 -15 -6t-8 -14v-3q-1 -2 -1 -4q-4 -5 -16 -5q-11 0 -30 4q-8 1 -14 3q-7 2 -11 2q-56 14 -86 14q-31 0 -47 -12q-14 -11 -18 -32q-3 -14 -3 -38q0 -10 7 -16q7 -7 15 -7h16q7 0 14 5q7 6 8 14q0 4 2 7q3 5 15 5t30 -4q12 -2 19 -4q4 -1 6 -1q56 -14 87 -14t45 12
q15 11 18 32z" />
    <glyph glyph-name="OE" unicode="&#x152;" horiz-adv-x="1144" 
d="M417 162q81 1 132 53.5t51 134.5t-51.5 135t-131.5 53t-132.5 -53t-52.5 -135t52.5 -135t132.5 -53zM647 652v4q0 18 12.5 31t30.5 13h361q18 0 31 -13t13 -31v-79q0 -19 -13 -31.5t-31 -12.5h-169q-18 0 -30.5 -13t-12.5 -31v-15q0 -19 12.5 -31.5t30.5 -12.5h143
q18 0 31 -13t13 -31v-71q0 -18 -13 -30.5t-31 -12.5h-143q-18 0 -30.5 -13t-12.5 -31v-17q0 -18 12.5 -31t30.5 -13h178q18 0 30.5 -13t12.5 -31v-80q0 -18 -12.5 -30.5t-30.5 -12.5h-370q-18 0 -30.5 12.5t-12.5 30.5v5q-96 -66 -230 -66q-172 3 -279 105.5t-107 262.5
t108.5 264t277.5 104q134 0 230 -66z" />
    <glyph glyph-name="P" unicode="P" horiz-adv-x="645" 
d="M621 447v0q0 110 -73.5 181.5t-185.5 71.5h-254q-18 0 -31 -13t-13 -31v-613q0 -18 13 -30.5t31 -12.5h106q18 0 30.5 12.5t12.5 30.5v106q0 19 13 31.5t31 12.5h61q112 0 185.5 72t73.5 182zM423 446v0q0 -37 -23 -61t-61 -24h-38q-18 0 -31 13t-13 31v83q0 18 13 30.5
t31 12.5h38q38 0 61 -23.5t23 -61.5z" />
    <glyph glyph-name="Thorn" unicode="&#xde;" horiz-adv-x="645" 
d="M621 349v0q0 110 -73.5 181.5t-185.5 71.5h-254q-18 0 -31 -13t-13 -31v-613q0 -18 13 -30.5t31 -12.5h106q18 0 30.5 12.5t12.5 30.5v106q0 19 13 31.5t31 12.5h61q112 0 185.5 72t73.5 182zM423 348v0q0 -37 -23 -61t-61 -24h-38q-18 0 -31 13t-13 31v83q0 18 13 30.5
t31 12.5h38q38 0 61 -23.5t23 -61.5zM107 704v0q-18 0 -31 -13t-13 -31v-613q0 -18 13 -30.5t31 -12.5h108q18 0 30.5 12.5t12.5 30.5v613q0 18 -12.5 31t-30.5 13h-108z" />
    <glyph glyph-name="Q" unicode="Q" horiz-adv-x="833" 
d="M692 41v0l55 -69q15 -22 4 -44.5t-37 -22.5h-95q-19 0 -32 15l-47 58q-13 16 -34 13q-43 -9 -90 -9v0q-169 0 -277.5 103.5t-108.5 264.5q0 160 108.5 263.5t277.5 103.5q168 0 276 -103t108 -264q0 -159 -106 -262q-9 -10 -9.5 -23t7.5 -24zM231 350v0q0 -67 35 -115
t94 -65q8 -2 12.5 4.5t-0.5 13.5l-28 35q-16 23 -5 45.5t38 22.5h94q19 0 33 -15l32 -41q6 -7 15 -6.5t14 7.5q35 48 35 114q0 82 -52 135t-132 53t-132.5 -53.5t-52.5 -134.5z" />
    <glyph glyph-name="R" unicode="R" horiz-adv-x="666" 
d="M312 214v0q24 0 39 -23l89 -168q14 -23 38 -23h116q24 0 36.5 20.5t1.5 43.5l-86 157q-7 14 -4 29t15 25q82 68 82 177q0 110 -73.5 179t-186.5 69h-260q-18 0 -30.5 -13t-12.5 -31v-613q0 -18 12.5 -30.5t30.5 -12.5h106q18 0 30.5 12.5t12.5 30.5v127q0 18 13 31t31 13
v0zM268 420v0v65q0 18 13 30.5t31 12.5h44q41 0 63 -21.5t22 -53.5q0 -33 -22 -55t-63 -22h-44q-18 0 -31 13t-13 31z" />
    <glyph glyph-name="Racute" unicode="&#x154;" horiz-adv-x="666" 
d="M312 214v0q24 0 39 -23l89 -168q14 -23 38 -23h116q24 0 36.5 20.5t1.5 43.5l-86 157q-7 14 -4 29t15 25q82 68 82 177q0 110 -73.5 179t-186.5 69h-260q-18 0 -30.5 -13t-12.5 -31v-613q0 -18 12.5 -30.5t30.5 -12.5h106q18 0 30.5 12.5t12.5 30.5v127q0 18 13 31t31 13
v0zM268 420v0v65q0 18 13 30.5t31 12.5h44q41 0 63 -21.5t22 -53.5q0 -33 -22 -55t-63 -22h-44q-18 0 -31 13t-13 31zM477 923v0q13 0 19 -11.5t-1 -23.5l-77 -116q-10 -15 -27 -15h-73q-17 0 -26.5 13.5t-4.5 29.5l34 101q10 22 31 22h125z" />
    <glyph glyph-name="Rcaron" unicode="&#x158;" horiz-adv-x="666" 
d="M312 214v0q24 0 39 -23l89 -168q14 -23 38 -23h116q24 0 36.5 20.5t1.5 43.5l-86 157q-7 14 -4 29t15 25q82 68 82 177q0 110 -73.5 179t-186.5 69h-260q-18 0 -30.5 -13t-12.5 -31v-613q0 -18 12.5 -30.5t30.5 -12.5h106q18 0 30.5 12.5t12.5 30.5v127q0 18 13 31t31 13
v0zM268 420v0v65q0 18 13 30.5t31 12.5h44q41 0 63 -21.5t22 -53.5q0 -33 -22 -55t-63 -22h-44q-18 0 -31 13t-13 31zM499 911v0q5 7 1 14t-12 7h-71q-6 0 -11 -5l-38 -53q-5 -6 -11.5 -6t-10.5 6l-38 53q-5 5 -11 5h-73q-8 0 -11.5 -7t1.5 -14l119 -141q4 -5 11 -5h25
q6 0 11 5z" />
    <glyph glyph-name="S" unicode="S" horiz-adv-x="629" 
d="M316 -17v0v0q81 0 144 26t99.5 77.5t36.5 128.5q0 60 -22.5 98.5t-58 62t-77 37t-80.5 23.5q-51 11 -85 25t-34 44q0 25 21 36.5t47 11.5q23 0 41.5 -9.5t26.5 -29.5q14 -26 41 -26h110q20 0 33 15t10 35q-16 85 -83 131.5t-177 46.5q-124 0 -195 -56.5t-71 -160.5
q0 -59 21.5 -97t55.5 -60.5t74 -35.5t79 -22q1 0 2 -1q51 -10 85 -24.5t34 -47.5q0 -28 -24.5 -44t-54.5 -16q-26 0 -47.5 12t-30.5 36q-14 27 -40 27h-116q-20 0 -33 -15.5t-10 -35.5q18 -92 91 -142t187 -50z" />
    <glyph glyph-name="Sacute" unicode="&#x15a;" horiz-adv-x="629" 
d="M316 -17v0v0q81 0 144 26t99.5 77.5t36.5 128.5q0 60 -22.5 98.5t-58 62t-77 37t-80.5 23.5q-51 11 -85 25t-34 44q0 25 21 36.5t47 11.5q23 0 41.5 -9.5t26.5 -29.5q14 -26 41 -26h110q20 0 33 15t10 35q-16 85 -83 131.5t-177 46.5q-124 0 -195 -56.5t-71 -160.5
q0 -59 21.5 -97t55.5 -60.5t74 -35.5t79 -22q1 0 2 -1q51 -10 85 -24.5t34 -47.5q0 -28 -24.5 -44t-54.5 -16q-26 0 -47.5 12t-30.5 36q-14 27 -40 27h-116q-20 0 -33 -15.5t-10 -35.5q18 -92 91 -142t187 -50zM437 923v0q13 0 19 -11.5t-1 -23.5l-77 -116q-10 -15 -27 -15
h-73q-17 0 -26.5 13.5t-4.5 29.5l34 101q10 22 31 22h125z" />
    <glyph glyph-name="Scaron" unicode="&#x160;" horiz-adv-x="629" 
d="M316 -17v0v0q81 0 144 26t99.5 77.5t36.5 128.5q0 60 -22.5 98.5t-58 62t-77 37t-80.5 23.5q-51 11 -85 25t-34 44q0 25 21 36.5t47 11.5q23 0 41.5 -9.5t26.5 -29.5q14 -26 41 -26h110q20 0 33 15t10 35q-16 85 -83 131.5t-177 46.5q-124 0 -195 -56.5t-71 -160.5
q0 -59 21.5 -97t55.5 -60.5t74 -35.5t79 -22q1 0 2 -1q51 -10 85 -24.5t34 -47.5q0 -28 -24.5 -44t-54.5 -16q-26 0 -47.5 12t-30.5 36q-14 27 -40 27h-116q-20 0 -33 -15.5t-10 -35.5q18 -92 91 -142t187 -50zM459 911v0q5 7 1 14t-12 7h-71q-6 0 -11 -5l-38 -53
q-5 -6 -11.5 -6t-10.5 6l-38 53q-5 5 -11 5h-73q-8 0 -11.5 -7t1.5 -14l119 -141q4 -5 11 -5h25q6 0 11 5z" />
    <glyph glyph-name="Scedilla" unicode="&#x15e;" horiz-adv-x="629" 
d="M316 -17v0v0q81 0 144 26t99.5 77.5t36.5 128.5q0 60 -22.5 98.5t-58 62t-77 37t-80.5 23.5q-51 11 -85 25t-34 44q0 25 21 36.5t47 11.5q23 0 41.5 -9.5t26.5 -29.5q14 -26 41 -26h110q20 0 33 15t10 35q-16 85 -83 131.5t-177 46.5q-124 0 -195 -56.5t-71 -160.5
q0 -59 21.5 -97t55.5 -60.5t74 -35.5t79 -22q1 0 2 -1q51 -10 85 -24.5t34 -47.5q0 -28 -24.5 -44t-54.5 -16q-26 0 -47.5 12t-30.5 36q-14 27 -40 27h-116q-20 0 -33 -15.5t-10 -35.5q18 -92 91 -142t187 -50zM421 -131v0q0 73 -80 93q-7 2 -10.5 7.5t-1.5 12.5l10 36
q3 14 -5 25t-22 11h-28q-19 0 -27 -21l-31 -111q-2 -7 3 -13v0q5 -7 12 -7h38q28 0 31 -27q0 -26 -31 -28h-36q-12 0 -20 -8.5t-8 -19.5v-25q0 -12 8 -20t20 -8h49q56 0 92.5 28t36.5 75z" />
    <glyph glyph-name="Scircumflex" unicode="&#x15c;" horiz-adv-x="629" 
d="M316 -17v0v0q81 0 144 26t99.5 77.5t36.5 128.5q0 60 -22.5 98.5t-58 62t-77 37t-80.5 23.5q-51 11 -85 25t-34 44q0 25 21 36.5t47 11.5q23 0 41.5 -9.5t26.5 -29.5q14 -26 41 -26h110q20 0 33 15t10 35q-16 85 -83 131.5t-177 46.5q-124 0 -195 -56.5t-71 -160.5
q0 -59 21.5 -97t55.5 -60.5t74 -35.5t79 -22q1 0 2 -1q51 -10 85 -24.5t34 -47.5q0 -28 -24.5 -44t-54.5 -16q-26 0 -47.5 12t-30.5 36q-14 27 -40 27h-116q-20 0 -33 -15.5t-10 -35.5q18 -92 91 -142t187 -50zM166 787v0q-5 -8 -1.5 -15.5t12.5 -7.5h75q7 0 11 6l41 56
q5 6 11.5 6t11.5 -6l40 -56q5 -6 12 -6h77q8 0 12 7.5t-1 15.5l-126 149q-5 5 -11 5h-27q-7 0 -12 -5z" />
    <glyph glyph-name="uni1E9E" unicode="&#x1e9e;" horiz-adv-x="621" 
d="M483 369v0q108 -55 108 -170q0 -85 -65.5 -142t-161.5 -57h-60q-14 0 -24 10t-10 24v90q0 14 10 24t24 10h27q62 0 69 64q0 28 -19 45.5t-50 17.5h-27q-14 0 -24 10.5t-10 24.5v73q0 14 10 24.5t24 10.5h20q60 0 65 61v0q0 27 -17.5 44t-47.5 17h-20q-32 0 -55 -23
t-23 -56v0v-229v0v0v-40v0v-1v-167q0 -14 -10 -24t-24 -10h-73q-32 0 -55 23t-23 55v425q0 81 57.5 139t139.5 58h119q93 0 154 -51t61 -128q0 -94 -89 -152v0z" />
    <glyph glyph-name="T" unicode="T" horiz-adv-x="611" 
d="M548 526v0q18 0 30.5 13t12.5 31v86q0 18 -12.5 31t-30.5 13h-487q-18 0 -31 -13t-13 -31v-86q0 -18 13 -31t31 -13h103q18 0 31 -12.5t13 -31.5v-439q0 -18 12.5 -30.5t30.5 -12.5h107q18 0 30.5 12.5t12.5 30.5v439q0 19 13 31.5t31 12.5h103z" />
    <glyph glyph-name="Tbar" unicode="&#x166;" horiz-adv-x="611" 
d="M548 526v0q18 0 30.5 13t12.5 31v86q0 18 -12.5 31t-30.5 13h-487q-18 0 -31 -13t-13 -31v-86q0 -18 13 -31t31 -13h103q18 0 31 -12.5t13 -31.5v-439q0 -18 12.5 -30.5t30.5 -12.5h107q18 0 30.5 12.5t12.5 30.5v439q0 19 13 31.5t31 12.5h103zM101 434v0q-17 0 -29 -12
t-12 -29v-87q0 -17 12 -29t29 -12h405q17 0 29 12t12 29v87q0 17 -12 29t-29 12h-405z" />
    <glyph glyph-name="Tcaron" unicode="&#x164;" horiz-adv-x="611" 
d="M548 526v0q18 0 30.5 13t12.5 31v86q0 18 -12.5 31t-30.5 13h-487q-18 0 -31 -13t-13 -31v-86q0 -18 13 -31t31 -13h103q18 0 31 -12.5t13 -31.5v-439q0 -18 12.5 -30.5t30.5 -12.5h107q18 0 30.5 12.5t12.5 30.5v439q0 19 13 31.5t31 12.5h103zM445 911v0q5 7 1 14
t-12 7h-71q-6 0 -11 -5l-38 -53q-5 -6 -11.5 -6t-10.5 6l-38 53q-5 5 -11 5h-73q-8 0 -11.5 -7t1.5 -14l119 -141q4 -5 11 -5h25q6 0 11 5z" />
    <glyph glyph-name="U" unicode="U" horiz-adv-x="732" 
d="M65 271v0q0 -130 86 -209.5t220 -79.5t219.5 79.5t85.5 209.5v385q0 18 -12.5 31t-30.5 13h-110q-18 0 -31 -13t-13 -31v-382q0 -51 -30 -81.5t-78 -30.5t-78.5 30.5t-30.5 81.5v382q0 18 -12.5 31t-30.5 13h-110q-18 0 -31 -13t-13 -31v-385z" />
    <glyph glyph-name="Uacute" unicode="&#xda;" horiz-adv-x="732" 
d="M65 271v0q0 -130 86 -209.5t220 -79.5t219.5 79.5t85.5 209.5v385q0 18 -12.5 31t-30.5 13h-110q-18 0 -31 -13t-13 -31v-382q0 -51 -30 -81.5t-78 -30.5t-78.5 30.5t-30.5 81.5v382q0 18 -12.5 31t-30.5 13h-110q-18 0 -31 -13t-13 -31v-385zM489 923v0q13 0 19 -11.5
t-1 -23.5l-77 -116q-10 -15 -27 -15h-73q-17 0 -26.5 13.5t-4.5 29.5l34 101q10 22 31 22h125z" />
    <glyph glyph-name="Ubreve" unicode="&#x16c;" horiz-adv-x="732" 
d="M65 271v0q0 -130 86 -209.5t220 -79.5t219.5 79.5t85.5 209.5v385q0 18 -12.5 31t-30.5 13h-110q-18 0 -31 -13t-13 -31v-382q0 -51 -30 -81.5t-78 -30.5t-78.5 30.5t-30.5 81.5v382q0 18 -12.5 31t-30.5 13h-110q-18 0 -31 -13t-13 -31v-385zM511 832v0q8 23 9 59
q2 9 -5 15q-5 7 -14 7h-48q-7 0 -14 -6q-5 -5 -7 -13q0 -9 -2 -16q-4 -12 -17 -20q-13 -7 -43 -7t-43 7q-13 8 -17 20q-2 6 -2 16q-1 8 -6 13q-7 6 -14 6h-47q-9 0 -15 -7q-6 -6 -5 -15q1 -36 10 -59q10 -31 43 -50q32 -18 96 -18t97 18q33 19 44 50z" />
    <glyph glyph-name="Ucircumflex" unicode="&#xdb;" horiz-adv-x="732" 
d="M65 271v0q0 -130 86 -209.5t220 -79.5t219.5 79.5t85.5 209.5v385q0 18 -12.5 31t-30.5 13h-110q-18 0 -31 -13t-13 -31v-382q0 -51 -30 -81.5t-78 -30.5t-78.5 30.5t-30.5 81.5v382q0 18 -12.5 31t-30.5 13h-110q-18 0 -31 -13t-13 -31v-385zM219 787v0
q-5 -8 -1.5 -15.5t12.5 -7.5h75q7 0 11 6l41 56q5 6 11.5 6t11.5 -6l40 -56q5 -6 12 -6h77q8 0 12 7.5t-1 15.5l-126 149q-5 5 -11 5h-27q-7 0 -12 -5z" />
    <glyph glyph-name="Udieresis" unicode="&#xdc;" horiz-adv-x="732" 
d="M65 271v0q0 -130 86 -209.5t220 -79.5t219.5 79.5t85.5 209.5v385q0 18 -12.5 31t-30.5 13h-110q-18 0 -31 -13t-13 -31v-382q0 -51 -30 -81.5t-78 -30.5t-78.5 30.5t-30.5 81.5v382q0 18 -12.5 31t-30.5 13h-110q-18 0 -31 -13t-13 -31v-385zM236.725 916.429v0
q-14.5811 0 -24.3008 -10.126q-9.72168 -10.125 -9.72168 -23.8955v-72.9043q0 -13.7715 9.72168 -23.8965q9.71973 -10.126 24.3008 -10.126h79.3848q13.7695 0 23.4912 10.126q9.71973 10.125 9.71973 23.8965v72.9043q0 13.7705 -9.71973 23.8955
q-9.72168 10.126 -23.4912 10.126h-79.3848zM425.725 917.429v0q-14.5811 0 -24.3008 -10.126q-9.72168 -10.125 -9.72168 -23.8955v-72.9043q0 -13.7715 9.72168 -23.8965q9.71973 -10.126 24.3008 -10.126h79.3848q13.7695 0 23.4912 10.126
q9.71973 10.125 9.71973 23.8965v72.9043q0 13.7705 -9.71973 23.8955q-9.72168 10.126 -23.4912 10.126h-79.3848z" />
    <glyph glyph-name="Ugrave" unicode="&#xd9;" horiz-adv-x="732" 
d="M65 271v0q0 -130 86 -209.5t220 -79.5t219.5 79.5t85.5 209.5v385q0 18 -12.5 31t-30.5 13h-110q-18 0 -31 -13t-13 -31v-382q0 -51 -30 -81.5t-78 -30.5t-78.5 30.5t-30.5 81.5v382q0 18 -12.5 31t-30.5 13h-110q-18 0 -31 -13t-13 -31v-385zM262 923h106q20 0 30 -22
l35 -101q5 -16 -4.5 -29.5t-26.5 -13.5h-73q-17 0 -28 15l-66 100q-10 18 -1 34.5t28 16.5v0z" />
    <glyph glyph-name="Uhungarumlaut" unicode="&#x170;" horiz-adv-x="732" 
d="M65 271v0q0 -130 86 -209.5t220 -79.5t219.5 79.5t85.5 209.5v385q0 18 -12.5 31t-30.5 13h-110q-18 0 -31 -13t-13 -31v-382q0 -51 -30 -81.5t-78 -30.5t-78.5 30.5t-30.5 81.5v382q0 18 -12.5 31t-30.5 13h-110q-18 0 -31 -13t-13 -31v-385zM343 923v0q14 0 20 -11.5
t-1 -23.5l-77 -116q-11 -15 -27 -15h-73q-17 0 -26.5 13.5t-4.5 29.5l34 101q10 22 31 22h124zM552 923v0q20 0 29 -16.5t-2 -34.5l-66 -100q-11 -15 -27 -15h-74q-16 0 -25.5 13.5t-4.5 29.5l34 101q10 22 31 22h105z" />
    <glyph glyph-name="Umacron" unicode="&#x16a;" horiz-adv-x="732" 
d="M205 898v0q-17 0 -29 -12.5t-12 -29.5v-66q0 -18 12 -30t29 -12h285q17 0 29 12t12 30v66q0 17 -12 29.5t-29 12.5h-285zM65 271v0q0 -130 86 -209.5t220 -79.5t219.5 79.5t85.5 209.5v385q0 18 -12.5 31t-30.5 13h-110q-18 0 -31 -13t-13 -31v-382q0 -51 -30 -81.5
t-78 -30.5t-78.5 30.5t-30.5 81.5v382q0 18 -12.5 31t-30.5 13h-110q-18 0 -31 -13t-13 -31v-385z" />
    <glyph glyph-name="Uogonek" unicode="&#x172;" horiz-adv-x="732" 
d="M65 271v0q0 -130 86 -209.5t220 -79.5t219.5 79.5t85.5 209.5v385q0 18 -12.5 31t-30.5 13h-110q-18 0 -31 -13t-13 -31v-382q0 -51 -30 -81.5t-78 -30.5t-78.5 30.5t-30.5 81.5v382q0 18 -12.5 31t-30.5 13h-110q-18 0 -31 -13t-13 -31v-385zM217 -144v0q0 -51 37.5 -82
t94.5 -31q42 0 83 18q23 12 23 34v20q0 17 -12.5 27.5t-30.5 8.5h-12q-51 0 -56 45q0 57 88 90q24 12 24 36v0q0 20 -16 30.5t-35 4.5q-188 -77 -188 -201z" />
    <glyph glyph-name="Uring" unicode="&#x16e;" horiz-adv-x="732" 
d="M65 271v0q0 -130 86 -209.5t220 -79.5t219.5 79.5t85.5 209.5v385q0 18 -12.5 31t-30.5 13h-110q-18 0 -31 -13t-13 -31v-382q0 -51 -30 -81.5t-78 -30.5t-78.5 30.5t-30.5 81.5v382q0 18 -12.5 31t-30.5 13h-110q-18 0 -31 -13t-13 -31v-385zM369.603 975.509
q45.501 0 75.251 -29.75q29.751 -29.751 29.751 -75.252q0 -44.8008 -29.751 -74.9014q-29.75 -30.0996 -75.251 -30.0996q-44.8008 0 -74.9014 30.0996q-30.1006 30.1006 -30.1006 74.9014q0 45.501 30.1006 75.252q30.1006 29.75 74.9014 29.75zM371.702 820.106
q22.4004 0 36.751 14.3506q14.3496 14.3496 14.3496 36.75t-14.3496 36.751q-14.3506 14.3506 -36.751 14.3506t-36.75 -14.3506q-14.3506 -14.3506 -14.3506 -36.751t14.7002 -36.75q14.7002 -14.3506 36.4004 -14.3506z" />
    <glyph glyph-name="Utilde" unicode="&#x168;" horiz-adv-x="732" 
d="M65 271v0q0 -130 86 -209.5t220 -79.5t219.5 79.5t85.5 209.5v385q0 18 -12.5 31t-30.5 13h-110q-18 0 -31 -13t-13 -31v-382q0 -51 -30 -81.5t-78 -30.5t-78.5 30.5t-30.5 81.5v382q0 18 -12.5 31t-30.5 13h-110q-18 0 -31 -13t-13 -31v-385zM510 824v0q3 15 4 38
q0 10 -7 16q-7 8 -16 8h-14q-9 0 -15 -6t-8 -14v-3q-1 -2 -1 -4q-4 -5 -16 -5q-11 0 -30 4q-8 1 -14 3q-7 2 -11 2q-56 14 -86 14q-31 0 -47 -12q-14 -11 -18 -32q-3 -14 -3 -38q0 -10 7 -16q7 -7 15 -7h16q7 0 14 5q7 6 8 14q0 4 2 7q3 5 15 5t30 -4q12 -2 19 -4q4 -1 6 -1
q56 -14 87 -14t45 12q15 11 18 32z" />
    <glyph glyph-name="V" unicode="V" horiz-adv-x="724" 
d="M706 656v0q5 17 -4 30.5t-26 13.5h-149q-21 0 -31 -23l-102 -318q-9 -23 -30 -23t-31 22l-105 320q-9 22 -30 22h-150q-17 0 -26 -13.5t-4 -30.5l249 -636q10 -20 30 -20h135q20 0 30 20z" />
    <glyph glyph-name="W" unicode="W" horiz-adv-x="1050" 
d="M1028 658v0q4 16 -5.5 29t-25.5 13h-138q-21 0 -31 -24l-80 -291q-8 -22 -28.5 -23.5t-31.5 19.5l-126 296q-10 19 -29 19h-24q-20 0 -30 -19l-123 -296q-11 -21 -31.5 -19.5t-28.5 23.5l-82 291q-10 24 -31 24h-139q-17 0 -26 -13t-5 -29l199 -636q10 -22 31 -22h124
q20 0 30 20l94 242q10 20 30 20t30 -20l96 -242q10 -20 29 -20h125q21 0 30 22z" />
    <glyph glyph-name="Wacute" unicode="&#x1e82;" horiz-adv-x="1050" 
d="M1028 658v0q4 16 -5.5 29t-25.5 13h-138q-21 0 -31 -24l-80 -291q-8 -22 -28.5 -23.5t-31.5 19.5l-126 296q-10 19 -29 19h-24q-20 0 -30 -19l-123 -296q-11 -21 -31.5 -19.5t-28.5 23.5l-82 291q-10 24 -31 24h-139q-17 0 -26 -13t-5 -29l199 -636q10 -22 31 -22h124
q20 0 30 20l94 242q10 20 30 20t30 -20l96 -242q10 -20 29 -20h125q21 0 30 22zM642 923v0q13 0 19 -11.5t-1 -23.5l-77 -116q-10 -15 -27 -15h-73q-17 0 -26.5 13.5t-4.5 29.5l34 101q10 22 31 22h125z" />
    <glyph glyph-name="Wcircumflex" unicode="&#x174;" horiz-adv-x="1050" 
d="M1028 658v0q4 16 -5.5 29t-25.5 13h-138q-21 0 -31 -24l-80 -291q-8 -22 -28.5 -23.5t-31.5 19.5l-126 296q-10 19 -29 19h-24q-20 0 -30 -19l-123 -296q-11 -21 -31.5 -19.5t-28.5 23.5l-82 291q-10 24 -31 24h-139q-17 0 -26 -13t-5 -29l199 -636q10 -22 31 -22h124
q20 0 30 20l94 242q10 20 30 20t30 -20l96 -242q10 -20 29 -20h125q21 0 30 22zM371 787v0q-5 -8 -1.5 -15.5t12.5 -7.5h75q7 0 11 6l41 56q5 6 11.5 6t11.5 -6l40 -56q5 -6 12 -6h77q8 0 12 7.5t-1 15.5l-126 149q-5 5 -11 5h-27q-7 0 -12 -5z" />
    <glyph glyph-name="Wdieresis" unicode="&#x1e84;" horiz-adv-x="1050" 
d="M1028 658v0q4 16 -5.5 29t-25.5 13h-138q-21 0 -31 -24l-80 -291q-8 -22 -28.5 -23.5t-31.5 19.5l-126 296q-10 19 -29 19h-24q-20 0 -30 -19l-123 -296q-11 -21 -31.5 -19.5t-28.5 23.5l-82 291q-10 24 -31 24h-139q-17 0 -26 -13t-5 -29l199 -636q10 -22 31 -22h124
q20 0 30 20l94 242q10 20 30 20t30 -20l96 -242q10 -20 29 -20h125q21 0 30 22zM389.725 916.429v0q-14.5811 0 -24.3008 -10.126q-9.72168 -10.125 -9.72168 -23.8955v-72.9043q0 -13.7715 9.72168 -23.8965q9.71973 -10.126 24.3008 -10.126h79.3848
q13.7695 0 23.4912 10.126q9.71973 10.125 9.71973 23.8965v72.9043q0 13.7705 -9.71973 23.8955q-9.72168 10.126 -23.4912 10.126h-79.3848zM578.725 917.429v0q-14.5811 0 -24.3008 -10.126q-9.72168 -10.125 -9.72168 -23.8955v-72.9043q0 -13.7715 9.72168 -23.8965
q9.71973 -10.126 24.3008 -10.126h79.3848q13.7695 0 23.4912 10.126q9.71973 10.125 9.71973 23.8965v72.9043q0 13.7705 -9.71973 23.8955q-9.72168 10.126 -23.4912 10.126h-79.3848z" />
    <glyph glyph-name="Wgrave" unicode="&#x1e80;" horiz-adv-x="1050" 
d="M1028 658v0q4 16 -5.5 29t-25.5 13h-138q-21 0 -31 -24l-80 -291q-8 -22 -28.5 -23.5t-31.5 19.5l-126 296q-10 19 -29 19h-24q-20 0 -30 -19l-123 -296q-11 -21 -31.5 -19.5t-28.5 23.5l-82 291q-10 24 -31 24h-139q-17 0 -26 -13t-5 -29l199 -636q10 -22 31 -22h124
q20 0 30 20l94 242q10 20 30 20t30 -20l96 -242q10 -20 29 -20h125q21 0 30 22zM414 923h106q20 0 30 -22l35 -101q5 -16 -4.5 -29.5t-26.5 -13.5h-73q-17 0 -28 15l-66 100q-10 18 -1 34.5t28 16.5v0z" />
    <glyph glyph-name="X" unicode="X" horiz-adv-x="664" 
d="M438 17v0q10 -17 28 -17h143q19 0 28 15.5t0 32.5l-173 297q-9 16 0 32l159 275q9 17 0 32.5t-28 15.5h-139q-18 0 -29 -17l-68 -128q-10 -17 -28 -17t-29 17l-67 128q-11 17 -29 17h-142q-18 0 -27 -16t0 -33l160 -271q9 -16 1 -32l-174 -300q-8 -17 0.5 -32.5
t27.5 -15.5h144q18 0 28 17l79 146q11 16 28.5 16t28.5 -17z" />
    <glyph glyph-name="Y" unicode="Y" horiz-adv-x="699" 
d="M449 265v0q0 8 5 16l212 371q9 17 0 32.5t-28 15.5h-138q-19 0 -29 -18l-91 -179q-11 -17 -28 -17t-29 17l-90 179q-11 18 -29 18h-139q-18 0 -27 -15.5t-1 -32.5l212 -371q4 -7 4 -15v-234q0 -13 9.5 -22.5t22.5 -9.5h132q14 0 23 9.5t9 22.5v233z" />
    <glyph glyph-name="Yacute" unicode="&#xdd;" horiz-adv-x="699" 
d="M449 265v0q0 8 5 16l212 371q9 17 0 32.5t-28 15.5h-138q-19 0 -29 -18l-91 -179q-11 -17 -28 -17t-29 17l-90 179q-11 18 -29 18h-139q-18 0 -27 -15.5t-1 -32.5l212 -371q4 -7 4 -15v-234q0 -13 9.5 -22.5t22.5 -9.5h132q14 0 23 9.5t9 22.5v233zM474 923v0
q13 0 19 -11.5t-1 -23.5l-77 -116q-10 -15 -27 -15h-73q-17 0 -26.5 13.5t-4.5 29.5l34 101q10 22 31 22h125z" />
    <glyph glyph-name="Ycircumflex" unicode="&#x176;" horiz-adv-x="699" 
d="M449 265v0q0 8 5 16l212 371q9 17 0 32.5t-28 15.5h-138q-19 0 -29 -18l-91 -179q-11 -17 -28 -17t-29 17l-90 179q-11 18 -29 18h-139q-18 0 -27 -15.5t-1 -32.5l212 -371q4 -7 4 -15v-234q0 -13 9.5 -22.5t22.5 -9.5h132q14 0 23 9.5t9 22.5v233zM204 787v0
q-5 -8 -1.5 -15.5t12.5 -7.5h75q7 0 11 6l41 56q5 6 11.5 6t11.5 -6l40 -56q5 -6 12 -6h77q8 0 12 7.5t-1 15.5l-126 149q-5 5 -11 5h-27q-7 0 -12 -5z" />
    <glyph glyph-name="Ydieresis" unicode="&#x178;" horiz-adv-x="699" 
d="M449 265v0q0 8 5 16l212 371q9 17 0 32.5t-28 15.5h-138q-19 0 -29 -18l-91 -179q-11 -17 -28 -17t-29 17l-90 179q-11 18 -29 18h-139q-18 0 -27 -15.5t-1 -32.5l212 -371q4 -7 4 -15v-234q0 -13 9.5 -22.5t22.5 -9.5h132q14 0 23 9.5t9 22.5v233zM221.725 916.429v0
q-14.5811 0 -24.3008 -10.126q-9.72168 -10.125 -9.72168 -23.8955v-72.9043q0 -13.7715 9.72168 -23.8965q9.71973 -10.126 24.3008 -10.126h79.3848q13.7695 0 23.4912 10.126q9.71973 10.125 9.71973 23.8965v72.9043q0 13.7705 -9.71973 23.8955
q-9.72168 10.126 -23.4912 10.126h-79.3848zM410.725 917.429v0q-14.5811 0 -24.3008 -10.126q-9.72168 -10.125 -9.72168 -23.8955v-72.9043q0 -13.7715 9.72168 -23.8965q9.71973 -10.126 24.3008 -10.126h79.3848q13.7695 0 23.4912 10.126
q9.71973 10.125 9.71973 23.8965v72.9043q0 13.7705 -9.71973 23.8955q-9.72168 10.126 -23.4912 10.126h-79.3848z" />
    <glyph glyph-name="Ygrave" unicode="&#x1ef2;" horiz-adv-x="699" 
d="M449 265v0q0 8 5 16l212 371q9 17 0 32.5t-28 15.5h-138q-19 0 -29 -18l-91 -179q-11 -17 -28 -17t-29 17l-90 179q-11 18 -29 18h-139q-18 0 -27 -15.5t-1 -32.5l212 -371q4 -7 4 -15v-234q0 -13 9.5 -22.5t22.5 -9.5h132q14 0 23 9.5t9 22.5v233zM247 923h106
q20 0 30 -22l35 -101q5 -16 -4.5 -29.5t-26.5 -13.5h-73q-17 0 -28 15l-66 100q-10 18 -1 34.5t28 16.5v0z" />
    <glyph glyph-name="Z" unicode="Z" horiz-adv-x="603" 
d="M574 147v0q0 14 -9.5 23t-22.5 9h-185q-18 0 -27 15.5t-1 32.5l229 422q4 7 4 15v4q0 13 -9.5 22.5t-22.5 9.5h-461q-14 0 -23 -9.5t-9 -22.5v-116q0 -13 9 -22.5t23 -9.5h156q18 0 27 -15t1 -32l-230 -426q-3 -7 -3 -15v0q0 -13 9 -22.5t23 -9.5h490q13 0 22.5 9.5
t9.5 22.5v115z" />
    <glyph glyph-name="Zacute" unicode="&#x179;" horiz-adv-x="603" 
d="M574 147v0q0 14 -9.5 23t-22.5 9h-185q-18 0 -27 15.5t-1 32.5l229 422q4 7 4 15v4q0 13 -9.5 22.5t-22.5 9.5h-461q-14 0 -23 -9.5t-9 -22.5v-116q0 -13 9 -22.5t23 -9.5h156q18 0 27 -15t1 -32l-230 -426q-3 -7 -3 -15v0q0 -13 9 -22.5t23 -9.5h490q13 0 22.5 9.5
t9.5 22.5v115zM416 923v0q13 0 19 -11.5t-1 -23.5l-77 -116q-10 -15 -27 -15h-73q-17 0 -26.5 13.5t-4.5 29.5l34 101q10 22 31 22h125z" />
    <glyph glyph-name="Zcaron" unicode="&#x17d;" horiz-adv-x="603" 
d="M574 147v0q0 14 -9.5 23t-22.5 9h-185q-18 0 -27 15.5t-1 32.5l229 422q4 7 4 15v4q0 13 -9.5 22.5t-22.5 9.5h-461q-14 0 -23 -9.5t-9 -22.5v-116q0 -13 9 -22.5t23 -9.5h156q18 0 27 -15t1 -32l-230 -426q-3 -7 -3 -15v0q0 -13 9 -22.5t23 -9.5h490q13 0 22.5 9.5
t9.5 22.5v115zM438 911v0q5 7 1 14t-12 7h-71q-6 0 -11 -5l-38 -53q-5 -6 -11.5 -6t-10.5 6l-38 53q-5 5 -11 5h-73q-8 0 -11.5 -7t1.5 -14l119 -141q4 -5 11 -5h25q6 0 11 5z" />
    <glyph glyph-name="Zdotaccent" unicode="&#x17b;" horiz-adv-x="603" 
d="M574 147v0q0 14 -9.5 23t-22.5 9h-185q-18 0 -27 15.5t-1 32.5l229 422q4 7 4 15v4q0 13 -9.5 22.5t-22.5 9.5h-461q-14 0 -23 -9.5t-9 -22.5v-116q0 -13 9 -22.5t23 -9.5h156q18 0 27 -15t1 -32l-230 -426q-3 -7 -3 -15v0q0 -13 9 -22.5t23 -9.5h490q13 0 22.5 9.5
t9.5 22.5v115zM253.803 926.011v0q-16.2012 0 -27.001 -11.25q-10.8008 -11.25 -10.8008 -26.5508v-81.002q0 -15.3008 10.8008 -26.5508q10.7998 -11.251 27.001 -11.251h88.2021q15.2998 0 26.1006 11.251q10.7998 11.25 10.7998 26.5508v81.002
q0 15.3008 -10.7998 26.5508q-10.8008 11.25 -26.1006 11.25h-88.2021z" />
    <glyph glyph-name="uni0122" unicode="&#x122;" horiz-adv-x="766" 
d="M446 232v0q-26 0 -44.5 18.5t-18.5 44.5v38q0 27 18.5 45.5t44.5 18.5h201q27 0 45.5 -18.5t18.5 -45.5v-288q0 -26 -18.5 -44.5t-45.5 -18.5h-110q-5 0 -7.5 3t-2.5 7v0q0 4 -3 6t-7 1q-8 -2 -15 -4q-34 -13 -70 -13q-161 0 -267 104t-106 263q0 160 104.5 264
t266.5 104q137 0 238 -76q23 -19 25 -45.5t-17 -48.5l-33 -36q-17 -17 -39 -19.5t-42 10.5q-53 35 -118 35h-5v0v0v0h-7q-72 0 -119 -44q-57 -53 -57 -144q0 -83 48 -134.5t128 -51.5q42 0 77 14q18 9 18 26v0q0 12 -8.5 20.5t-20.5 8.5h-52zM344.701 -236.301v0
q-17.5 -7.7002 -17.5 -24.501v-12.5996q0 -13.3008 10.1494 -20.6504q10.1504 -7.35059 22.751 -3.85059q41.3008 13.3008 65.4512 46.2012t24.1504 80.501v86.1016q0 10.501 -7.35059 17.8506q-7.34961 7.35059 -17.8506 7.35059h-77.001q-10.5 0 -18.2002 -7.35059
q-7.7002 -7.34961 -7.7002 -17.8506v-70.7012q0 -10.5 7.7002 -17.8496q7.7002 -7.35059 18.2002 -7.35059v0q17.5 0 23.4502 -16.1006q5.9502 -16.0996 -7.34961 -28.7002q-7.7002 -6.2998 -18.9004 -10.5z" />
    <glyph glyph-name="uni0136" unicode="&#x136;" horiz-adv-x="664" 
d="M453 20v0q15 -20 37 -20h123q26 0 38 22.5t-2 45.5l-183 269q-15 24 0 48l163 247q14 23 2 45.5t-38 22.5h-118q-23 0 -37 -21l-92 -146q-20 -27 -50 -18t-30 41v100q0 18 -13 31t-31 13h-106q-18 0 -30.5 -13t-12.5 -31v-613q0 -18 12.5 -30.5t30.5 -12.5h106
q18 0 31 12.5t13 30.5v119q0 32 29.5 41t50.5 -18zM324.701 -236.301v0q-17.5 -7.7002 -17.5 -24.501v-12.5996q0 -13.3008 10.1494 -20.6504q10.1504 -7.35059 22.751 -3.85059q41.3008 13.3008 65.4512 46.2012t24.1504 80.501v86.1016q0 10.501 -7.35059 17.8506
q-7.34961 7.35059 -17.8506 7.35059h-77.001q-10.5 0 -18.2002 -7.35059q-7.7002 -7.34961 -7.7002 -17.8506v-70.7012q0 -10.5 7.7002 -17.8496q7.7002 -7.35059 18.2002 -7.35059v0q17.5 0 23.4502 -16.1006q5.9502 -16.0996 -7.34961 -28.7002
q-7.7002 -6.2998 -18.9004 -10.5z" />
    <glyph glyph-name="uni013B" unicode="&#x13b;" horiz-adv-x="531" 
d="M509 133v0q0 18 -13 30.5t-31 12.5h-161q-18 0 -31 13t-13 31v436q0 18 -13 31t-31 13h-108q-18 0 -30.5 -13t-12.5 -31v-613q0 -18 12.5 -30.5t30.5 -12.5h357q18 0 31 12.5t13 30.5v90zM246.701 -236.301v0q-17.5 -7.7002 -17.5 -24.501v-12.5996
q0 -13.3008 10.1494 -20.6504q10.1504 -7.35059 22.751 -3.85059q41.3008 13.3008 65.4512 46.2012t24.1504 80.501v86.1016q0 10.501 -7.35059 17.8506q-7.34961 7.35059 -17.8506 7.35059h-77.001q-10.5 0 -18.2002 -7.35059q-7.7002 -7.34961 -7.7002 -17.8506v-70.7012
q0 -10.5 7.7002 -17.8496q7.7002 -7.35059 18.2002 -7.35059v0q17.5 0 23.4502 -16.1006q5.9502 -16.0996 -7.34961 -28.7002q-7.7002 -6.2998 -18.9004 -10.5z" />
    <glyph glyph-name="uni0145" unicode="&#x145;" horiz-adv-x="760" 
d="M686 656v0q0 18 -12.5 31t-30.5 13h-100q-18 0 -31 -13t-13 -31v-190q0 -32 -28.5 -41t-49.5 15l-177 242q-15 18 -35 18h-103q-18 0 -31 -13t-13 -31v-613q0 -18 13 -30.5t31 -12.5h99q18 0 31 12.5t13 30.5v203q0 32 28.5 41.5t50.5 -15.5l186 -254q14 -18 35 -18h94
q18 0 30.5 12.5t12.5 30.5v613zM333.701 -236.301v0q-17.5 -7.7002 -17.5 -24.501v-12.5996q0 -13.3008 10.1494 -20.6504q10.1504 -7.35059 22.751 -3.85059q41.3008 13.3008 65.4512 46.2012t24.1504 80.501v86.1016q0 10.501 -7.35059 17.8506
q-7.34961 7.35059 -17.8506 7.35059h-77.001q-10.5 0 -18.2002 -7.35059q-7.7002 -7.34961 -7.7002 -17.8506v-70.7012q0 -10.5 7.7002 -17.8496q7.7002 -7.35059 18.2002 -7.35059v0q17.5 0 23.4502 -16.1006q5.9502 -16.0996 -7.34961 -28.7002
q-7.7002 -6.2998 -18.9004 -10.5z" />
    <glyph glyph-name="uni0156" unicode="&#x156;" horiz-adv-x="666" 
d="M312 214v0q24 0 39 -23l89 -168q14 -23 38 -23h116q24 0 36.5 20.5t1.5 43.5l-86 157q-7 14 -4 29t15 25q82 68 82 177q0 110 -73.5 179t-186.5 69h-260q-18 0 -30.5 -13t-12.5 -31v-613q0 -18 12.5 -30.5t30.5 -12.5h106q18 0 30.5 12.5t12.5 30.5v127q0 18 13 31t31 13
v0zM268 420v0v65q0 18 13 30.5t31 12.5h44q41 0 63 -21.5t22 -53.5q0 -33 -22 -55t-63 -22h-44q-18 0 -31 13t-13 31zM317.701 -236.301v0q-17.5 -7.7002 -17.5 -24.501v-12.5996q0 -13.3008 10.1494 -20.6504q10.1504 -7.35059 22.751 -3.85059
q41.3008 13.3008 65.4512 46.2012t24.1504 80.501v86.1016q0 10.501 -7.35059 17.8506q-7.34961 7.35059 -17.8506 7.35059h-77.001q-10.5 0 -18.2002 -7.35059q-7.7002 -7.34961 -7.7002 -17.8506v-70.7012q0 -10.5 7.7002 -17.8496q7.7002 -7.35059 18.2002 -7.35059v0
q17.5 0 23.4502 -16.1006q5.9502 -16.0996 -7.34961 -28.7002q-7.7002 -6.2998 -18.9004 -10.5z" />
    <glyph glyph-name="uni0162" unicode="&#x162;" horiz-adv-x="611" 
d="M548 526v0q18 0 30.5 13t12.5 31v86q0 18 -12.5 31t-30.5 13h-487q-18 0 -31 -13t-13 -31v-86q0 -18 13 -31t31 -13h103q18 0 31 -12.5t13 -31.5v-439q0 -18 12.5 -30.5t30.5 -12.5h107q18 0 30.5 12.5t12.5 30.5v439q0 19 13 31.5t31 12.5h103zM407 -131v0q0 73 -80 93
q-7 2 -10.5 7.5t-1.5 12.5l10 36q3 14 -5 25t-22 11h-28q-19 0 -27 -21l-31 -111q-2 -7 3 -13v0q5 -7 12 -7h38q28 0 31 -27q0 -26 -31 -28h-36q-12 0 -20 -8.5t-8 -19.5v-25q0 -12 8 -20t20 -8h49q56 0 92.5 28t36.5 75z" />
    <glyph glyph-name="uni0218" unicode="&#x218;" horiz-adv-x="629" 
d="M316 -17v0v0q81 0 144 26t99.5 77.5t36.5 128.5q0 60 -22.5 98.5t-58 62t-77 37t-80.5 23.5q-51 11 -85 25t-34 44q0 25 21 36.5t47 11.5q23 0 41.5 -9.5t26.5 -29.5q14 -26 41 -26h110q20 0 33 15t10 35q-16 85 -83 131.5t-177 46.5q-124 0 -195 -56.5t-71 -160.5
q0 -59 21.5 -97t55.5 -60.5t74 -35.5t79 -22q1 0 2 -1q51 -10 85 -24.5t34 -47.5q0 -28 -24.5 -44t-54.5 -16q-26 0 -47.5 12t-30.5 36q-14 27 -40 27h-116q-20 0 -33 -15.5t-10 -35.5q18 -92 91 -142t187 -50zM277.701 -236.301v0q-17.5 -7.7002 -17.5 -24.501v-12.5996
q0 -13.3008 10.1494 -20.6504q10.1504 -7.35059 22.751 -3.85059q41.3008 13.3008 65.4512 46.2012t24.1504 80.501v86.1016q0 10.501 -7.35059 17.8506q-7.34961 7.35059 -17.8506 7.35059h-77.001q-10.5 0 -18.2002 -7.35059q-7.7002 -7.34961 -7.7002 -17.8506v-70.7012
q0 -10.5 7.7002 -17.8496q7.7002 -7.35059 18.2002 -7.35059v0q17.5 0 23.4502 -16.1006q5.9502 -16.0996 -7.34961 -28.7002q-7.7002 -6.2998 -18.9004 -10.5z" />
    <glyph glyph-name="uni021A" unicode="&#x21a;" horiz-adv-x="611" 
d="M548 526v0q18 0 30.5 13t12.5 31v86q0 18 -12.5 31t-30.5 13h-487q-18 0 -31 -13t-13 -31v-86q0 -18 13 -31t31 -13h103q18 0 31 -12.5t13 -31.5v-439q0 -18 12.5 -30.5t30.5 -12.5h107q18 0 30.5 12.5t12.5 30.5v439q0 19 13 31.5t31 12.5h103zM263.701 -236.301v0
q-17.5 -7.7002 -17.5 -24.501v-12.5996q0 -13.3008 10.1494 -20.6504q10.1504 -7.35059 22.751 -3.85059q41.3008 13.3008 65.4512 46.2012t24.1504 80.501v86.1016q0 10.501 -7.35059 17.8506q-7.34961 7.35059 -17.8506 7.35059h-77.001q-10.5 0 -18.2002 -7.35059
q-7.7002 -7.34961 -7.7002 -17.8506v-70.7012q0 -10.5 7.7002 -17.8496q7.7002 -7.35059 18.2002 -7.35059v0q17.5 0 23.4502 -16.1006q5.9502 -16.0996 -7.34961 -28.7002q-7.7002 -6.2998 -18.9004 -10.5z" />
    <glyph glyph-name="a" unicode="a" horiz-adv-x="692" 
d="M634 499v0q0 17 -12 29t-30 12h-81q-14 0 -22 -14v0q-5 -10 -15.5 -13t-20.5 3q-62 41 -142 41q-124 0 -203.5 -80.5t-79.5 -206.5q0 -125 79.5 -206.5t203.5 -81.5q80 0 143 42q8 5 17 2t14 -12v0q6 -14 19 -14h88q18 0 30 12.5t12 29.5v457zM457 270v0q0 -53 -34.5 -88
t-86.5 -35t-86.5 35t-34.5 88t34.5 88t86.5 35t86.5 -35t34.5 -88z" />
    <glyph glyph-name="aacute" unicode="&#xe1;" horiz-adv-x="692" 
d="M634 499v0q0 17 -12 29t-30 12h-81q-14 0 -22 -14v0q-5 -10 -15.5 -13t-20.5 3q-62 41 -142 41q-124 0 -203.5 -80.5t-79.5 -206.5q0 -125 79.5 -206.5t203.5 -81.5q80 0 143 42q8 5 17 2t14 -12v0q6 -14 19 -14h88q18 0 30 12.5t12 29.5v457zM457 270v0q0 -53 -34.5 -88
t-86.5 -35t-86.5 35t-34.5 88t34.5 88t86.5 35t86.5 -35t34.5 -88zM449 763v0q13 0 19 -11.5t-1 -23.5l-77 -116q-10 -15 -27 -15h-73q-17 0 -26.5 13.5t-4.5 29.5l34 101q10 22 31 22h125z" />
    <glyph glyph-name="abreve" unicode="&#x103;" horiz-adv-x="692" 
d="M634 499v0q0 17 -12 29t-30 12h-81q-14 0 -22 -14v0q-5 -10 -15.5 -13t-20.5 3q-62 41 -142 41q-124 0 -203.5 -80.5t-79.5 -206.5q0 -125 79.5 -206.5t203.5 -81.5q80 0 143 42q8 5 17 2t14 -12v0q6 -14 19 -14h88q18 0 30 12.5t12 29.5v457zM457 270v0q0 -53 -34.5 -88
t-86.5 -35t-86.5 35t-34.5 88t34.5 88t86.5 35t86.5 -35t34.5 -88zM471 672v0q8 23 9 59q2 9 -5 15q-5 7 -14 7h-48q-7 0 -14 -6q-5 -5 -7 -13q0 -9 -2 -16q-4 -12 -17 -20q-13 -7 -43 -7t-43 7q-13 8 -17 20q-2 6 -2 16q-1 8 -6 13q-7 6 -14 6h-47q-9 0 -15 -7
q-6 -6 -5 -15q1 -36 10 -59q10 -31 43 -50q32 -18 96 -18t97 18q33 19 44 50z" />
    <glyph glyph-name="acircumflex" unicode="&#xe2;" horiz-adv-x="692" 
d="M634 499v0q0 17 -12 29t-30 12h-81q-14 0 -22 -14v0q-5 -10 -15.5 -13t-20.5 3q-62 41 -142 41q-124 0 -203.5 -80.5t-79.5 -206.5q0 -125 79.5 -206.5t203.5 -81.5q80 0 143 42q8 5 17 2t14 -12v0q6 -14 19 -14h88q18 0 30 12.5t12 29.5v457zM457 270v0q0 -53 -34.5 -88
t-86.5 -35t-86.5 35t-34.5 88t34.5 88t86.5 35t86.5 -35t34.5 -88zM198 627v0q-5 -8 -1.5 -15.5t12.5 -7.5h75q7 0 11 6l41 56q5 6 11.5 6t11.5 -6l40 -56q5 -6 12 -6h77q8 0 12 7.5t-1 15.5l-126 149q-5 5 -11 5h-27q-7 0 -12 -5z" />
    <glyph glyph-name="adieresis" unicode="&#xe4;" horiz-adv-x="692" 
d="M634 499v0q0 17 -12 29t-30 12h-81q-14 0 -22 -14v0q-5 -10 -15.5 -13t-20.5 3q-62 41 -142 41q-124 0 -203.5 -80.5t-79.5 -206.5q0 -125 79.5 -206.5t203.5 -81.5q80 0 143 42q8 5 17 2t14 -12v0q6 -14 19 -14h88q18 0 30 12.5t12 29.5v457zM457 270v0q0 -53 -34.5 -88
t-86.5 -35t-86.5 35t-34.5 88t34.5 88t86.5 35t86.5 -35t34.5 -88zM196.725 756.429v0q-14.5811 0 -24.3008 -10.126q-9.72168 -10.125 -9.72168 -23.8955v-72.9043q0 -13.7715 9.72168 -23.8965q9.71973 -10.126 24.3008 -10.126h79.3848q13.7695 0 23.4912 10.126
q9.71973 10.125 9.71973 23.8965v72.9043q0 13.7705 -9.71973 23.8955q-9.72168 10.126 -23.4912 10.126h-79.3848zM385.725 757.429v0q-14.5811 0 -24.3008 -10.126q-9.72168 -10.125 -9.72168 -23.8955v-72.9043q0 -13.7715 9.72168 -23.8965
q9.71973 -10.126 24.3008 -10.126h79.3848q13.7695 0 23.4912 10.126q9.71973 10.125 9.71973 23.8965v72.9043q0 13.7705 -9.71973 23.8955q-9.72168 10.126 -23.4912 10.126h-79.3848z" />
    <glyph glyph-name="agrave" unicode="&#xe0;" horiz-adv-x="692" 
d="M634 499v0q0 17 -12 29t-30 12h-81q-14 0 -22 -14v0q-5 -10 -15.5 -13t-20.5 3q-62 41 -142 41q-124 0 -203.5 -80.5t-79.5 -206.5q0 -125 79.5 -206.5t203.5 -81.5q80 0 143 42q8 5 17 2t14 -12v0q6 -14 19 -14h88q18 0 30 12.5t12 29.5v457zM457 270v0q0 -53 -34.5 -88
t-86.5 -35t-86.5 35t-34.5 88t34.5 88t86.5 35t86.5 -35t34.5 -88zM222 763h106q20 0 30 -22l35 -101q5 -16 -4.5 -29.5t-26.5 -13.5h-73q-17 0 -28 15l-66 100q-10 18 -1 34.5t28 16.5v0z" />
    <glyph glyph-name="amacron" unicode="&#x101;" horiz-adv-x="692" 
d="M496 616q-47 0 -53 48q0 43 53 48q47 0 52 -48q0 -44 -52 -48zM234 664q0 -41 -48 -46h-39v91h39q43 0 48 -45zM308 643v-25h-63v91h62v-24h-32v-10h29v-22h-29v-10h33zM351 664l-6 -46h-30l13 91h30l19 -43l19 43h30l13 -91h-30l-5 46l-22 -46h-10zM496 684
q-18 0 -20 -20q0 -19 20 -21q17 0 20 21q0 18 -20 20zM178 646h6q18 0 19 18q0 17 -19 18h-6v-36zM634 499v0q0 17 -12 29t-30 12h-81q-14 0 -22 -14v0q-5 -10 -15.5 -13t-20.5 3q-62 41 -142 41q-124 0 -203.5 -80.5t-79.5 -206.5q0 -125 79.5 -206.5t203.5 -81.5
q80 0 143 42q8 5 17 2t14 -12v0q6 -14 19 -14h88q18 0 30 12.5t12 29.5v457zM457 270v0q0 -53 -34.5 -88t-86.5 -35t-86.5 35t-34.5 88t34.5 88t86.5 35t86.5 -35t34.5 -88z" />
    <glyph glyph-name="aogonek" unicode="&#x105;" horiz-adv-x="692" 
d="M634 499v0q0 17 -12 29t-30 12h-81q-14 0 -22 -14v0q-5 -10 -15.5 -13t-20.5 3q-62 41 -142 41q-124 0 -203.5 -80.5t-79.5 -206.5q0 -125 79.5 -206.5t203.5 -81.5q80 0 143 42q8 5 17 2t14 -12v0q6 -14 19 -14h88q18 0 30 12.5t12 29.5v457zM457 270v0q0 -53 -34.5 -88
t-86.5 -35t-86.5 35t-34.5 88t34.5 88t86.5 35t86.5 -35t34.5 -88zM395 -129v0q0 -51 37.5 -82t94.5 -31q42 0 83 18q23 12 23 34v20q0 17 -12.5 27.5t-30.5 8.5h-12q-51 0 -56 45q0 57 88 90q24 12 24 36v0q0 20 -16 30.5t-35 4.5q-188 -77 -188 -201z" />
    <glyph glyph-name="aring" unicode="&#xe5;" horiz-adv-x="692" 
d="M634 499v0q0 17 -12 29t-30 12h-81q-14 0 -22 -14v0q-5 -10 -15.5 -13t-20.5 3q-62 41 -142 41q-124 0 -203.5 -80.5t-79.5 -206.5q0 -125 79.5 -206.5t203.5 -81.5q80 0 143 42q8 5 17 2t14 -12v0q6 -14 19 -14h88q18 0 30 12.5t12 29.5v457zM457 270v0q0 -53 -34.5 -88
t-86.5 -35t-86.5 35t-34.5 88t34.5 88t86.5 35t86.5 -35t34.5 -88zM330.603 815.509q45.501 0 75.251 -29.75q29.751 -29.751 29.751 -75.252q0 -44.8008 -29.751 -74.9014q-29.75 -30.0996 -75.251 -30.0996q-44.8008 0 -74.9014 30.0996
q-30.1006 30.1006 -30.1006 74.9014q0 45.501 30.1006 75.252q30.1006 29.75 74.9014 29.75zM332.702 660.106q22.4004 0 36.751 14.3506q14.3496 14.3496 14.3496 36.75t-14.3496 36.751q-14.3506 14.3506 -36.751 14.3506t-36.75 -14.3506
q-14.3506 -14.3506 -14.3506 -36.751t14.7002 -36.75q14.7002 -14.3506 36.4004 -14.3506z" />
    <glyph glyph-name="atilde" unicode="&#xe3;" horiz-adv-x="692" 
d="M634 499v0q0 17 -12 29t-30 12h-81q-14 0 -22 -14v0q-5 -10 -15.5 -13t-20.5 3q-62 41 -142 41q-124 0 -203.5 -80.5t-79.5 -206.5q0 -125 79.5 -206.5t203.5 -81.5q80 0 143 42q8 5 17 2t14 -12v0q6 -14 19 -14h88q18 0 30 12.5t12 29.5v457zM457 270v0q0 -53 -34.5 -88
t-86.5 -35t-86.5 35t-34.5 88t34.5 88t86.5 35t86.5 -35t34.5 -88zM470 664v0q3 15 4 38q0 10 -7 16q-7 8 -16 8h-14q-9 0 -15 -6t-8 -14v-3q-1 -2 -1 -4q-4 -5 -16 -5q-11 0 -30 4q-8 1 -14 3q-7 2 -11 2q-56 14 -86 14q-31 0 -47 -12q-14 -11 -18 -32q-3 -14 -3 -38
q0 -10 7 -16q7 -7 15 -7h16q7 0 14 5q7 6 8 14q0 4 2 7q3 5 15 5t30 -4q12 -2 19 -4q4 -1 6 -1q56 -14 87 -14t45 12q15 11 18 32z" />
    <glyph glyph-name="ae" unicode="&#xe6;" horiz-adv-x="1073" 
d="M457 270q0 -53 -34.5 -88t-86.5 -35t-86.5 35t-34.5 88t34.5 88t86.5 35t86.5 -35t34.5 -88zM688 329q-14 0 -20.5 11.5t0.5 24.5q31 47 92 47q62 0 94 -47q7 -12 1 -24t-20 -12h-147zM760 -18q92 0 163 44.5t107 123.5q5 12 -2 22t-19 10h-136q-14 0 -24 -12
q-33 -38 -89 -38q-71 0 -100 61q-5 12 1.5 22.5t19.5 10.5h348q10 0 16.5 6t7.5 15q1 14 1 28q0 119 -82 201t-212 82q-77 0 -138 -30q-12 12 -30 12h-81q-14 0 -22 -14q-5 -10 -15.5 -13t-20.5 3q-62 41 -142 41q-124 0 -203.5 -80.5t-79.5 -206.5q0 -125 79.5 -206.5
t203.5 -81.5q80 0 143 42q8 5 17 2t14 -12q6 -14 19 -14h88q18 0 30 12q61 -30 138 -30z" />
    <glyph glyph-name="aeacute" unicode="&#x1fd;" horiz-adv-x="1073" 
d="M457 270q0 -53 -34.5 -88t-86.5 -35t-86.5 35t-34.5 88t34.5 88t86.5 35t86.5 -35t34.5 -88zM688 329q-14 0 -20.5 11.5t0.5 24.5q31 47 92 47q62 0 94 -47q7 -12 1 -24t-20 -12h-147zM760 -18q92 0 163 44.5t107 123.5q5 12 -2 22t-19 10h-136q-14 0 -24 -12
q-33 -38 -89 -38q-71 0 -100 61q-5 12 1.5 22.5t19.5 10.5h348q10 0 16.5 6t7.5 15q1 14 1 28q0 119 -82 201t-212 82q-77 0 -138 -30q-12 12 -30 12h-81q-14 0 -22 -14q-5 -10 -15.5 -13t-20.5 3q-62 41 -142 41q-124 0 -203.5 -80.5t-79.5 -206.5q0 -125 79.5 -206.5
t203.5 -81.5q80 0 143 42q8 5 17 2t14 -12q6 -14 19 -14h88q18 0 30 12q61 -30 138 -30zM668 763v0q13 0 19 -11.5t-1 -23.5l-77 -116q-10 -15 -27 -15h-73q-17 0 -26.5 13.5t-4.5 29.5l34 101q10 22 31 22h125z" />
    <glyph glyph-name="b" unicode="b" horiz-adv-x="687" 
d="M373 557v0v0q-43 0 -81 -13q-21 -6 -37.5 6.5t-16.5 33.5v109q0 17 -12 29.5t-29 12.5h-101q-17 0 -29 -12.5t-12 -29.5v-652q0 -17 12 -29t29 -12h81q14 0 21 14v0q5 9 14.5 12t19.5 -2q61 -42 141 -42q124 0 203.5 81t79.5 206q0 126 -79.5 207t-203.5 81zM469 269v0
q0 -52 -34.5 -87t-86.5 -35t-86.5 35t-34.5 87q0 53 34.5 88.5t86.5 35.5t86.5 -35.5t34.5 -88.5z" />
    <glyph glyph-name="c" unicode="c" horiz-adv-x="636" 
d="M336 -18v0v0q99 0 172 51.5t104 138.5q6 22 -6 39t-33 17h-104q-23 0 -37 -23q-33 -56 -96 -56q-48 0 -79.5 34t-31.5 87t31 86.5t80 33.5q61 0 96 -52q13 -21 35 -21h104q21 0 33 17t6 39q-30 85 -102.5 134.5t-170.5 49.5q-131 0 -215 -80.5t-84 -205.5
q0 -126 84.5 -207.5t213.5 -81.5z" />
    <glyph glyph-name="cacute" unicode="&#x107;" horiz-adv-x="636" 
d="M336 -18v0v0q99 0 172 51.5t104 138.5q6 22 -6 39t-33 17h-104q-23 0 -37 -23q-33 -56 -96 -56q-48 0 -79.5 34t-31.5 87t31 86.5t80 33.5q61 0 96 -52q13 -21 35 -21h104q21 0 33 17t6 39q-30 85 -102.5 134.5t-170.5 49.5q-131 0 -215 -80.5t-84 -205.5
q0 -126 84.5 -207.5t213.5 -81.5zM445 763v0q13 0 19 -11.5t-1 -23.5l-77 -116q-10 -15 -27 -15h-73q-17 0 -26.5 13.5t-4.5 29.5l34 101q10 22 31 22h125z" />
    <glyph glyph-name="ccaron" unicode="&#x10d;" horiz-adv-x="636" 
d="M336 -18v0v0q99 0 172 51.5t104 138.5q6 22 -6 39t-33 17h-104q-23 0 -37 -23q-33 -56 -96 -56q-48 0 -79.5 34t-31.5 87t31 86.5t80 33.5q61 0 96 -52q13 -21 35 -21h104q21 0 33 17t6 39q-30 85 -102.5 134.5t-170.5 49.5q-131 0 -215 -80.5t-84 -205.5
q0 -126 84.5 -207.5t213.5 -81.5zM467 751v0q5 7 1 14t-12 7h-71q-6 0 -11 -5l-38 -53q-5 -6 -11.5 -6t-10.5 6l-38 53q-5 5 -11 5h-73q-8 0 -11.5 -7t1.5 -14l119 -141q4 -5 11 -5h25q6 0 11 5z" />
    <glyph glyph-name="ccedilla" unicode="&#xe7;" horiz-adv-x="636" 
d="M336 -18v0v0q99 0 172 51.5t104 138.5q6 22 -6 39t-33 17h-104q-23 0 -37 -23q-33 -56 -96 -56q-48 0 -79.5 34t-31.5 87t31 86.5t80 33.5q61 0 96 -52q13 -21 35 -21h104q21 0 33 17t6 39q-30 85 -102.5 134.5t-170.5 49.5q-131 0 -215 -80.5t-84 -205.5
q0 -126 84.5 -207.5t213.5 -81.5zM428 -131v0q0 73 -80 93q-7 2 -10.5 7.5t-1.5 12.5l10 36q3 14 -5 25t-22 11h-28q-19 0 -27 -21l-31 -111q-2 -7 3 -13v0q5 -7 12 -7h38q28 0 31 -27q0 -26 -31 -28h-36q-12 0 -20 -8.5t-8 -19.5v-25q0 -12 8 -20t20 -8h49q56 0 92.5 28
t36.5 75z" />
    <glyph glyph-name="ccircumflex" unicode="&#x109;" horiz-adv-x="636" 
d="M336 -18v0v0q99 0 172 51.5t104 138.5q6 22 -6 39t-33 17h-104q-23 0 -37 -23q-33 -56 -96 -56q-48 0 -79.5 34t-31.5 87t31 86.5t80 33.5q61 0 96 -52q13 -21 35 -21h104q21 0 33 17t6 39q-30 85 -102.5 134.5t-170.5 49.5q-131 0 -215 -80.5t-84 -205.5
q0 -126 84.5 -207.5t213.5 -81.5zM174 627v0q-5 -8 -1.5 -15.5t12.5 -7.5h75q7 0 11 6l41 56q5 6 11.5 6t11.5 -6l40 -56q5 -6 12 -6h77q8 0 12 7.5t-1 15.5l-126 149q-5 5 -11 5h-27q-7 0 -12 -5z" />
    <glyph glyph-name="cdotaccent" unicode="&#x10b;" horiz-adv-x="636" 
d="M336 -18v0v0q99 0 172 51.5t104 138.5q6 22 -6 39t-33 17h-104q-23 0 -37 -23q-33 -56 -96 -56q-48 0 -79.5 34t-31.5 87t31 86.5t80 33.5q61 0 96 -52q13 -21 35 -21h104q21 0 33 17t6 39q-30 85 -102.5 134.5t-170.5 49.5q-131 0 -215 -80.5t-84 -205.5
q0 -126 84.5 -207.5t213.5 -81.5zM282.803 766.011v0q-16.2012 0 -27.001 -11.25q-10.8008 -11.25 -10.8008 -26.5508v-81.002q0 -15.3008 10.8008 -26.5508q10.7998 -11.251 27.001 -11.251h88.2021q15.2998 0 26.1006 11.251q10.7998 11.25 10.7998 26.5508v81.002
q0 15.3008 -10.7998 26.5508q-10.8008 11.25 -26.1006 11.25h-88.2021z" />
    <glyph glyph-name="d" unicode="d" horiz-adv-x="687" 
d="M633 693v0q0 17 -12 29.5t-29 12.5h-101q-17 0 -29.5 -12.5t-12.5 -29.5v-108q0 -21 -16.5 -33.5t-36.5 -6.5q-38 12 -81 12q-124 0 -204 -80.5t-80 -206.5t80 -207t204 -81q80 0 141 42q9 5 19 2t15 -12v0q7 -14 21 -14h81q17 0 29 12t12 29v652zM461 270v0
q0 -53 -34.5 -88.5t-86.5 -35.5t-86.5 35.5t-34.5 88.5t34.5 88t86.5 35t86.5 -35t34.5 -88z" />
    <glyph glyph-name="eth" unicode="&#xf0;" horiz-adv-x="687" 
d="M633 853v0q0 17 -12 29.5t-29 12.5h-101q-17 0 -29.5 -12.5t-12.5 -29.5v-268q0 -21 -16.5 -33.5t-36.5 -6.5q-38 12 -81 12q-124 0 -204 -80.5t-80 -206.5t80 -207t204 -81q80 0 141 42q9 5 19 2t15 -12v0q7 -14 21 -14h81q17 0 29 12t12 29v812zM461 270v0
q0 -53 -34.5 -88.5t-86.5 -35.5t-86.5 35.5t-34.5 88.5t34.5 88t86.5 35t86.5 -35t34.5 -88zM351 671v0q0 -18 12.5 -30t29.5 -12h280q17 0 29 12t12 30v91q0 17 -12 29t-29 12h-280q-17 0 -29.5 -12t-12.5 -29v-91z" />
    <glyph glyph-name="dcaron" unicode="&#x10f;" horiz-adv-x="687" 
d="M633 693v0q0 17 -12 29.5t-29 12.5h-101q-17 0 -29.5 -12.5t-12.5 -29.5v-108q0 -21 -16.5 -33.5t-36.5 -6.5q-38 12 -81 12q-124 0 -204 -80.5t-80 -206.5t80 -207t204 -81q80 0 141 42q9 5 19 2t15 -12v0q7 -14 21 -14h81q17 0 29 12t12 29v652zM461 270v0
q0 -53 -34.5 -88.5t-86.5 -35.5t-86.5 35.5t-34.5 88.5t34.5 88t86.5 35t86.5 -35t34.5 -88zM680 915v0q5 7 1.5 14.5t-11.5 7.5h-71q-6 0 -11 -6l-39 -53q-4 -5 -10.5 -5t-10.5 5l-39 53q-4 6 -10 6h-73q-8 0 -12 -7.5t1 -14.5l120 -141q4 -5 10 -5h26q6 0 10 5z" />
    <glyph glyph-name="e" unicode="e" horiz-adv-x="641" 
d="M618 275v0v0q0 119 -82 200.5t-213 81.5q-127 0 -210 -81.5t-83 -205.5q0 -123 83.5 -205.5t209.5 -82.5q92 0 163.5 44.5t106.5 123.5q5 12 -1.5 22t-19.5 10h-135q-15 0 -25 -12q-33 -38 -89 -38q-71 0 -100 61q-5 12 2 22.5t19 10.5h349q9 0 15.5 6t7.5 15q2 14 2 28z
M252 329v0q-14 0 -20.5 11.5t0.5 24.5q30 47 91 47q63 0 95 -47q7 -12 0.5 -24t-20.5 -12h-146z" />
    <glyph glyph-name="eacute" unicode="&#xe9;" horiz-adv-x="641" 
d="M618 275v0v0q0 119 -82 200.5t-213 81.5q-127 0 -210 -81.5t-83 -205.5q0 -123 83.5 -205.5t209.5 -82.5q92 0 163.5 44.5t106.5 123.5q5 12 -1.5 22t-19.5 10h-135q-15 0 -25 -12q-33 -38 -89 -38q-71 0 -100 61q-5 12 2 22.5t19 10.5h349q9 0 15.5 6t7.5 15q2 14 2 28z
M252 329v0q-14 0 -20.5 11.5t0.5 24.5q30 47 91 47q63 0 95 -47q7 -12 0.5 -24t-20.5 -12h-146zM442 763v0q13 0 19 -11.5t-1 -23.5l-77 -116q-10 -15 -27 -15h-73q-17 0 -26.5 13.5t-4.5 29.5l34 101q10 22 31 22h125z" />
    <glyph glyph-name="ebreve" unicode="&#x115;" horiz-adv-x="641" 
d="M618 275v0v0q0 119 -82 200.5t-213 81.5q-127 0 -210 -81.5t-83 -205.5q0 -123 83.5 -205.5t209.5 -82.5q92 0 163.5 44.5t106.5 123.5q5 12 -1.5 22t-19.5 10h-135q-15 0 -25 -12q-33 -38 -89 -38q-71 0 -100 61q-5 12 2 22.5t19 10.5h349q9 0 15.5 6t7.5 15q2 14 2 28z
M252 329v0q-14 0 -20.5 11.5t0.5 24.5q30 47 91 47q63 0 95 -47q7 -12 0.5 -24t-20.5 -12h-146zM464 672v0q8 23 9 59q2 9 -5 15q-5 7 -14 7h-48q-7 0 -14 -6q-5 -5 -7 -13q0 -9 -2 -16q-4 -12 -17 -20q-13 -7 -43 -7t-43 7q-13 8 -17 20q-2 6 -2 16q-1 8 -6 13q-7 6 -14 6
h-47q-9 0 -15 -7q-6 -6 -5 -15q1 -36 10 -59q10 -31 43 -50q32 -18 96 -18t97 18q33 19 44 50z" />
    <glyph glyph-name="ecaron" unicode="&#x11b;" horiz-adv-x="641" 
d="M618 275v0v0q0 119 -82 200.5t-213 81.5q-127 0 -210 -81.5t-83 -205.5q0 -123 83.5 -205.5t209.5 -82.5q92 0 163.5 44.5t106.5 123.5q5 12 -1.5 22t-19.5 10h-135q-15 0 -25 -12q-33 -38 -89 -38q-71 0 -100 61q-5 12 2 22.5t19 10.5h349q9 0 15.5 6t7.5 15q2 14 2 28z
M252 329v0q-14 0 -20.5 11.5t0.5 24.5q30 47 91 47q63 0 95 -47q7 -12 0.5 -24t-20.5 -12h-146zM465 751v0q5 7 1 14t-12 7h-71q-6 0 -11 -5l-38 -53q-5 -6 -11.5 -6t-10.5 6l-38 53q-5 5 -11 5h-73q-8 0 -11.5 -7t1.5 -14l119 -141q4 -5 11 -5h25q6 0 11 5z" />
    <glyph glyph-name="ecircumflex" unicode="&#xea;" horiz-adv-x="641" 
d="M618 275v0v0q0 119 -82 200.5t-213 81.5q-127 0 -210 -81.5t-83 -205.5q0 -123 83.5 -205.5t209.5 -82.5q92 0 163.5 44.5t106.5 123.5q5 12 -1.5 22t-19.5 10h-135q-15 0 -25 -12q-33 -38 -89 -38q-71 0 -100 61q-5 12 2 22.5t19 10.5h349q9 0 15.5 6t7.5 15q2 14 2 28z
M252 329v0q-14 0 -20.5 11.5t0.5 24.5q30 47 91 47q63 0 95 -47q7 -12 0.5 -24t-20.5 -12h-146zM171 627v0q-5 -8 -1.5 -15.5t12.5 -7.5h75q7 0 11 6l41 56q5 6 11.5 6t11.5 -6l40 -56q5 -6 12 -6h77q8 0 12 7.5t-1 15.5l-126 149q-5 5 -11 5h-27q-7 0 -12 -5z" />
    <glyph glyph-name="edieresis" unicode="&#xeb;" horiz-adv-x="641" 
d="M618 275v0v0q0 119 -82 200.5t-213 81.5q-127 0 -210 -81.5t-83 -205.5q0 -123 83.5 -205.5t209.5 -82.5q92 0 163.5 44.5t106.5 123.5q5 12 -1.5 22t-19.5 10h-135q-15 0 -25 -12q-33 -38 -89 -38q-71 0 -100 61q-5 12 2 22.5t19 10.5h349q9 0 15.5 6t7.5 15q2 14 2 28z
M252 329v0q-14 0 -20.5 11.5t0.5 24.5q30 47 91 47q63 0 95 -47q7 -12 0.5 -24t-20.5 -12h-146zM189.725 756.429v0q-14.5811 0 -24.3008 -10.126q-9.72168 -10.125 -9.72168 -23.8955v-72.9043q0 -13.7715 9.72168 -23.8965q9.71973 -10.126 24.3008 -10.126h79.3848
q13.7695 0 23.4912 10.126q9.71973 10.125 9.71973 23.8965v72.9043q0 13.7705 -9.71973 23.8955q-9.72168 10.126 -23.4912 10.126h-79.3848zM378.725 757.429v0q-14.5811 0 -24.3008 -10.126q-9.72168 -10.125 -9.72168 -23.8955v-72.9043q0 -13.7715 9.72168 -23.8965
q9.71973 -10.126 24.3008 -10.126h79.3848q13.7695 0 23.4912 10.126q9.71973 10.125 9.71973 23.8965v72.9043q0 13.7705 -9.71973 23.8955q-9.72168 10.126 -23.4912 10.126h-79.3848z" />
    <glyph glyph-name="edotaccent" unicode="&#x117;" horiz-adv-x="641" 
d="M618 275v0v0q0 119 -82 200.5t-213 81.5q-127 0 -210 -81.5t-83 -205.5q0 -123 83.5 -205.5t209.5 -82.5q92 0 163.5 44.5t106.5 123.5q5 12 -1.5 22t-19.5 10h-135q-15 0 -25 -12q-33 -38 -89 -38q-71 0 -100 61q-5 12 2 22.5t19 10.5h349q9 0 15.5 6t7.5 15q2 14 2 28z
M252 329v0q-14 0 -20.5 11.5t0.5 24.5q30 47 91 47q63 0 95 -47q7 -12 0.5 -24t-20.5 -12h-146zM279.803 766.011v0q-16.2012 0 -27.001 -11.25q-10.8008 -11.25 -10.8008 -26.5508v-81.002q0 -15.3008 10.8008 -26.5508q10.7998 -11.251 27.001 -11.251h88.2021
q15.2998 0 26.1006 11.251q10.7998 11.25 10.7998 26.5508v81.002q0 15.3008 -10.7998 26.5508q-10.8008 11.25 -26.1006 11.25h-88.2021z" />
    <glyph glyph-name="egrave" unicode="&#xe8;" horiz-adv-x="641" 
d="M618 275v0v0q0 119 -82 200.5t-213 81.5q-127 0 -210 -81.5t-83 -205.5q0 -123 83.5 -205.5t209.5 -82.5q92 0 163.5 44.5t106.5 123.5q5 12 -1.5 22t-19.5 10h-135q-15 0 -25 -12q-33 -38 -89 -38q-71 0 -100 61q-5 12 2 22.5t19 10.5h349q9 0 15.5 6t7.5 15q2 14 2 28z
M252 329v0q-14 0 -20.5 11.5t0.5 24.5q30 47 91 47q63 0 95 -47q7 -12 0.5 -24t-20.5 -12h-146zM215 763h106q20 0 30 -22l35 -101q5 -16 -4.5 -29.5t-26.5 -13.5h-73q-17 0 -28 15l-66 100q-10 18 -1 34.5t28 16.5v0z" />
    <glyph glyph-name="emacron" unicode="&#x113;" horiz-adv-x="641" 
d="M474 616q-47 0 -52 48q0 43 52 48q47 0 52 -48q0 -44 -52 -48zM213 664q0 -41 -49 -46h-39v91h39q43 0 49 -45zM286 643v-25h-63v91h62v-24h-32v-10h29v-22h-29v-10h33zM329 664l-5 -46h-31l13 91h30l19 -43l19 43h30l13 -91h-30l-5 46l-22 -46h-10zM474 684
q-18 0 -20 -20q0 -19 20 -21q18 0 20 21q0 18 -20 20zM156 646h6q18 0 19 18q0 17 -19 18h-6v-36zM615 275q0 -24 -4 -49h-401q22 -94 110 -94q66 0 98 51h185q-30 -94 -105.5 -147.5t-177.5 -53.5q-126 0 -209.5 82.5t-83.5 205.5q0 125 83 206.5t210 81.5q131 0 213 -82
t82 -201zM320 412q-81 0 -107 -83h219q-27 83 -112 83z" />
    <glyph glyph-name="eogonek" unicode="&#x119;" horiz-adv-x="641" 
d="M618 275v0v0q0 119 -82 200.5t-213 81.5q-127 0 -210 -81.5t-83 -205.5q0 -123 83.5 -205.5t209.5 -82.5q92 0 163.5 44.5t106.5 123.5q5 12 -1.5 22t-19.5 10h-135q-15 0 -25 -12q-33 -38 -89 -38q-71 0 -100 61q-5 12 2 22.5t19 10.5h349q9 0 15.5 6t7.5 15q2 14 2 28z
M252 329v0q-14 0 -20.5 11.5t0.5 24.5q30 47 91 47q63 0 95 -47q7 -12 0.5 -24t-20.5 -12h-146zM216 -129v0q0 -51 37.5 -82t94.5 -31q42 0 83 18q23 12 23 34v20q0 17 -12.5 27.5t-30.5 8.5h-12q-51 0 -56 45q0 57 88 90q24 12 24 36v0q0 20 -16 30.5t-35 4.5
q-188 -77 -188 -201z" />
    <glyph glyph-name="f" unicode="f" horiz-adv-x="432" 
d="M374 385v0q18 0 30 12t12 29v63q0 18 -12 30t-30 12h-49q-15 0 -25.5 10.5t-10.5 25.5v0q0 19 13 31.5t31 12.5h40q18 0 30 12.5t12 29.5v60q0 17 -12 29t-30 12h-88q-86 0 -130 -45t-44 -126v-11q0 -17 -12 -29t-29 -12h-9q-17 0 -29 -12t-13 -30v-63q1 -17 13 -29
t29 -12h6q18 0 30 -12t12 -30v-302q0 -17 12 -29t29 -12h103q18 0 30 12t12 29v302q0 18 12 30t29 12h38z" />
    <glyph glyph-name="g" unicode="g" horiz-adv-x="676" 
d="M577 540v0h-67q-17 -1 -25 -16v0q-6 -11 -18 -14t-23 4q-64 43 -145 43q-116 0 -193 -78t-77 -193q0 -118 77 -195t193 -77q78 0 141 41v-16q0 -49 -33 -76.5t-79 -27.5q-29 0 -54.5 10t-40.5 29q-13 16 -32 16h-100q-23 0 -35 -18.5t-3 -39.5q74 -147 266 -147
q134 0 212 74t78 201v438q0 17 -12 29t-30 13zM330 167v0v0q-51 0 -83 33.5t-32 85.5q0 51 32.5 84t82.5 33t82.5 -33t32.5 -84q0 -52 -32.5 -85.5t-82.5 -33.5z" />
    <glyph glyph-name="gbreve" unicode="&#x11f;" horiz-adv-x="676" 
d="M577 540v0h-67q-17 -1 -25 -16v0q-6 -11 -18 -14t-23 4q-64 43 -145 43q-116 0 -193 -78t-77 -193q0 -118 77 -195t193 -77q78 0 141 41v-16q0 -49 -33 -76.5t-79 -27.5q-29 0 -54.5 10t-40.5 29q-13 16 -32 16h-100q-23 0 -35 -18.5t-3 -39.5q74 -147 266 -147
q134 0 212 74t78 201v438q0 17 -12 29t-30 13zM330 167v0v0q-51 0 -83 33.5t-32 85.5q0 51 32.5 84t82.5 33t82.5 -33t32.5 -84q0 -52 -32.5 -85.5t-82.5 -33.5zM464 672v0q8 23 9 59q2 9 -5 15q-5 7 -14 7h-48q-7 0 -14 -6q-5 -5 -7 -13q0 -9 -2 -16q-4 -12 -17 -20
q-13 -7 -43 -7t-43 7q-13 8 -17 20q-2 6 -2 16q-1 8 -6 13q-7 6 -14 6h-47q-9 0 -15 -7q-6 -6 -5 -15q1 -36 10 -59q10 -31 43 -50q32 -18 96 -18t97 18q33 19 44 50z" />
    <glyph glyph-name="gcircumflex" unicode="&#x11d;" horiz-adv-x="676" 
d="M577 540v0h-67q-17 -1 -25 -16v0q-6 -11 -18 -14t-23 4q-64 43 -145 43q-116 0 -193 -78t-77 -193q0 -118 77 -195t193 -77q78 0 141 41v-16q0 -49 -33 -76.5t-79 -27.5q-29 0 -54.5 10t-40.5 29q-13 16 -32 16h-100q-23 0 -35 -18.5t-3 -39.5q74 -147 266 -147
q134 0 212 74t78 201v438q0 17 -12 29t-30 13zM330 167v0v0q-51 0 -83 33.5t-32 85.5q0 51 32.5 84t82.5 33t82.5 -33t32.5 -84q0 -52 -32.5 -85.5t-82.5 -33.5zM172 627v0q-5 -8 -1.5 -15.5t12.5 -7.5h75q7 0 11 6l41 56q5 6 11.5 6t11.5 -6l40 -56q5 -6 12 -6h77
q8 0 12 7.5t-1 15.5l-126 149q-5 5 -11 5h-27q-7 0 -12 -5z" />
    <glyph glyph-name="gdotaccent" unicode="&#x121;" horiz-adv-x="676" 
d="M577 540v0h-67q-17 -1 -25 -16v0q-6 -11 -18 -14t-23 4q-64 43 -145 43q-116 0 -193 -78t-77 -193q0 -118 77 -195t193 -77q78 0 141 41v-16q0 -49 -33 -76.5t-79 -27.5q-29 0 -54.5 10t-40.5 29q-13 16 -32 16h-100q-23 0 -35 -18.5t-3 -39.5q74 -147 266 -147
q134 0 212 74t78 201v438q0 17 -12 29t-30 13zM330 167v0v0q-51 0 -83 33.5t-32 85.5q0 51 32.5 84t82.5 33t82.5 -33t32.5 -84q0 -52 -32.5 -85.5t-82.5 -33.5zM279.803 766.011v0q-16.2012 0 -27.001 -11.25q-10.8008 -11.25 -10.8008 -26.5508v-81.002
q0 -15.3008 10.8008 -26.5508q10.7998 -11.251 27.001 -11.251h88.2021q15.2998 0 26.1006 11.251q10.7998 11.25 10.7998 26.5508v81.002q0 15.3008 -10.7998 26.5508q-10.8008 11.25 -26.1006 11.25h-88.2021z" />
    <glyph glyph-name="h" unicode="h" horiz-adv-x="645" 
d="M592 325v0q0 105 -55 168t-148 63q-46 0 -88 -18q-21 -8 -38.5 4.5t-17.5 34.5v116q0 17 -12.5 29.5t-29.5 12.5h-103q-17 0 -29 -12.5t-12 -29.5v-652q0 -17 12 -29t29 -12h103q17 0 29.5 12t12.5 29v247q0 104 91 109q73 0 70 -94v-262q0 -17 12.5 -29t29.5 -12h103
q17 0 29 12t12 29v284z" />
    <glyph glyph-name="hcircumflex" unicode="&#x125;" horiz-adv-x="645" 
d="M592 325v0q0 105 -55 168t-148 63q-46 0 -88 -18q-21 -8 -38.5 4.5t-17.5 34.5v116q0 17 -12.5 29.5t-29.5 12.5h-103q-17 0 -29 -12.5t-12 -29.5v-652q0 -17 12 -29t29 -12h103q17 0 29.5 12t12.5 29v247q0 104 91 109q73 0 70 -94v-262q0 -17 12.5 -29t29.5 -12h103
q17 0 29 12t12 29v284zM6 838v0q-5 -8 -1.5 -15.5t12.5 -7.5h75q7 0 11 6l41 56q5 6 11.5 6t11.5 -6l40 -56q5 -6 12 -6h77q8 0 12 7.5t-1 15.5l-126 149q-5 5 -11 5h-27q-7 0 -12 -5z" />
    <glyph glyph-name="i" unicode="i" horiz-adv-x="303" 
d="M104 540v0q-17 0 -29 -12.5t-12 -29.5v-457q0 -17 12 -29t29 -12h103q17 0 29 12t12 29v457q0 17 -12 29.5t-29 12.5h-103zM105 765v0q-17 0 -29 -12t-12 -29v-75q0 -17 12 -29.5t29 -12.5h101q17 0 29 12.5t12 29.5v75q0 17 -12 29t-29 12h-101z" />
    <glyph glyph-name="dotlessi" unicode="&#x131;" horiz-adv-x="303" 
d="M108 540v0q-17 0 -29 -12.5t-12 -29.5v-457q0 -17 12 -29t29 -12h103q17 0 29.5 12t12.5 29v457q0 17 -12.5 29.5t-29.5 12.5h-103z" />
    <glyph glyph-name="iacute" unicode="&#xed;" horiz-adv-x="303" 
d="M108 540v0q-17 0 -29 -12.5t-12 -29.5v-457q0 -17 12 -29t29 -12h103q17 0 29.5 12t12.5 29v457q0 17 -12.5 29.5t-29.5 12.5h-103zM279 763v0q13 0 19 -11.5t-1 -23.5l-77 -116q-10 -15 -27 -15h-73q-17 0 -26.5 13.5t-4.5 29.5l34 101q10 22 31 22h125z" />
    <glyph glyph-name="ibreve" unicode="&#x12d;" horiz-adv-x="303" 
d="M108 540v0q-17 0 -29 -12.5t-12 -29.5v-457q0 -17 12 -29t29 -12h103q17 0 29.5 12t12.5 29v457q0 17 -12.5 29.5t-29.5 12.5h-103zM301 672v0q8 23 9 59q2 9 -5 15q-5 7 -14 7h-48q-7 0 -14 -6q-5 -5 -7 -13q0 -9 -2 -16q-4 -12 -17 -20q-13 -7 -43 -7t-43 7
q-13 8 -17 20q-2 6 -2 16q-1 8 -6 13q-7 6 -14 6h-47q-9 0 -15 -7q-6 -6 -5 -15q1 -36 10 -59q10 -31 43 -50q32 -18 96 -18t97 18q33 19 44 50z" />
    <glyph glyph-name="icircumflex" unicode="&#xee;" horiz-adv-x="303" 
d="M108 540v0q-17 0 -29 -12.5t-12 -29.5v-457q0 -17 12 -29t29 -12h103q17 0 29.5 12t12.5 29v457q0 17 -12.5 29.5t-29.5 12.5h-103zM8 627v0q-5 -8 -1.5 -15.5t12.5 -7.5h75q7 0 11 6l41 56q5 6 11.5 6t11.5 -6l40 -56q5 -6 12 -6h77q8 0 12 7.5t-1 15.5l-126 149
q-5 5 -11 5h-27q-7 0 -12 -5z" />
    <glyph glyph-name="idieresis" unicode="&#xef;" horiz-adv-x="303" 
d="M108 540v0q-17 0 -29 -12.5t-12 -29.5v-457q0 -17 12 -29t29 -12h103q17 0 29.5 12t12.5 29v457q0 17 -12.5 29.5t-29.5 12.5h-103zM26.7246 756.429v0q-14.5811 0 -24.3008 -10.126q-9.72168 -10.125 -9.72168 -23.8955v-72.9043q0 -13.7715 9.72168 -23.8965
q9.71973 -10.126 24.3008 -10.126h79.3848q13.7695 0 23.4912 10.126q9.71973 10.125 9.71973 23.8965v72.9043q0 13.7705 -9.71973 23.8955q-9.72168 10.126 -23.4912 10.126h-79.3848zM215.725 757.429v0q-14.5811 0 -24.3008 -10.126q-9.72168 -10.125 -9.72168 -23.8955
v-72.9043q0 -13.7715 9.72168 -23.8965q9.71973 -10.126 24.3008 -10.126h79.3848q13.7695 0 23.4912 10.126q9.71973 10.125 9.71973 23.8965v72.9043q0 13.7705 -9.71973 23.8955q-9.72168 10.126 -23.4912 10.126h-79.3848z" />
    <glyph glyph-name="igrave" unicode="&#xec;" horiz-adv-x="303" 
d="M108 540v0q-17 0 -29 -12.5t-12 -29.5v-457q0 -17 12 -29t29 -12h103q17 0 29.5 12t12.5 29v457q0 17 -12.5 29.5t-29.5 12.5h-103zM52 763h106q20 0 30 -22l35 -101q5 -16 -4.5 -29.5t-26.5 -13.5h-73q-17 0 -28 15l-66 100q-10 18 -1 34.5t28 16.5v0z" />
    <glyph glyph-name="ij" unicode="&#x133;" horiz-adv-x="572" 
d="M212 -83v0v-81q0 -17 12 -29.5t30 -12.5h28q108 0 168.5 58.5t60.5 161.5v484q0 17 -12 29.5t-29 12.5h-103q-18 0 -30 -12.5t-12 -29.5v-468q0 -70 -67 -72h-4q-18 0 -30 -12t-12 -29zM368 765v0q-17 0 -29.5 -12t-12.5 -29v-75q0 -17 12.5 -29.5t29.5 -12.5h100
q17 0 29.5 12.5t12.5 29.5v75q0 17 -12.5 29t-29.5 12h-100zM104 540v0q-17 0 -29 -12.5t-12 -29.5v-457q0 -17 12 -29t29 -12h103q17 0 29 12t12 29v457q0 17 -12 29.5t-29 12.5h-103zM105 765v0q-17 0 -29 -12t-12 -29v-75q0 -17 12 -29.5t29 -12.5h101q17 0 29 12.5
t12 29.5v75q0 17 -12 29t-29 12h-101z" />
    <glyph glyph-name="imacron" unicode="&#x12b;" horiz-adv-x="303" 
d="M-31 640v0q0 -17 12 -29t29 -12h281q17 0 29 12t12 29v92q0 17 -12 29t-29 12h-281q-17 0 -29 -12t-12 -29v-92zM108 540v0q-17 0 -29 -12.5t-12 -29.5v-457q0 -17 12 -29t29 -12h103q17 0 29.5 12t12.5 29v457q0 17 -12.5 29.5t-29.5 12.5h-103z" />
    <glyph glyph-name="iogonek" unicode="&#x12f;" horiz-adv-x="303" 
d="M104 540v0q-17 0 -29 -12.5t-12 -29.5v-457q0 -17 12 -29t29 -12h103q17 0 29 12t12 29v457q0 17 -12 29.5t-29 12.5h-103zM105 765v0q-17 0 -29 -12t-12 -29v-75q0 -17 12 -29.5t29 -12.5h101q17 0 29 12.5t12 29.5v75q0 17 -12 29t-29 12h-101zM10 -129v0
q0 -51 37.5 -82t94.5 -31q42 0 83 18q23 12 23 34v20q0 17 -12.5 27.5t-30.5 8.5h-12q-51 0 -56 45q0 57 88 90q24 12 24 36v0q0 20 -16 30.5t-35 4.5q-188 -77 -188 -201z" />
    <glyph glyph-name="itilde" unicode="&#x129;" horiz-adv-x="303" 
d="M108 540v0q-17 0 -29 -12.5t-12 -29.5v-457q0 -17 12 -29t29 -12h103q17 0 29.5 12t12.5 29v457q0 17 -12.5 29.5t-29.5 12.5h-103zM300 664v0q3 15 4 38q0 10 -7 16q-7 8 -16 8h-14q-9 0 -15 -6t-8 -14v-3q-1 -2 -1 -4q-4 -5 -16 -5q-11 0 -30 4q-8 1 -14 3q-7 2 -11 2
q-56 14 -86 14q-31 0 -47 -12q-14 -11 -18 -32q-3 -14 -3 -38q0 -10 7 -16q7 -7 15 -7h16q7 0 14 5q7 6 8 14q0 4 2 7q3 5 15 5t30 -4q12 -2 19 -4q4 -1 6 -1q56 -14 87 -14t45 12q15 11 18 32z" />
    <glyph glyph-name="j" unicode="j" horiz-adv-x="315" 
d="M-36 -83v0v-81q0 -17 12 -29.5t30 -12.5h28q108 0 168.5 58.5t60.5 161.5v484q0 17 -12 29.5t-29 12.5h-103q-18 0 -30 -12.5t-12 -29.5v-468q0 -70 -67 -72h-4q-18 0 -30 -12t-12 -29zM120 765v0q-17 0 -29 -12t-12 -29v-75q0 -17 12 -29.5t29 -12.5h100q17 0 29.5 12.5
t12.5 29.5v75q0 17 -12.5 29t-29.5 12h-100z" />
    <glyph glyph-name="jcircumflex" unicode="&#x135;" horiz-adv-x="315" 
d="M-36 -83v0v-81q0 -17 12 -29.5t30 -12.5h28q108 0 168.5 58.5t60.5 161.5v484q0 17 -12 29.5t-29 12.5h-103q-18 0 -30 -12.5t-12 -29.5v-468q0 -70 -67 -72h-4q-18 0 -30 -12t-12 -29zM30 627v0q-5 -8 -1.5 -15.5t12.5 -7.5h75q7 0 11 6l41 56q5 6 11.5 6t11.5 -6
l40 -56q5 -6 12 -6h77q8 0 12 7.5t-1 15.5l-126 149q-5 5 -11 5h-27q-7 0 -12 -5z" />
    <glyph glyph-name="k" unicode="k" horiz-adv-x="597" 
d="M380 20v0q14 -20 36 -20h119q25 0 36 21t-1 43l-129 196q-13 22 0 45l112 171q12 22 1 43t-36 21h-109q-22 0 -35 -20l-40 -65q-19 -26 -48 -18t-29 39v217q0 17 -12 29.5t-29 12.5h-103q-17 0 -29.5 -12.5t-12.5 -29.5v-652q0 -17 12.5 -29t29.5 -12h103q17 0 29 12
t12 29v36q0 31 29 39t48 -18z" />
    <glyph glyph-name="kgreenlandic" unicode="&#x138;" horiz-adv-x="589" 
d="M378 20v0q14 -20 36 -20h119q24 0 35.5 21t-1.5 43l-128 196q-13 22 0 45l112 171q12 22 1 43t-36 21h-109q-22 0 -35 -20l-40 -65q-19 -26 -48 -18t-29 39v22q0 17 -12 29.5t-29 12.5h-103q-18 0 -30 -12.5t-12 -29.5v-457q0 -17 12 -29t30 -12h103q17 0 29 12t12 29v36
q0 31 29 39t48 -18z" />
    <glyph glyph-name="l" unicode="l" horiz-adv-x="303" 
d="M110 735v0q-17 0 -29.5 -12.5t-12.5 -29.5v-652q0 -17 12.5 -29t29.5 -12h103q17 0 29 12t12 29v652q0 17 -12 29.5t-29 12.5h-103z" />
    <glyph glyph-name="lacute" unicode="&#x13a;" horiz-adv-x="303" 
d="M110 735v0q-17 0 -29.5 -12.5t-12.5 -29.5v-652q0 -17 12.5 -29t29.5 -12h103q17 0 29 12t12 29v652q0 17 -12 29.5t-29 12.5h-103zM244 992v0q13 0 19 -11.5t-1 -23.5l-77 -116q-10 -15 -27 -15h-73q-17 0 -26.5 13.5t-4.5 29.5l34 101q10 22 31 22h125z" />
    <glyph glyph-name="lcaron" unicode="&#x13e;" horiz-adv-x="303" 
d="M110 735v0q-17 0 -29.5 -12.5t-12.5 -29.5v-652q0 -17 12.5 -29t29.5 -12h103q17 0 29 12t12 29v652q0 17 -12 29.5t-29 12.5h-103zM300 936v0q5 7 1 14t-12 7h-71q-6 0 -11 -5l-38 -53q-5 -6 -11.5 -6t-10.5 6l-38 53q-5 5 -11 5h-73q-8 0 -11.5 -7t1.5 -14l119 -141
q4 -5 11 -5h25q6 0 11 5z" />
    <glyph glyph-name="ldot" unicode="&#x140;" horiz-adv-x="484" 
d="M110 735v0q-17 0 -29.5 -12.5t-12.5 -29.5v-652q0 -17 12.5 -29t29.5 -12h103q17 0 29 12t12 29v652q0 17 -12 29.5t-29 12.5h-103zM296 454v0q-18 0 -30 -12.5t-12 -29.5v-90q0 -17 12 -29.5t30 -12.5h98q17 0 29 12.5t12 29.5v90q0 17 -12 29.5t-29 12.5h-98z" />
    <glyph glyph-name="lslash" unicode="&#x142;" horiz-adv-x="303" 
d="M110 735v0q-17 0 -29.5 -12.5t-12.5 -29.5v-652q0 -17 12.5 -29t29.5 -12h103q17 0 29 12t12 29v652q0 17 -12 29.5t-29 12.5h-103zM-42 452v0q-17 0 -29 -12t-12 -29v-87q0 -17 12 -29t29 -12h405q17 0 29 12t12 29v87q0 17 -12 29t-29 12h-405z" />
    <glyph glyph-name="m" unicode="m" horiz-adv-x="928" 
d="M884 338v0q0 96 -53 157t-140 61q-78 0 -137 -50q-12 -10 -27.5 -9.5t-27.5 10.5q-52 49 -128 49q-73 0 -129 -46q-13 -9 -26.5 -6t-20.5 17l-1 1q-9 18 -27 18h-70q-17 0 -29 -12.5t-12 -29.5v-457q0 -17 12 -29t29 -12h103q17 0 29.5 12t12.5 29v255q0 101 78 103
q58 0 59 -84v-274q0 -17 12 -29t30 -12h98q17 0 29 12t12 29v255q0 102 78 103q59 0 60 -84v-274q0 -17 12 -29t29 -12h103q17 0 29.5 12t12.5 29v297z" />
    <glyph glyph-name="n" unicode="n" horiz-adv-x="638" 
d="M593 329v0q0 103 -57 165t-151 62q-82 0 -141 -46q-12 -8 -25.5 -4.5t-20.5 16.5v0q-10 18 -28 18h-69q-17 0 -29.5 -12.5t-12.5 -29.5v-457q0 -17 12.5 -29t29.5 -12h103q17 0 29 12t12 29v247q0 52 24 80.5t68 28.5q70 0 70 -94v-262q0 -17 12.5 -29t29.5 -12h103
q17 0 29 12t12 29v288z" />
    <glyph glyph-name="nacute" unicode="&#x144;" horiz-adv-x="638" 
d="M593 329v0q0 103 -57 165t-151 62q-82 0 -141 -46q-12 -8 -25.5 -4.5t-20.5 16.5v0q-10 18 -28 18h-69q-17 0 -29.5 -12.5t-12.5 -29.5v-457q0 -17 12.5 -29t29.5 -12h103q17 0 29 12t12 29v247q0 52 24 80.5t68 28.5q70 0 70 -94v-262q0 -17 12.5 -29t29.5 -12h103
q17 0 29 12t12 29v288zM446 763v0q13 0 19 -11.5t-1 -23.5l-77 -116q-10 -15 -27 -15h-73q-17 0 -26.5 13.5t-4.5 29.5l34 101q10 22 31 22h125z" />
    <glyph glyph-name="ncaron" unicode="&#x148;" horiz-adv-x="638" 
d="M593 329v0q0 103 -57 165t-151 62q-82 0 -141 -46q-12 -8 -25.5 -4.5t-20.5 16.5v0q-10 18 -28 18h-69q-17 0 -29.5 -12.5t-12.5 -29.5v-457q0 -17 12.5 -29t29.5 -12h103q17 0 29 12t12 29v247q0 52 24 80.5t68 28.5q70 0 70 -94v-262q0 -17 12.5 -29t29.5 -12h103
q17 0 29 12t12 29v288zM468 751v0q5 7 1 14t-12 7h-71q-6 0 -11 -5l-38 -53q-5 -6 -11.5 -6t-10.5 6l-38 53q-5 5 -11 5h-73q-8 0 -11.5 -7t1.5 -14l119 -141q4 -5 11 -5h25q6 0 11 5z" />
    <glyph glyph-name="eng" unicode="&#x14b;" horiz-adv-x="638" 
d="M593 329v0q0 103 -57 165t-151 62q-82 0 -141 -46q-12 -8 -25.5 -4.5t-20.5 16.5v0q-10 18 -28 18h-69q-17 0 -29.5 -12.5t-12.5 -29.5v-457q0 -17 12.5 -29t29.5 -12h103q17 0 29 12t12 29v247q0 52 24 80.5t68 28.5q70 0 70 -94v-262q0 -17 12.5 -29t29.5 -12h103
q17 0 29 12t12 29v288zM279.701 -196.301v0q-17.5 -7.7002 -17.5 -24.501v-12.5996q0 -13.3008 10.1494 -20.6504q10.1504 -7.35059 22.751 -3.85059q41.3008 13.3008 65.4512 46.2012t24.1504 80.501v86.1016q0 10.501 -7.35059 17.8506q-7.34961 7.35059 -17.8506 7.35059
h-77.001q-10.5 0 -18.2002 -7.35059q-7.7002 -7.34961 -7.7002 -17.8506v-70.7012q0 -10.5 7.7002 -17.8496q7.7002 -7.35059 18.2002 -7.35059v0q17.5 0 23.4502 -16.1006q5.9502 -16.0996 -7.34961 -28.7002q-7.7002 -6.2998 -18.9004 -10.5z" />
    <glyph glyph-name="ntilde" unicode="&#xf1;" horiz-adv-x="638" 
d="M593 329v0q0 103 -57 165t-151 62q-82 0 -141 -46q-12 -8 -25.5 -4.5t-20.5 16.5v0q-10 18 -28 18h-69q-17 0 -29.5 -12.5t-12.5 -29.5v-457q0 -17 12.5 -29t29.5 -12h103q17 0 29 12t12 29v247q0 52 24 80.5t68 28.5q70 0 70 -94v-262q0 -17 12.5 -29t29.5 -12h103
q17 0 29 12t12 29v288zM466 664v0q3 15 4 38q0 10 -7 16q-7 8 -16 8h-14q-9 0 -15 -6t-8 -14v-3q-1 -2 -1 -4q-4 -5 -16 -5q-11 0 -30 4q-8 1 -14 3q-7 2 -11 2q-56 14 -86 14q-31 0 -47 -12q-14 -11 -18 -32q-3 -14 -3 -38q0 -10 7 -16q7 -7 15 -7h16q7 0 14 5q7 6 8 14
q0 4 2 7q3 5 15 5t30 -4q12 -2 19 -4q4 -1 6 -1q56 -14 87 -14t45 12q15 11 18 32z" />
    <glyph glyph-name="o" unicode="o" horiz-adv-x="660" 
d="M330 -18q-132 0 -217.5 81.5t-85.5 206.5q0 126 85.5 207t217.5 81q131 0 217 -81t86 -207q0 -125 -86 -206.5t-217 -81.5zM330 149q52 1 84 34t32 87q0 53 -32.5 87t-83.5 34t-84 -33.5t-33 -87.5t33 -87.5t84 -33.5z" />
    <glyph glyph-name="oacute" unicode="&#xf3;" horiz-adv-x="660" 
d="M330 -18q-132 0 -217.5 81.5t-85.5 206.5q0 126 85.5 207t217.5 81q131 0 217 -81t86 -207q0 -125 -86 -206.5t-217 -81.5zM330 149q52 1 84 34t32 87q0 53 -32.5 87t-83.5 34t-84 -33.5t-33 -87.5t33 -87.5t84 -33.5zM448 763v0q13 0 19 -11.5t-1 -23.5l-77 -116
q-10 -15 -27 -15h-73q-17 0 -26.5 13.5t-4.5 29.5l34 101q10 22 31 22h125z" />
    <glyph glyph-name="obreve" unicode="&#x14f;" horiz-adv-x="660" 
d="M330 -18q-132 0 -217.5 81.5t-85.5 206.5q0 126 85.5 207t217.5 81q131 0 217 -81t86 -207q0 -125 -86 -206.5t-217 -81.5zM330 149q52 1 84 34t32 87q0 53 -32.5 87t-83.5 34t-84 -33.5t-33 -87.5t33 -87.5t84 -33.5zM470 672v0q8 23 9 59q2 9 -5 15q-5 7 -14 7h-48
q-7 0 -14 -6q-5 -5 -7 -13q0 -9 -2 -16q-4 -12 -17 -20q-13 -7 -43 -7t-43 7q-13 8 -17 20q-2 6 -2 16q-1 8 -6 13q-7 6 -14 6h-47q-9 0 -15 -7q-6 -6 -5 -15q1 -36 10 -59q10 -31 43 -50q32 -18 96 -18t97 18q33 19 44 50z" />
    <glyph glyph-name="ocircumflex" unicode="&#xf4;" horiz-adv-x="660" 
d="M330 -18q-132 0 -217.5 81.5t-85.5 206.5q0 126 85.5 207t217.5 81q131 0 217 -81t86 -207q0 -125 -86 -206.5t-217 -81.5zM330 149q52 1 84 34t32 87q0 53 -32.5 87t-83.5 34t-84 -33.5t-33 -87.5t33 -87.5t84 -33.5zM178 627v0q-5 -8 -1.5 -15.5t12.5 -7.5h75q7 0 11 6
l41 56q5 6 11.5 6t11.5 -6l40 -56q5 -6 12 -6h77q8 0 12 7.5t-1 15.5l-126 149q-5 5 -11 5h-27q-7 0 -12 -5z" />
    <glyph glyph-name="odieresis" unicode="&#xf6;" horiz-adv-x="660" 
d="M330 -18q-132 0 -217.5 81.5t-85.5 206.5q0 126 85.5 207t217.5 81q131 0 217 -81t86 -207q0 -125 -86 -206.5t-217 -81.5zM330 149q52 1 84 34t32 87q0 53 -32.5 87t-83.5 34t-84 -33.5t-33 -87.5t33 -87.5t84 -33.5zM195.725 756.429v0q-14.5811 0 -24.3008 -10.126
q-9.72168 -10.125 -9.72168 -23.8955v-72.9043q0 -13.7715 9.72168 -23.8965q9.71973 -10.126 24.3008 -10.126h79.3848q13.7695 0 23.4912 10.126q9.71973 10.125 9.71973 23.8965v72.9043q0 13.7705 -9.71973 23.8955q-9.72168 10.126 -23.4912 10.126h-79.3848z
M384.725 757.429v0q-14.5811 0 -24.3008 -10.126q-9.72168 -10.125 -9.72168 -23.8955v-72.9043q0 -13.7715 9.72168 -23.8965q9.71973 -10.126 24.3008 -10.126h79.3848q13.7695 0 23.4912 10.126q9.71973 10.125 9.71973 23.8965v72.9043q0 13.7705 -9.71973 23.8955
q-9.72168 10.126 -23.4912 10.126h-79.3848z" />
    <glyph glyph-name="ograve" unicode="&#xf2;" horiz-adv-x="660" 
d="M330 -18q-132 0 -217.5 81.5t-85.5 206.5q0 126 85.5 207t217.5 81q131 0 217 -81t86 -207q0 -125 -86 -206.5t-217 -81.5zM330 149q52 1 84 34t32 87q0 53 -32.5 87t-83.5 34t-84 -33.5t-33 -87.5t33 -87.5t84 -33.5zM221 763h106q20 0 30 -22l35 -101q5 -16 -4.5 -29.5
t-26.5 -13.5h-73q-17 0 -28 15l-66 100q-10 18 -1 34.5t28 16.5v0z" />
    <glyph glyph-name="ohungarumlaut" unicode="&#x151;" horiz-adv-x="660" 
d="M330 -18q-132 0 -217.5 81.5t-85.5 206.5q0 126 85.5 207t217.5 81q131 0 217 -81t86 -207q0 -125 -86 -206.5t-217 -81.5zM330 149q52 1 84 34t32 87q0 53 -32.5 87t-83.5 34t-84 -33.5t-33 -87.5t33 -87.5t84 -33.5zM302 763v0q14 0 20 -11.5t-1 -23.5l-77 -116
q-11 -15 -27 -15h-73q-17 0 -26.5 13.5t-4.5 29.5l34 101q10 22 31 22h124zM511 763v0q20 0 29 -16.5t-2 -34.5l-66 -100q-11 -15 -27 -15h-74q-16 0 -25.5 13.5t-4.5 29.5l34 101q10 22 31 22h105z" />
    <glyph glyph-name="omacron" unicode="&#x14d;" horiz-adv-x="660" 
d="M330 -18q-132 0 -217.5 81.5t-85.5 206.5q0 126 85.5 207t217.5 81q131 0 217 -81t86 -207q0 -125 -86 -206.5t-217 -81.5zM330 149q52 1 84 34t32 87q0 53 -32.5 87t-83.5 34t-84 -33.5t-33 -87.5t33 -87.5t84 -33.5zM149 640v0q0 -17 12 -29t29 -12h280q18 0 30 12
t12 29v92q0 17 -12 29t-30 12h-280q-17 0 -29 -12t-12 -29v-92z" />
    <glyph glyph-name="oslash" unicode="&#xf8;" horiz-adv-x="660" 
d="M330 -18q131 0 217 81.5t86 206.5q0 126 -86 207t-217 81q-132 0 -217.5 -81t-85.5 -207q0 -125 85.5 -206.5t217.5 -81.5zM330 149q-51 0 -84 33.5t-33 87.5t33 87.5t84 33.5t83.5 -34t32.5 -87q0 -54 -32 -87t-84 -34zM261 -196v0q28 0 40 30l259 891q5 20 -7 36.5
t-33 16.5h-99q-28 0 -40 -30l-259 -891q-5 -21 7 -37t33 -16h99z" />
    <glyph glyph-name="otilde" unicode="&#xf5;" horiz-adv-x="660" 
d="M330 -18q-132 0 -217.5 81.5t-85.5 206.5q0 126 85.5 207t217.5 81q131 0 217 -81t86 -207q0 -125 -86 -206.5t-217 -81.5zM330 149q52 1 84 34t32 87q0 53 -32.5 87t-83.5 34t-84 -33.5t-33 -87.5t33 -87.5t84 -33.5zM469 664v0q3 15 4 38q0 10 -7 16q-7 8 -16 8h-14
q-9 0 -15 -6t-8 -14v-3q-1 -2 -1 -4q-4 -5 -16 -5q-11 0 -30 4q-8 1 -14 3q-7 2 -11 2q-56 14 -86 14q-31 0 -47 -12q-14 -11 -18 -32q-3 -14 -3 -38q0 -10 7 -16q7 -7 15 -7h16q7 0 14 5q7 6 8 14q0 4 2 7q3 5 15 5t30 -4q12 -2 19 -4q4 -1 6 -1q56 -14 87 -14t45 12
q15 11 18 32z" />
    <glyph glyph-name="oe" unicode="&#x153;" horiz-adv-x="1126" 
d="M779 557v0q131 0 213 -81.5t82 -200.5v0q0 -14 -1 -28q-1 -9 -8 -15t-16 -6h-348q-13 0 -19.5 -10.5t-1.5 -22.5q29 -61 99 -61q57 0 90 38q10 12 24 12h135q13 0 20 -10t2 -22q-36 -79 -107 -123.5t-164 -44.5q-121 0 -203 76q-84 -76 -211 -76q-132 0 -217.5 81.5
t-85.5 206.5t85.5 206t217.5 81q126 0 211 -75q82 75 203 75zM365 149v0q50 0 83 33.5t33 87.5q0 53 -33 86.5t-83 33.5q-51 0 -84 -33.5t-33 -86.5q0 -54 33 -87.5t84 -33.5v0zM855 329v0q13 0 19.5 12t-0.5 24q-32 47 -95 47q-60 0 -91 -47q-7 -13 -0.5 -24.5t20.5 -11.5
h147z" />
    <glyph glyph-name="p" unicode="p" horiz-adv-x="684" 
d="M664 270v0q0 126 -80 206.5t-203 80.5q-97 0 -166 -60l-12 21q-13 22 -36 22h-60q-18 0 -30 -12.5t-12 -29.5v-652q0 -17 12 -29t30 -12h100q18 0 30 12t12 29v108q0 21 16.5 33t36.5 6q37 -11 79 -11q123 0 203 81t80 207zM477 270v0q0 -53 -34.5 -88.5t-86.5 -35.5
q-53 0 -87 35.5t-34 88.5t34 88t87 35q52 0 86.5 -35t34.5 -88z" />
    <glyph glyph-name="thorn" unicode="&#xfe;" horiz-adv-x="684" 
d="M477 270q0 -53 -34.5 -88.5t-86.5 -35.5q-53 0 -87 35.5t-34 88.5t34 88t87 35q52 0 86.5 -35t34.5 -88zM65 498v-652q0 -17 12 -29t30 -12h100q18 0 30 12t12 29v108q0 21 16.5 33t36.5 6q37 -11 79 -11q123 0 203 81t80 207t-80 206.5t-203 80.5q-71 0 -127 -32v168
q0 17 -12 29.5t-29 12.5h-103q-17 0 -29.5 -12.5t-12.5 -29.5v-179q-3 -8 -3 -16z" />
    <glyph glyph-name="q" unicode="q" horiz-adv-x="684" 
d="M626 498v0q0 17 -12.5 29.5t-29.5 12.5h-84l-24 -43q-70 60 -166 60q-124 0 -203.5 -80.5t-79.5 -206.5t79.5 -207t203.5 -81q41 0 78 11q21 6 37.5 -6t16.5 -33v-108q0 -17 12 -29t29 -12h101q17 0 29.5 12t12.5 29v652zM456 270v0q0 -53 -34.5 -88.5t-86.5 -35.5
t-86.5 35.5t-34.5 88.5t34.5 88t86.5 35t86.5 -35t34.5 -88z" />
    <glyph glyph-name="r" unicode="r" horiz-adv-x="422" 
d="M400 501v0q0 17 -12 29t-30 12h-7q-73 0 -119 -34q-13 -9 -27.5 -5.5t-22.5 17.5v1q-11 19 -30 19h-62q-17 0 -29.5 -12.5t-12.5 -29.5v-457q0 -17 12.5 -29t29.5 -12h103q17 0 29 12t12 29v233q0 52 22 75t72 23h30q18 0 30 12t12 30v87z" />
    <glyph glyph-name="racute" unicode="&#x155;" horiz-adv-x="422" 
d="M400 501v0q0 17 -12 29t-30 12h-7q-73 0 -119 -34q-13 -9 -27.5 -5.5t-22.5 17.5v1q-11 19 -30 19h-62q-17 0 -29.5 -12.5t-12.5 -29.5v-457q0 -17 12.5 -29t29.5 -12h103q17 0 29 12t12 29v233q0 52 22 75t72 23h30q18 0 30 12t12 30v87zM343 763v0q13 0 19 -11.5
t-1 -23.5l-77 -116q-10 -15 -27 -15h-73q-17 0 -26.5 13.5t-4.5 29.5l34 101q10 22 31 22h125z" />
    <glyph glyph-name="rcaron" unicode="&#x159;" horiz-adv-x="422" 
d="M400 501v0q0 17 -12 29t-30 12h-7q-73 0 -119 -34q-13 -9 -27.5 -5.5t-22.5 17.5v1q-11 19 -30 19h-62q-17 0 -29.5 -12.5t-12.5 -29.5v-457q0 -17 12.5 -29t29.5 -12h103q17 0 29 12t12 29v233q0 52 22 75t72 23h30q18 0 30 12t12 30v87zM365 751v0q5 7 1 14t-12 7h-71
q-6 0 -11 -5l-38 -53q-5 -6 -11.5 -6t-10.5 6l-38 53q-5 5 -11 5h-73q-8 0 -11.5 -7t1.5 -14l119 -141q4 -5 11 -5h25q6 0 11 5z" />
    <glyph glyph-name="s" unicode="s" horiz-adv-x="534" 
d="M266 -18v0v0q107 0 172.5 51t65.5 136q0 67 -30.5 100.5t-75 47.5t-88.5 21q-2 0 -4 1q-40 6 -66.5 15t-26.5 32q0 37 50 39q37 0 52 -27q14 -23 38 -23h92q21 0 33.5 16.5t6.5 36.5q-20 60 -77 94.5t-143 34.5q-103 0 -166.5 -48t-63.5 -130q0 -65 31 -99t75.5 -49
t87.5 -21q40 -6 66.5 -16t26.5 -33q0 -21 -16 -31.5t-37 -10.5q-20 0 -35.5 8t-22.5 25q-13 25 -38 25h-98q-21 0 -33 -16t-7 -37q19 -66 78.5 -104t152.5 -38z" />
    <glyph glyph-name="sacute" unicode="&#x15b;" horiz-adv-x="534" 
d="M266 -18v0v0q107 0 172.5 51t65.5 136q0 67 -30.5 100.5t-75 47.5t-88.5 21q-2 0 -4 1q-40 6 -66.5 15t-26.5 32q0 37 50 39q37 0 52 -27q14 -23 38 -23h92q21 0 33.5 16.5t6.5 36.5q-20 60 -77 94.5t-143 34.5q-103 0 -166.5 -48t-63.5 -130q0 -65 31 -99t75.5 -49
t87.5 -21q40 -6 66.5 -16t26.5 -33q0 -21 -16 -31.5t-37 -10.5q-20 0 -35.5 8t-22.5 25q-13 25 -38 25h-98q-21 0 -33 -16t-7 -37q19 -66 78.5 -104t152.5 -38zM390 763v0q13 0 19 -11.5t-1 -23.5l-77 -116q-10 -15 -27 -15h-73q-17 0 -26.5 13.5t-4.5 29.5l34 101
q10 22 31 22h125z" />
    <glyph glyph-name="scaron" unicode="&#x161;" horiz-adv-x="534" 
d="M266 -18v0v0q107 0 172.5 51t65.5 136q0 67 -30.5 100.5t-75 47.5t-88.5 21q-2 0 -4 1q-40 6 -66.5 15t-26.5 32q0 37 50 39q37 0 52 -27q14 -23 38 -23h92q21 0 33.5 16.5t6.5 36.5q-20 60 -77 94.5t-143 34.5q-103 0 -166.5 -48t-63.5 -130q0 -65 31 -99t75.5 -49
t87.5 -21q40 -6 66.5 -16t26.5 -33q0 -21 -16 -31.5t-37 -10.5q-20 0 -35.5 8t-22.5 25q-13 25 -38 25h-98q-21 0 -33 -16t-7 -37q19 -66 78.5 -104t152.5 -38zM413 751v0q5 7 1 14t-12 7h-71q-6 0 -11 -5l-38 -53q-5 -6 -11.5 -6t-10.5 6l-38 53q-5 5 -11 5h-73
q-8 0 -11.5 -7t1.5 -14l119 -141q4 -5 11 -5h25q6 0 11 5z" />
    <glyph glyph-name="scedilla" unicode="&#x15f;" horiz-adv-x="534" 
d="M266 -18v0v0q107 0 172.5 51t65.5 136q0 67 -30.5 100.5t-75 47.5t-88.5 21q-2 0 -4 1q-40 6 -66.5 15t-26.5 32q0 37 50 39q37 0 52 -27q14 -23 38 -23h92q21 0 33.5 16.5t6.5 36.5q-20 60 -77 94.5t-143 34.5q-103 0 -166.5 -48t-63.5 -130q0 -65 31 -99t75.5 -49
t87.5 -21q40 -6 66.5 -16t26.5 -33q0 -21 -16 -31.5t-37 -10.5q-20 0 -35.5 8t-22.5 25q-13 25 -38 25h-98q-21 0 -33 -16t-7 -37q19 -66 78.5 -104t152.5 -38zM374 -131v0q0 73 -80 93q-7 2 -10.5 7.5t-1.5 12.5l10 36q3 14 -5 25t-22 11h-28q-19 0 -27 -21l-31 -111
q-2 -7 3 -13v0q5 -7 12 -7h38q28 0 31 -27q0 -26 -31 -28h-36q-12 0 -20 -8.5t-8 -19.5v-25q0 -12 8 -20t20 -8h49q56 0 92.5 28t36.5 75z" />
    <glyph glyph-name="scircumflex" unicode="&#x15d;" horiz-adv-x="534" 
d="M266 -18v0v0q107 0 172.5 51t65.5 136q0 67 -30.5 100.5t-75 47.5t-88.5 21q-2 0 -4 1q-40 6 -66.5 15t-26.5 32q0 37 50 39q37 0 52 -27q14 -23 38 -23h92q21 0 33.5 16.5t6.5 36.5q-20 60 -77 94.5t-143 34.5q-103 0 -166.5 -48t-63.5 -130q0 -65 31 -99t75.5 -49
t87.5 -21q40 -6 66.5 -16t26.5 -33q0 -21 -16 -31.5t-37 -10.5q-20 0 -35.5 8t-22.5 25q-13 25 -38 25h-98q-21 0 -33 -16t-7 -37q19 -66 78.5 -104t152.5 -38zM120 627v0q-5 -8 -1.5 -15.5t12.5 -7.5h75q7 0 11 6l41 56q5 6 11.5 6t11.5 -6l40 -56q5 -6 12 -6h77
q8 0 12 7.5t-1 15.5l-126 149q-5 5 -11 5h-27q-7 0 -12 -5z" />
    <glyph glyph-name="germandbls" unicode="&#xdf;" horiz-adv-x="532" 
d="M427 375v0q94 -48 94 -148q0 -75 -57 -124.5t-141 -49.5h-52q-13 0 -21.5 8.5t-8.5 21.5v78q0 12 8.5 21t21.5 9h23q55 0 60 56q0 24 -16.5 39.5t-43.5 15.5h-23q-13 0 -21.5 9t-8.5 21v64q0 12 8.5 21t21.5 9h17q52 0 56 53v0q0 24 -15 39t-41 15h-17q-28 0 -48 -20
t-20 -49v0v-200v0v0v-35v0v0v-233q0 -13 -9 -22t-22 -9h-63q-28 0 -48 20t-20 49v457q0 72 50.5 122.5t121.5 50.5h104q81 0 134 -44.5t53 -112.5q0 -82 -77 -132v0z" />
    <glyph glyph-name="t" unicode="t" horiz-adv-x="451" 
d="M349 163v0q29 0 49 -20t20 -48v-27q0 -28 -20 -48t-49 -20h-59q-90 0 -141 51.5t-51 141.5v177q0 11 -8 18.5t-19 8.5v0q-24 0 -40.5 16.5t-16.5 40.5v28q0 24 16.5 41t40.5 17h5q20 0 35.5 12t20.5 32l9 38q5 20 20.5 32t35.5 12h29q24 0 41 -17t17 -40v-48
q0 -6 3.5 -12t10.5 -8q4 -1 8 -1h41q24 0 41 -17t17 -41v-30q0 -23 -16.5 -39t-39.5 -16h-39q-10 0 -17.5 -7.5t-8.5 -17.5v-147q0 -58 62 -62h3z" />
    <glyph glyph-name="u" unicode="u" horiz-adv-x="635" 
d="M57 232v0q0 -114 73.5 -182t193.5 -68q119 0 192 68t73 182v266q0 17 -12 29.5t-29 12.5h-103q-17 0 -29.5 -12.5t-12.5 -29.5v-258q0 -43 -21 -67t-58 -24q-38 0 -59.5 24t-21.5 67v258q0 17 -12 29.5t-29 12.5h-103q-17 0 -29.5 -12.5t-12.5 -29.5v-266z" />
    <glyph glyph-name="uacute" unicode="&#xfa;" horiz-adv-x="635" 
d="M57 232v0q0 -114 73.5 -182t193.5 -68q119 0 192 68t73 182v266q0 17 -12 29.5t-29 12.5h-103q-17 0 -29.5 -12.5t-12.5 -29.5v-258q0 -43 -21 -67t-58 -24q-38 0 -59.5 24t-21.5 67v258q0 17 -12 29.5t-29 12.5h-103q-17 0 -29.5 -12.5t-12.5 -29.5v-266zM442 763v0
q13 0 19 -11.5t-1 -23.5l-77 -116q-10 -15 -27 -15h-73q-17 0 -26.5 13.5t-4.5 29.5l34 101q10 22 31 22h125z" />
    <glyph glyph-name="ubreve" unicode="&#x16d;" horiz-adv-x="635" 
d="M57 232v0q0 -114 73.5 -182t193.5 -68q119 0 192 68t73 182v266q0 17 -12 29.5t-29 12.5h-103q-17 0 -29.5 -12.5t-12.5 -29.5v-258q0 -43 -21 -67t-58 -24q-38 0 -59.5 24t-21.5 67v258q0 17 -12 29.5t-29 12.5h-103q-17 0 -29.5 -12.5t-12.5 -29.5v-266zM463 672v0
q8 23 9 59q2 9 -5 15q-5 7 -14 7h-48q-7 0 -14 -6q-5 -5 -7 -13q0 -9 -2 -16q-4 -12 -17 -20q-13 -7 -43 -7t-43 7q-13 8 -17 20q-2 6 -2 16q-1 8 -6 13q-7 6 -14 6h-47q-9 0 -15 -7q-6 -6 -5 -15q1 -36 10 -59q10 -31 43 -50q32 -18 96 -18t97 18q33 19 44 50z" />
    <glyph glyph-name="ucircumflex" unicode="&#xfb;" horiz-adv-x="635" 
d="M57 232v0q0 -114 73.5 -182t193.5 -68q119 0 192 68t73 182v266q0 17 -12 29.5t-29 12.5h-103q-17 0 -29.5 -12.5t-12.5 -29.5v-258q0 -43 -21 -67t-58 -24q-38 0 -59.5 24t-21.5 67v258q0 17 -12 29.5t-29 12.5h-103q-17 0 -29.5 -12.5t-12.5 -29.5v-266zM171 627v0
q-5 -8 -1.5 -15.5t12.5 -7.5h75q7 0 11 6l41 56q5 6 11.5 6t11.5 -6l40 -56q5 -6 12 -6h77q8 0 12 7.5t-1 15.5l-126 149q-5 5 -11 5h-27q-7 0 -12 -5z" />
    <glyph glyph-name="udieresis" unicode="&#xfc;" horiz-adv-x="635" 
d="M57 232v0q0 -114 73.5 -182t193.5 -68q119 0 192 68t73 182v266q0 17 -12 29.5t-29 12.5h-103q-17 0 -29.5 -12.5t-12.5 -29.5v-258q0 -43 -21 -67t-58 -24q-38 0 -59.5 24t-21.5 67v258q0 17 -12 29.5t-29 12.5h-103q-17 0 -29.5 -12.5t-12.5 -29.5v-266z
M189.725 756.429v0q-14.5811 0 -24.3008 -10.126q-9.72168 -10.125 -9.72168 -23.8955v-72.9043q0 -13.7715 9.72168 -23.8965q9.71973 -10.126 24.3008 -10.126h79.3848q13.7695 0 23.4912 10.126q9.71973 10.125 9.71973 23.8965v72.9043q0 13.7705 -9.71973 23.8955
q-9.72168 10.126 -23.4912 10.126h-79.3848zM378.725 757.429v0q-14.5811 0 -24.3008 -10.126q-9.72168 -10.125 -9.72168 -23.8955v-72.9043q0 -13.7715 9.72168 -23.8965q9.71973 -10.126 24.3008 -10.126h79.3848q13.7695 0 23.4912 10.126
q9.71973 10.125 9.71973 23.8965v72.9043q0 13.7705 -9.71973 23.8955q-9.72168 10.126 -23.4912 10.126h-79.3848z" />
    <glyph glyph-name="ugrave" unicode="&#xf9;" horiz-adv-x="635" 
d="M57 232v0q0 -114 73.5 -182t193.5 -68q119 0 192 68t73 182v266q0 17 -12 29.5t-29 12.5h-103q-17 0 -29.5 -12.5t-12.5 -29.5v-258q0 -43 -21 -67t-58 -24q-38 0 -59.5 24t-21.5 67v258q0 17 -12 29.5t-29 12.5h-103q-17 0 -29.5 -12.5t-12.5 -29.5v-266zM214 763h106
q20 0 30 -22l35 -101q5 -16 -4.5 -29.5t-26.5 -13.5h-73q-17 0 -28 15l-66 100q-10 18 -1 34.5t28 16.5v0z" />
    <glyph glyph-name="uhungarumlaut" unicode="&#x171;" horiz-adv-x="635" 
d="M57 232v0q0 -114 73.5 -182t193.5 -68q119 0 192 68t73 182v266q0 17 -12 29.5t-29 12.5h-103q-17 0 -29.5 -12.5t-12.5 -29.5v-258q0 -43 -21 -67t-58 -24q-38 0 -59.5 24t-21.5 67v258q0 17 -12 29.5t-29 12.5h-103q-17 0 -29.5 -12.5t-12.5 -29.5v-266zM296 763v0
q14 0 20 -11.5t-1 -23.5l-77 -116q-11 -15 -27 -15h-73q-17 0 -26.5 13.5t-4.5 29.5l34 101q10 22 31 22h124zM505 763v0q20 0 29 -16.5t-2 -34.5l-66 -100q-11 -15 -27 -15h-74q-16 0 -25.5 13.5t-4.5 29.5l34 101q10 22 31 22h105z" />
    <glyph glyph-name="umacron" unicode="&#x16b;" horiz-adv-x="635" 
d="M171 745v0q-17 0 -29 -12.5t-12 -29.5v-67q0 -17 12 -29t29 -12h285q17 0 29.5 12t12.5 29v67q0 17 -12.5 29.5t-29.5 12.5h-285zM57 232v0q0 -114 73.5 -182t193.5 -68q119 0 192 68t73 182v266q0 17 -12 29.5t-29 12.5h-103q-17 0 -29.5 -12.5t-12.5 -29.5v-258
q0 -43 -21 -67t-58 -24q-38 0 -59.5 24t-21.5 67v258q0 17 -12 29.5t-29 12.5h-103q-17 0 -29.5 -12.5t-12.5 -29.5v-266z" />
    <glyph glyph-name="uni013C" unicode="&#x13c;" horiz-adv-x="303" 
d="M110 735v0q-17 0 -29.5 -12.5t-12.5 -29.5v-652q0 -17 12.5 -29t29.5 -12h103q17 0 29 12t12 29v652q0 17 -12 29.5t-29 12.5h-103zM119.701 -236.301v0q-17.5 -7.7002 -17.5 -24.501v-12.5996q0 -13.3008 10.1494 -20.6504q10.1504 -7.35059 22.751 -3.85059
q41.3008 13.3008 65.4512 46.2012t24.1504 80.501v86.1016q0 10.501 -7.35059 17.8506q-7.34961 7.35059 -17.8506 7.35059h-77.001q-10.5 0 -18.2002 -7.35059q-7.7002 -7.34961 -7.7002 -17.8506v-70.7012q0 -10.5 7.7002 -17.8496q7.7002 -7.35059 18.2002 -7.35059v0
q17.5 0 23.4502 -16.1006q5.9502 -16.0996 -7.34961 -28.7002q-7.7002 -6.2998 -18.9004 -10.5z" />
    <glyph glyph-name="uni0146" unicode="&#x146;" horiz-adv-x="638" 
d="M593 329v0q0 103 -57 165t-151 62q-82 0 -141 -46q-12 -8 -25.5 -4.5t-20.5 16.5v0q-10 18 -28 18h-69q-17 0 -29.5 -12.5t-12.5 -29.5v-457q0 -17 12.5 -29t29.5 -12h103q17 0 29 12t12 29v247q0 52 24 80.5t68 28.5q70 0 70 -94v-262q0 -17 12.5 -29t29.5 -12h103
q17 0 29 12t12 29v288zM286.701 -236.301v0q-17.5 -7.7002 -17.5 -24.501v-12.5996q0 -13.3008 10.1494 -20.6504q10.1504 -7.35059 22.751 -3.85059q41.3008 13.3008 65.4512 46.2012t24.1504 80.501v86.1016q0 10.501 -7.35059 17.8506q-7.34961 7.35059 -17.8506 7.35059
h-77.001q-10.5 0 -18.2002 -7.35059q-7.7002 -7.34961 -7.7002 -17.8506v-70.7012q0 -10.5 7.7002 -17.8496q7.7002 -7.35059 18.2002 -7.35059v0q17.5 0 23.4502 -16.1006q5.9502 -16.0996 -7.34961 -28.7002q-7.7002 -6.2998 -18.9004 -10.5z" />
    <glyph glyph-name="uni0157" unicode="&#x157;" horiz-adv-x="422" 
d="M400 501v0q0 17 -12 29t-30 12h-7q-73 0 -119 -34q-13 -9 -27.5 -5.5t-22.5 17.5v1q-11 19 -30 19h-62q-17 0 -29.5 -12.5t-12.5 -29.5v-457q0 -17 12.5 -29t29.5 -12h103q17 0 29 12t12 29v233q0 52 22 75t72 23h30q18 0 30 12t12 30v87zM182.701 -236.301v0
q-17.5 -7.7002 -17.5 -24.501v-12.5996q0 -13.3008 10.1494 -20.6504q10.1504 -7.35059 22.751 -3.85059q41.3008 13.3008 65.4512 46.2012t24.1504 80.501v86.1016q0 10.501 -7.35059 17.8506q-7.34961 7.35059 -17.8506 7.35059h-77.001q-10.5 0 -18.2002 -7.35059
q-7.7002 -7.34961 -7.7002 -17.8506v-70.7012q0 -10.5 7.7002 -17.8496q7.7002 -7.35059 18.2002 -7.35059v0q17.5 0 23.4502 -16.1006q5.9502 -16.0996 -7.34961 -28.7002q-7.7002 -6.2998 -18.9004 -10.5z" />
    <glyph glyph-name="uni0219" unicode="&#x219;" horiz-adv-x="534" 
d="M266 -18v0v0q107 0 172.5 51t65.5 136q0 67 -30.5 100.5t-75 47.5t-88.5 21q-2 0 -4 1q-40 6 -66.5 15t-26.5 32q0 37 50 39q37 0 52 -27q14 -23 38 -23h92q21 0 33.5 16.5t6.5 36.5q-20 60 -77 94.5t-143 34.5q-103 0 -166.5 -48t-63.5 -130q0 -65 31 -99t75.5 -49
t87.5 -21q40 -6 66.5 -16t26.5 -33q0 -21 -16 -31.5t-37 -10.5q-20 0 -35.5 8t-22.5 25q-13 25 -38 25h-98q-21 0 -33 -16t-7 -37q19 -66 78.5 -104t152.5 -38zM230.701 -236.301v0q-17.5 -7.7002 -17.5 -24.501v-12.5996q0 -13.3008 10.1494 -20.6504
q10.1504 -7.35059 22.751 -3.85059q41.3008 13.3008 65.4512 46.2012t24.1504 80.501v86.1016q0 10.501 -7.35059 17.8506q-7.34961 7.35059 -17.8506 7.35059h-77.001q-10.5 0 -18.2002 -7.35059q-7.7002 -7.34961 -7.7002 -17.8506v-70.7012q0 -10.5 7.7002 -17.8496
q7.7002 -7.35059 18.2002 -7.35059v0q17.5 0 23.4502 -16.1006q5.9502 -16.0996 -7.34961 -28.7002q-7.7002 -6.2998 -18.9004 -10.5z" />
    <glyph glyph-name="uogonek" unicode="&#x173;" horiz-adv-x="635" 
d="M57 232v0q0 -114 73.5 -182t193.5 -68q119 0 192 68t73 182v266q0 17 -12 29.5t-29 12.5h-103q-17 0 -29.5 -12.5t-12.5 -29.5v-258q0 -43 -21 -67t-58 -24q-38 0 -59.5 24t-21.5 67v258q0 17 -12 29.5t-29 12.5h-103q-17 0 -29.5 -12.5t-12.5 -29.5v-266zM214 -129v0
q0 -51 37.5 -82t94.5 -31q42 0 83 18q23 12 23 34v20q0 17 -12.5 27.5t-30.5 8.5h-12q-51 0 -56 45q0 57 88 90q24 12 24 36v0q0 20 -16 30.5t-35 4.5q-188 -77 -188 -201z" />
    <glyph glyph-name="uring" unicode="&#x16f;" horiz-adv-x="635" 
d="M57 232v0q0 -114 73.5 -182t193.5 -68q119 0 192 68t73 182v266q0 17 -12 29.5t-29 12.5h-103q-17 0 -29.5 -12.5t-12.5 -29.5v-258q0 -43 -21 -67t-58 -24q-38 0 -59.5 24t-21.5 67v258q0 17 -12 29.5t-29 12.5h-103q-17 0 -29.5 -12.5t-12.5 -29.5v-266z
M322.603 815.509q45.501 0 75.251 -29.75q29.751 -29.751 29.751 -75.252q0 -44.8008 -29.751 -74.9014q-29.75 -30.0996 -75.251 -30.0996q-44.8008 0 -74.9014 30.0996q-30.1006 30.1006 -30.1006 74.9014q0 45.501 30.1006 75.252q30.1006 29.75 74.9014 29.75z
M324.702 660.106q22.4004 0 36.751 14.3506q14.3496 14.3496 14.3496 36.75t-14.3496 36.751q-14.3506 14.3506 -36.751 14.3506t-36.75 -14.3506q-14.3506 -14.3506 -14.3506 -36.751t14.7002 -36.75q14.7002 -14.3506 36.4004 -14.3506z" />
    <glyph glyph-name="utilde" unicode="&#x169;" horiz-adv-x="635" 
d="M57 232v0q0 -114 73.5 -182t193.5 -68q119 0 192 68t73 182v266q0 17 -12 29.5t-29 12.5h-103q-17 0 -29.5 -12.5t-12.5 -29.5v-258q0 -43 -21 -67t-58 -24q-38 0 -59.5 24t-21.5 67v258q0 17 -12 29.5t-29 12.5h-103q-17 0 -29.5 -12.5t-12.5 -29.5v-266zM462 664v0
q3 15 4 38q0 10 -7 16q-7 8 -16 8h-14q-9 0 -15 -6t-8 -14v-3q-1 -2 -1 -4q-4 -5 -16 -5q-11 0 -30 4q-8 1 -14 3q-7 2 -11 2q-56 14 -86 14q-31 0 -47 -12q-14 -11 -18 -32q-3 -14 -3 -38q0 -10 7 -16q7 -7 15 -7h16q7 0 14 5q7 6 8 14q0 4 2 7q3 5 15 5t30 -4q12 -2 19 -4
q4 -1 6 -1q56 -14 87 -14t45 12q15 11 18 32z" />
    <glyph glyph-name="v" unicode="v" horiz-adv-x="607" 
d="M582 483v0q8 21 -4 39t-34 18h-107q-27 0 -40 -29l-52 -166q-12 -29 -39.5 -29t-39.5 29l-53 166q-13 29 -40 29h-112q-22 0 -34 -18t-4 -39l186 -457q13 -26 39 -26h112q26 0 39 26z" />
    <glyph glyph-name="w" unicode="w" horiz-adv-x="867" 
d="M847 486v0q6 21 -6 37.5t-33 16.5h-102q-28 0 -40 -30l-43 -155q-10 -27 -35 -29t-39 23l-49 142q-21 47 -65 47v0q-45 0 -66 -48l-43 -137q-14 -24 -39 -22.5t-35 28.5l-43 151q-13 30 -40 30h-107q-21 0 -33 -17t-6 -38l149 -457q13 -28 40 -28h92q25 0 38 25l58 134
q12 24 36 24t36 -24l60 -134q13 -25 38 -25h92q27 0 40 29z" />
    <glyph glyph-name="wacute" unicode="&#x1e83;" horiz-adv-x="867" 
d="M847 486v0q6 21 -6 37.5t-33 16.5h-102q-28 0 -40 -30l-43 -155q-10 -27 -35 -29t-39 23l-49 142q-21 47 -65 47v0q-45 0 -66 -48l-43 -137q-14 -24 -39 -22.5t-35 28.5l-43 151q-13 30 -40 30h-107q-21 0 -33 -17t-6 -38l149 -457q13 -28 40 -28h92q25 0 38 25l58 134
q12 24 36 24t36 -24l60 -134q13 -25 38 -25h92q27 0 40 29zM556 763v0q13 0 19 -11.5t-1 -23.5l-77 -116q-10 -15 -27 -15h-73q-17 0 -26.5 13.5t-4.5 29.5l34 101q10 22 31 22h125z" />
    <glyph glyph-name="wcircumflex" unicode="&#x175;" horiz-adv-x="867" 
d="M847 486v0q6 21 -6 37.5t-33 16.5h-102q-28 0 -40 -30l-43 -155q-10 -27 -35 -29t-39 23l-49 142q-21 47 -65 47v0q-45 0 -66 -48l-43 -137q-14 -24 -39 -22.5t-35 28.5l-43 151q-13 30 -40 30h-107q-21 0 -33 -17t-6 -38l149 -457q13 -28 40 -28h92q25 0 38 25l58 134
q12 24 36 24t36 -24l60 -134q13 -25 38 -25h92q27 0 40 29zM286 627v0q-5 -8 -1.5 -15.5t12.5 -7.5h75q7 0 11 6l41 56q5 6 11.5 6t11.5 -6l40 -56q5 -6 12 -6h77q8 0 12 7.5t-1 15.5l-126 149q-5 5 -11 5h-27q-7 0 -12 -5z" />
    <glyph glyph-name="wdieresis" unicode="&#x1e85;" horiz-adv-x="867" 
d="M847 486v0q6 21 -6 37.5t-33 16.5h-102q-28 0 -40 -30l-43 -155q-10 -27 -35 -29t-39 23l-49 142q-21 47 -65 47v0q-45 0 -66 -48l-43 -137q-14 -24 -39 -22.5t-35 28.5l-43 151q-13 30 -40 30h-107q-21 0 -33 -17t-6 -38l149 -457q13 -28 40 -28h92q25 0 38 25l58 134
q12 24 36 24t36 -24l60 -134q13 -25 38 -25h92q27 0 40 29zM303.725 756.429v0q-14.5811 0 -24.3008 -10.126q-9.72168 -10.125 -9.72168 -23.8955v-72.9043q0 -13.7715 9.72168 -23.8965q9.71973 -10.126 24.3008 -10.126h79.3848q13.7695 0 23.4912 10.126
q9.71973 10.125 9.71973 23.8965v72.9043q0 13.7705 -9.71973 23.8955q-9.72168 10.126 -23.4912 10.126h-79.3848zM492.725 757.429v0q-14.5811 0 -24.3008 -10.126q-9.72168 -10.125 -9.72168 -23.8955v-72.9043q0 -13.7715 9.72168 -23.8965
q9.71973 -10.126 24.3008 -10.126h79.3848q13.7695 0 23.4912 10.126q9.71973 10.125 9.71973 23.8965v72.9043q0 13.7705 -9.71973 23.8955q-9.72168 10.126 -23.4912 10.126h-79.3848z" />
    <glyph glyph-name="wgrave" unicode="&#x1e81;" horiz-adv-x="867" 
d="M847 486v0q6 21 -6 37.5t-33 16.5h-102q-28 0 -40 -30l-43 -155q-10 -27 -35 -29t-39 23l-49 142q-21 47 -65 47v0q-45 0 -66 -48l-43 -137q-14 -24 -39 -22.5t-35 28.5l-43 151q-13 30 -40 30h-107q-21 0 -33 -17t-6 -38l149 -457q13 -28 40 -28h92q25 0 38 25l58 134
q12 24 36 24t36 -24l60 -134q13 -25 38 -25h92q27 0 40 29zM329 763h106q20 0 30 -22l35 -101q5 -16 -4.5 -29.5t-26.5 -13.5h-73q-17 0 -28 15l-66 100q-10 18 -1 34.5t28 16.5v0z" />
    <glyph glyph-name="x" unicode="x" horiz-adv-x="580" 
d="M367 21v0q14 -21 36 -21h108q25 0 36.5 20.5t-0.5 42.5l-126 199q-13 23 1 45l110 169q13 22 1.5 43t-35.5 21h-102q-22 0 -36 -20l-33 -56q-14 -20 -36 -19.5t-36 20.5l-30 54q-14 21 -36 21h-106q-25 0 -36 -21t1 -43l111 -174q13 -22 0 -44l-124 -194
q-13 -22 -1.5 -43t36.5 -21h105q23 0 36 21l43 74q13 22 36 21.5t36 -21.5z" />
    <glyph glyph-name="y" unicode="y" horiz-adv-x="620" 
d="M560 540v0h-108q-26 0 -39 -28l-59 -165q-12 -27 -38.5 -27t-39.5 26l-64 167q-13 27 -39 27h-109q-23 0 -34.5 -18.5t-3.5 -40.5l190 -420q7 -17 0 -33q-16 -40 -39 -54.5t-72 -14.5h-10q-17 0 -29 -12.5t-12 -29.5v-77q0 -17 12 -29t29 -12h23q104 0 165.5 51
t113.5 174l201 458q8 21 -4 39.5t-34 18.5z" />
    <glyph glyph-name="yacute" unicode="&#xfd;" horiz-adv-x="620" 
d="M560 540v0h-108q-26 0 -39 -28l-59 -165q-12 -27 -38.5 -27t-39.5 26l-64 167q-13 27 -39 27h-109q-23 0 -34.5 -18.5t-3.5 -40.5l190 -420q7 -17 0 -33q-16 -40 -39 -54.5t-72 -14.5h-10q-17 0 -29 -12.5t-12 -29.5v-77q0 -17 12 -29t29 -12h23q104 0 165.5 51
t113.5 174l201 458q8 21 -4 39.5t-34 18.5zM435 763v0q13 0 19 -11.5t-1 -23.5l-77 -116q-10 -15 -27 -15h-73q-17 0 -26.5 13.5t-4.5 29.5l34 101q10 22 31 22h125z" />
    <glyph glyph-name="ycircumflex" unicode="&#x177;" horiz-adv-x="620" 
d="M560 540v0h-108q-26 0 -39 -28l-59 -165q-12 -27 -38.5 -27t-39.5 26l-64 167q-13 27 -39 27h-109q-23 0 -34.5 -18.5t-3.5 -40.5l190 -420q7 -17 0 -33q-16 -40 -39 -54.5t-72 -14.5h-10q-17 0 -29 -12.5t-12 -29.5v-77q0 -17 12 -29t29 -12h23q104 0 165.5 51
t113.5 174l201 458q8 21 -4 39.5t-34 18.5zM164 627v0q-5 -8 -1.5 -15.5t12.5 -7.5h75q7 0 11 6l41 56q5 6 11.5 6t11.5 -6l40 -56q5 -6 12 -6h77q8 0 12 7.5t-1 15.5l-126 149q-5 5 -11 5h-27q-7 0 -12 -5z" />
    <glyph glyph-name="ydieresis" unicode="&#xff;" horiz-adv-x="620" 
d="M560 540v0h-108q-26 0 -39 -28l-59 -165q-12 -27 -38.5 -27t-39.5 26l-64 167q-13 27 -39 27h-109q-23 0 -34.5 -18.5t-3.5 -40.5l190 -420q7 -17 0 -33q-16 -40 -39 -54.5t-72 -14.5h-10q-17 0 -29 -12.5t-12 -29.5v-77q0 -17 12 -29t29 -12h23q104 0 165.5 51
t113.5 174l201 458q8 21 -4 39.5t-34 18.5zM182.725 756.429v0q-14.5811 0 -24.3008 -10.126q-9.72168 -10.125 -9.72168 -23.8955v-72.9043q0 -13.7715 9.72168 -23.8965q9.71973 -10.126 24.3008 -10.126h79.3848q13.7695 0 23.4912 10.126
q9.71973 10.125 9.71973 23.8965v72.9043q0 13.7705 -9.71973 23.8955q-9.72168 10.126 -23.4912 10.126h-79.3848zM371.725 757.429v0q-14.5811 0 -24.3008 -10.126q-9.72168 -10.125 -9.72168 -23.8955v-72.9043q0 -13.7715 9.72168 -23.8965
q9.71973 -10.126 24.3008 -10.126h79.3848q13.7695 0 23.4912 10.126q9.71973 10.125 9.71973 23.8965v72.9043q0 13.7705 -9.71973 23.8955q-9.72168 10.126 -23.4912 10.126h-79.3848z" />
    <glyph glyph-name="ygrave" unicode="&#x1ef3;" horiz-adv-x="620" 
d="M560 540v0h-108q-26 0 -39 -28l-59 -165q-12 -27 -38.5 -27t-39.5 26l-64 167q-13 27 -39 27h-109q-23 0 -34.5 -18.5t-3.5 -40.5l190 -420q7 -17 0 -33q-16 -40 -39 -54.5t-72 -14.5h-10q-17 0 -29 -12.5t-12 -29.5v-77q0 -17 12 -29t29 -12h23q104 0 165.5 51
t113.5 174l201 458q8 21 -4 39.5t-34 18.5zM208 763h106q20 0 30 -22l35 -101q5 -16 -4.5 -29.5t-26.5 -13.5h-73q-17 0 -28 15l-66 100q-10 18 -1 34.5t28 16.5v0z" />
    <glyph glyph-name="z" unicode="z" horiz-adv-x="516" 
d="M490 124v0q0 17 -12 29t-29 12h-141q-7 0 -10 6.5t1 13.5l183 245q6 9 6 19v58q0 14 -9.5 23.5t-22.5 9.5h-372q-17 0 -29.5 -12.5t-12.5 -29.5v-81q0 -17 12.5 -29t29.5 -12h122q7 0 10.5 -7t-1.5 -13l-184 -231q-7 -9 -7 -20v-73q0 -13 9.5 -22.5t23.5 -9.5h392
q17 0 29 12t12 29v83z" />
    <glyph glyph-name="zacute" unicode="&#x17a;" horiz-adv-x="516" 
d="M490 124v0q0 17 -12 29t-29 12h-141q-7 0 -10 6.5t1 13.5l183 245q6 9 6 19v58q0 14 -9.5 23.5t-22.5 9.5h-372q-17 0 -29.5 -12.5t-12.5 -29.5v-81q0 -17 12.5 -29t29.5 -12h122q7 0 10.5 -7t-1.5 -13l-184 -231q-7 -9 -7 -20v-73q0 -13 9.5 -22.5t23.5 -9.5h392
q17 0 29 12t12 29v83zM376 763v0q13 0 19 -11.5t-1 -23.5l-77 -116q-10 -15 -27 -15h-73q-17 0 -26.5 13.5t-4.5 29.5l34 101q10 22 31 22h125z" />
    <glyph glyph-name="zcaron" unicode="&#x17e;" horiz-adv-x="516" 
d="M490 124v0q0 17 -12 29t-29 12h-141q-7 0 -10 6.5t1 13.5l183 245q6 9 6 19v58q0 14 -9.5 23.5t-22.5 9.5h-372q-17 0 -29.5 -12.5t-12.5 -29.5v-81q0 -17 12.5 -29t29.5 -12h122q7 0 10.5 -7t-1.5 -13l-184 -231q-7 -9 -7 -20v-73q0 -13 9.5 -22.5t23.5 -9.5h392
q17 0 29 12t12 29v83zM398 751v0q5 7 1 14t-12 7h-71q-6 0 -11 -5l-38 -53q-5 -6 -11.5 -6t-10.5 6l-38 53q-5 5 -11 5h-73q-8 0 -11.5 -7t1.5 -14l119 -141q4 -5 11 -5h25q6 0 11 5z" />
    <glyph glyph-name="zdotaccent" unicode="&#x17c;" horiz-adv-x="516" 
d="M490 124v0q0 17 -12 29t-29 12h-141q-7 0 -10 6.5t1 13.5l183 245q6 9 6 19v58q0 14 -9.5 23.5t-22.5 9.5h-372q-17 0 -29.5 -12.5t-12.5 -29.5v-81q0 -17 12.5 -29t29.5 -12h122q7 0 10.5 -7t-1.5 -13l-184 -231q-7 -9 -7 -20v-73q0 -13 9.5 -22.5t23.5 -9.5h392
q17 0 29 12t12 29v83zM213.803 766.011v0q-16.2012 0 -27.001 -11.25q-10.8008 -11.25 -10.8008 -26.5508v-81.002q0 -15.3008 10.8008 -26.5508q10.7998 -11.251 27.001 -11.251h88.2021q15.2998 0 26.1006 11.251q10.7998 11.25 10.7998 26.5508v81.002
q0 15.3008 -10.7998 26.5508q-10.8008 11.25 -26.1006 11.25h-88.2021z" />
    <glyph glyph-name="zero" unicode="0" horiz-adv-x="660" 
d="M329 -18q-133 0 -212 95t-79 255q0 159 79 254t212 95t212 -95t79 -254q0 -160 -79.5 -255t-211.5 -95zM329 141q105 0 109 190q0 92 -28.5 142t-80.5 50q-105 0 -109 -191q0 -92 28 -141.5t81 -49.5z" />
    <glyph glyph-name="one" unicode="1" horiz-adv-x="377" 
d="M316 621v0q0 19 -13.5 32.5t-32.5 13.5h-115q-14 0 -26 -8l-78 -52q-20 -15 -20 -38v-33q0 -22 16 -35.5t38 -10.5v0q22 3 38 -10.5t16 -34.5v-399q0 -19 13.5 -32.5t32.5 -13.5h85q19 0 32.5 13.5t13.5 32.5v575z" />
    <glyph glyph-name="two" unicode="2" horiz-adv-x="565" 
d="M524 116v0q0 18 -12 30t-29 12h-80q-19 0 -26.5 16.5t3.5 32.5q79 95 106 151.5t27 113.5q0 94 -66.5 153t-173.5 59q-100 0 -160.5 -51t-71.5 -139q-1 -14 7.5 -23.5t22.5 -10.5l118 1q10 0 18 6t11 16q12 43 58 43q25 0 41.5 -16.5t16.5 -43.5q0 -29 -20 -66.5
t-85 -118t-194 -232.5q-7 -9 -7 -20v0q0 -12 8.5 -20.5t21.5 -8.5h425q17 0 29 12t12 29v75z" />
    <glyph glyph-name="three" unicode="3" horiz-adv-x="567" 
d="M369 422v0v0l131 209q3 6 3 12v0q0 10 -7 17t-16 7h-406q-12 0 -20.5 -8.5t-8.5 -20.5v-94q0 -12 8.5 -20.5t20.5 -8.5h144q17 0 25 -14.5t-1 -29.5l-77 -128q-4 -7 -4 -15v0q0 -12 8.5 -20.5t20.5 -8.5h78q39 0 62 -21t23 -58t-22 -59.5t-56 -22.5q-55 0 -72 56
q-8 22 -27 22h-116q-13 0 -21.5 -10t-7.5 -23q15 -91 80 -145t164 -54q109 0 180 65.5t71 167.5q0 78 -42 132t-115 73z" />
    <glyph glyph-name="four" unicode="4" horiz-adv-x="586" 
d="M538 120v0q12 0 21 8.5t9 21.5v89q0 13 -9 21.5t-21 8.5v0q-13 0 -22 9t-9 21v87q0 13 -8.5 21.5t-21.5 8.5h-67q-10 0 -18 -6t-11 -16l-27 -102q-3 -11 -11 -17t-18 -6h-39q-16 0 -24.5 13t-2.5 29l130 314q6 16 -2.5 29t-25.5 13h-112q-18 0 -27 -18l-205 -492
q-2 -5 -2 -10v0q0 -11 8 -19t20 -8h266q11 0 19 -8t8 -20v-62q0 -13 9 -21.5t21 -8.5h111q13 0 21.5 8.5t8.5 21.5v59q0 13 9 22t22 9v0z" />
    <glyph glyph-name="five" unicode="5" horiz-adv-x="564" 
d="M279 439v0v0h-20q-17 0 -28 12.5t-10 29.5v0q2 15 13 24.5t25 9.5h183q17 0 29 12t12 30v69q0 17 -12 29t-29 12h-326q-12 0 -21 -8t-10 -20l-33 -307q-2 -13 6 -23v0q10 -12 25 -12h192q37 0 60 -22.5t23 -58.5q0 -33 -21.5 -55.5t-54.5 -22.5q-53 0 -73 49
q-11 28 -37 28h-93q-19 0 -31.5 -14.5t-9.5 -33.5q18 -83 83 -133t161 -50q109 0 179 65.5t70 166.5q0 99 -70 161t-182 62z" />
    <glyph glyph-name="six" unicode="6" horiz-adv-x="583" 
d="M562 231v0q0 97 -63.5 158t-163.5 61v0q-15 1 -21 12t0 23l36 60t36 59q12 22 0 42.5t-36 20.5h-96q-22 0 -35 -20l-111 -187q-76 -127 -76 -229q0 -110 73.5 -178.5t191.5 -68.5t191.5 69t73.5 178zM390 231v0q0 -41 -26 -67t-67 -26t-67.5 26t-26.5 67q0 43 26.5 69
t67.5 26t67 -26t26 -69z" />
    <glyph glyph-name="seven" unicode="7" horiz-adv-x="550" 
d="M525 603v0v0q-1 27 -19.5 45.5t-45.5 18.5h-385q-17 0 -29 -12t-12 -29v-74q0 -17 12 -29t29 -12h173q22 0 34 -18t5 -39l-159 -397q-8 -22 4 -39.5t34 -17.5h99q26 0 39 26l217 553q4 12 4 24z" />
    <glyph glyph-name="eight" unicode="8" horiz-adv-x="602" 
d="M512 325v0q54 -51 54 -128q0 -95 -73.5 -154t-191.5 -59t-191 59t-73 154q0 78 54 129q12 12 12.5 29t-10.5 31q-37 46 -37 104q0 86 68 140t178 54t177.5 -53.5t67.5 -140.5q0 -59 -37 -104q-11 -14 -10.5 -31t12.5 -30zM302 552v0q-34 0 -55.5 -19t-21.5 -48t21.5 -48
t55.5 -19t55 19t21 48t-21 48t-55 19zM302 123v0q40 0 64.5 22t24.5 57q0 36 -24.5 58t-64.5 22q-41 0 -65.5 -22t-24.5 -58q0 -35 24.5 -57t65.5 -22z" />
    <glyph glyph-name="nine" unicode="9" horiz-adv-x="583" 
d="M23 420v0q0 -97 63.5 -157.5t163.5 -60.5h1q14 -1 20.5 -12t-0.5 -24l-36 -60q-18 -29 -36 -59q-11 -22 0.5 -42.5t35.5 -20.5h96q22 0 36 21l110 186q77 127 77 230q0 109 -74 177.5t-192 68.5t-191.5 -68.5t-73.5 -178.5zM195 420v0q0 42 26.5 68t67.5 26
q40 0 66.5 -26t26.5 -68t-26.5 -68.5t-66.5 -26.5q-41 0 -67.5 26.5t-26.5 68.5z" />
    <glyph glyph-name="asterisk" unicode="*" horiz-adv-x="431" 
d="M337 496v0q-6 8 -3.5 17t11.5 13l39 14q8 3 11 9.5t1 14.5l-29 82q-3 8 -10 11t-15 1l-40 -15q-9 -3 -17 2.5t-8 15.5v45q0 8 -5.5 13.5t-13.5 5.5h-87q-8 0 -13.5 -5.5t-5.5 -13.5v-45q0 -10 -8 -15.5t-17 -2.5l-40 15q-8 2 -15 -1t-10 -11l-29 -82q-2 -8 1 -14.5
t11 -9.5l38 -14q10 -4 12.5 -13t-4.5 -17l-27 -32q-5 -6 -4.5 -13.5t6.5 -13.5l68 -56q6 -6 13.5 -5t13.5 7l39 48q6 7 14.5 7t14.5 -7l40 -48q5 -6 12.5 -7t14.5 4l67 57q6 6 6.5 13.5t-4.5 13.5z" />
    <glyph glyph-name="backslash" unicode="\" horiz-adv-x="453" 
d="M303 -164v0q-28 0 -40 30l-259 891q-6 20 6.5 36.5t32.5 16.5h100q27 0 40 -30l245 -845q10 -39 -12.5 -69t-61.5 -30h-51z" />
    <glyph glyph-name="periodcentered" unicode="&#xb7;" horiz-adv-x="289" 
d="M92 450v0q-18 0 -30 -12.5t-12 -29.5v-90q0 -17 12 -29.5t30 -12.5h98q17 0 29 12.5t12 29.5v90q0 17 -12 29.5t-29 12.5h-98z" />
    <glyph glyph-name="bullet" unicode="&#x2022;" horiz-adv-x="406" 
d="M202 157q-62 0 -103 41.5t-41 102.5q0 63 41 104t103 41t103 -41t41 -104q0 -61 -41 -102.5t-103 -41.5z" />
    <glyph glyph-name="colon" unicode=":" horiz-adv-x="284" 
d="M93 173v0q-18 0 -30 -12t-12 -29v-91q0 -17 12 -29t30 -12h98q17 0 29 12t12 29v91q0 17 -12 29t-29 12h-98zM93 540v0q-18 0 -30 -12t-12 -29v-91q0 -17 12 -29t30 -12h98q17 0 29 12t12 29v91q0 17 -12 29t-29 12h-98z" />
    <glyph glyph-name="comma" unicode="," horiz-adv-x="285" 
d="M81 -79v0q-25 -11 -25 -35v-18q0 -19 14.5 -29.5t32.5 -5.5q59 19 93.5 66t34.5 115v123q0 15 -10.5 25.5t-25.5 10.5h-110q-15 0 -26 -10.5t-11 -25.5v-101q0 -15 11 -25.5t26 -10.5v0q25 0 33.5 -23t-10.5 -41q-11 -9 -27 -15z" />
    <glyph glyph-name="ellipsis" unicode="&#x2026;" horiz-adv-x="752" 
d="M94 173v0q-18 0 -30 -12t-12 -29v-91q0 -17 12 -29t30 -12h98q17 0 29 12t12 29v91q0 17 -12 29t-29 12h-98zM329 173v0q-18 0 -30 -12t-12 -29v-91q0 -17 12 -29t30 -12h98q17 0 29 12t12 29v91q0 17 -12 29t-29 12h-98zM560 173v0q-18 0 -30 -12t-12 -29v-91
q0 -17 12 -29t30 -12h98q17 0 29 12t12 29v91q0 17 -12 29t-29 12h-98z" />
    <glyph glyph-name="exclam" unicode="!" horiz-adv-x="315" 
d="M110 173v0q-17 0 -29.5 -12t-12.5 -29v-91q0 -17 12.5 -29t29.5 -12h98q17 0 29.5 12t12.5 29v91q0 17 -12.5 29t-29.5 12h-98zM104 722v0q-18 0 -30 -12t-12 -30l9 -406q1 -17 13 -28.5t29 -11.5h93q17 0 29 11.5t12 28.5l10 406q0 18 -12 30t-30 12h-111z" />
    <glyph glyph-name="exclamdown" unicode="&#xa1;" horiz-adv-x="315" 
d="M210 367v0q17 0 29.5 12t12.5 29v91q0 17 -12.5 29t-29.5 12h-98q-17 0 -29.5 -12t-12.5 -29v-91q0 -17 12.5 -29t29.5 -12h98zM216 -182v0q18 0 30 12t12 30l-9 406q-1 17 -13 28.5t-29 11.5h-93q-17 0 -29 -11.5t-12 -28.5l-10 -406q0 -18 12 -30t30 -12h111z" />
    <glyph glyph-name="numbersign" unicode="#" horiz-adv-x="675" 
d="M675 434v0q0 -10 -7 -17t-17 -7h-50q-21 0 -31 -23l-16 -56q-4 -16 5.5 -28.5t25.5 -12.5h1q14 0 23.5 -9.5t9.5 -22.5v-79q0 -13 -9.5 -22.5t-23.5 -9.5h-61q-22 0 -31 -23l-31 -107q-9 -23 -31 -23h-86q-16 0 -25 12.5t-5 28.5l20 71q4 16 -5 28.5t-25 12.5h-57
q-21 0 -31 -23l-31 -107q-9 -23 -31 -23h-85q-16 0 -25.5 12.5t-5.5 28.5l20 71q4 16 -5 28.5t-25 12.5v0q-14 0 -23 9.5t-9 22.5v79q0 13 9 22.5t23 9.5h60q21 0 31 23l16 56q4 16 -5.5 28.5t-25.5 12.5h-20q-13 0 -22.5 9t-9.5 23v79q0 13 9.5 22.5t22.5 9.5h80
q22 0 31 23l29 100q10 23 31 23h86q16 0 25.5 -12.5t5.5 -28.5l-19 -64q-4 -16 5.5 -28.5t25.5 -12.5h56q22 0 31 23l29 100q10 23 31 23h96q12 0 19.5 -9.5t4.5 -21.5l-25 -84q-3 -12 4 -21.5t19 -9.5v0q10 0 17 -7t7 -17v-95zM389 284v0q22 0 32 24l17 59q4 17 -5.5 30
t-26.5 13h-60q-22 0 -32 -24l-17 -59q-4 -17 6 -30t26 -13h60z" />
    <glyph glyph-name="period" unicode="." horiz-adv-x="284" 
d="M94 173v0q-18 0 -30 -12t-12 -29v-91q0 -17 12 -29t30 -12h98q17 0 29 12t12 29v91q0 17 -12 29t-29 12h-98z" />
    <glyph glyph-name="question" unicode="?" horiz-adv-x="559" 
d="M173 245v0v0q0 -8 6 -13.5t14 -5.5h136q8 0 13.5 5.5t5.5 13.5v0q0 36 21 59t50 44q24 18 47 40t38 53.5t15 79.5q0 102 -71.5 163t-178.5 61q-91 0 -159 -45.5t-87 -133.5q-3 -20 9 -35t32 -15h96q25 0 38 26q9 23 28.5 35t41.5 12q29 0 50 -19t21 -51q0 -30 -18 -49
t-44 -36q-24 -16 -47.5 -38.5t-40 -58t-16.5 -92.5zM211 176v0q-17 0 -29.5 -12t-12.5 -30v-90q0 -17 12.5 -29.5t29.5 -12.5h98q17 0 29.5 12.5t12.5 29.5v90q0 18 -12.5 30t-29.5 12h-98z" />
    <glyph glyph-name="questiondown" unicode="&#xbf;" horiz-adv-x="572" 
d="M379 457v0v0q0 8 -5.5 13.5t-13.5 5.5h-136q-8 0 -13.5 -5.5t-5.5 -13.5v0q0 -36 -21 -59t-50 -44q-24 -18 -47 -40t-38.5 -53.5t-15.5 -79.5q0 -102 72 -163t179 -61q90 0 158.5 45.5t86.5 133.5q4 20 -8.5 35t-31.5 15h-96q-26 0 -39 -26q-8 -23 -27.5 -35t-42.5 -12
q-28 0 -49 19t-21 51q0 30 18 49t44 36q24 16 47.5 38.5t39.5 58t16 92.5zM342 526v0q17 0 29 12t12 30v90q0 17 -12 29.5t-29 12.5h-98q-18 0 -30 -12.5t-12 -29.5v-90q0 -18 12 -30t30 -12h98z" />
    <glyph glyph-name="quotedbl" unicode="&#x22;" horiz-adv-x="489" 
d="M105 429v0q-16 0 -28 12t-12 28v189q0 17 12 29t28 12h77q17 0 28.5 -12t11.5 -29v-189q0 -16 -11.5 -28t-28.5 -12h-77zM314 428v0q-17 0 -28.5 12t-11.5 29v189q0 16 11.5 28t28.5 12h76q17 0 29 -12t12 -28v-189q0 -17 -12 -29t-29 -12h-76z" />
    <glyph glyph-name="quotesingle" unicode="'" horiz-adv-x="264" 
d="M95 429v0q-17 0 -29 12t-12 29v189q0 17 12 28.5t29 11.5h76q17 0 28.5 -11.5t11.5 -28.5v-189q0 -17 -11.5 -29t-28.5 -12h-76z" />
    <glyph glyph-name="semicolon" unicode=";" horiz-adv-x="284" 
d="M81 -79v0q-25 -11 -25 -35v-18q0 -19 14.5 -29.5t32.5 -5.5q59 19 93.5 66t34.5 115v123q0 15 -10.5 25.5t-25.5 10.5h-110q-15 0 -26 -10.5t-11 -25.5v-101q0 -15 11 -25.5t26 -10.5v0q25 0 33.5 -23t-10.5 -41q-11 -9 -27 -15zM94 540v0q-18 0 -30 -12t-12 -29v-91
q0 -17 12 -29t30 -12h98q17 0 29 12t12 29v91q0 17 -12 29t-29 12h-98z" />
    <glyph glyph-name="slash" unicode="/" horiz-adv-x="406" 
d="M108 -164v0q28 0 40 30l259 891q6 20 -6.5 36.5t-33.5 16.5h-99q-28 0 -40 -30l-259 -891q-5 -21 7 -37t33 -16h99z" />
    <glyph glyph-name="underscore" unicode="_" horiz-adv-x="572" 
d="M85 -36v0q-17 0 -29 -12t-12 -29v-87q0 -17 12 -29t29 -12h405q17 0 29 12t12 29v87q0 17 -12 29t-29 12h-405z" />
    <glyph glyph-name="braceleft" unicode="{" horiz-adv-x="389" 
d="M226 326v0q55 42 55 114v208h35q17 0 28.5 11.5t11.5 28.5v67q0 17 -11.5 28.5t-28.5 11.5h-78q-54 0 -92 -38t-38 -92v-234q0 -23 -16.5 -39t-38.5 -16v0q-9 0 -15 -6t-6 -15v-89q0 -9 6 -15t15 -6v0q23 0 39 -15.5t16 -38.5v-232q0 -54 38.5 -92.5t92.5 -38.5h77
q17 0 28.5 11.5t11.5 28.5v68q0 17 -11.5 28.5t-28.5 11.5h-37v206q0 72 -53 114q-7 6 -7 15t7 15z" />
    <glyph glyph-name="braceright" unicode="}" horiz-adv-x="389" 
d="M168 298v0q-55 -43 -55 -115v-208h-35q-16 0 -28 -11.5t-12 -28.5v-67q0 -17 12 -28.5t28 -11.5h78q54 0 92 38t38 92v234q0 23 16.5 39t39.5 16v0q8 0 14 6.5t6 14.5v89q0 9 -6 15t-14 6v0q-24 0 -40 16t-16 38v232q0 55 -38.5 93t-92.5 38h-77q-16 0 -28 -11.5
t-12 -28.5v-68q0 -17 12 -28.5t28 -11.5h37v-206q0 -72 53 -114q7 -6 7 -14.5t-7 -14.5z" />
    <glyph glyph-name="bracketleft" unicode="[" horiz-adv-x="363" 
d="M106 810v0q-17 0 -29.5 -12.5t-12.5 -29.5v-891q0 -17 12.5 -29t29.5 -12h179q18 0 30 12t12 29v61q0 17 -12 29.5t-30 12.5h-16q-17 0 -29.5 12t-12.5 29v605q0 17 12.5 29.5t29.5 12.5h14q18 0 30 12t12 29v59q0 17 -12 29.5t-30 12.5h-177z" />
    <glyph glyph-name="bracketright" unicode="]" horiz-adv-x="363" 
d="M257 -164v0q17 0 29.5 12t12.5 29v891q0 17 -12.5 29.5t-29.5 12.5h-179q-18 0 -30 -12.5t-12 -29.5v-61q0 -17 12 -29t30 -12h16q17 0 29.5 -12.5t12.5 -29.5v-605q0 -17 -12.5 -29t-29.5 -12h-14q-18 0 -30 -12.5t-12 -29.5v-59q0 -17 12 -29t30 -12h177z" />
    <glyph glyph-name="parenleft" unicode="(" horiz-adv-x="351" 
d="M44 317v0q0 -131 35 -248.5t97 -213.5q14 -20 35 -20h96q24 0 35.5 20.5t0.5 42.5q-48 76 -83 184.5t-35 234.5q0 127 36 235.5t84 185.5q12 22 0.5 42t-35.5 20h-99q-21 0 -35 -19q-62 -97 -97 -214.5t-35 -249.5z" />
    <glyph glyph-name="parenright" unicode=")" horiz-adv-x="341" 
d="M298 319v0q0 131 -35 248.5t-97 213.5q-14 19 -36 19h-95q-25 0 -36.5 -20t0.5 -42q48 -77 83 -185t35 -234q0 -127 -36 -235.5t-84 -185.5q-12 -22 -0.5 -42.5t35.5 -20.5h98q22 0 36 20q62 97 97 214.5t35 249.5z" />
    <glyph glyph-name="emdash" unicode="&#x2014;" horiz-adv-x="827" 
d="M61 223v0q0 -17 12 -29t29 -12h621q17 0 29 12t12 29v91q0 18 -12 30t-29 12h-621q-17 0 -29 -12t-12 -30v-91z" />
    <glyph glyph-name="endash" unicode="&#x2013;" horiz-adv-x="621" 
d="M53 233v0q0 -17 12.5 -29t29.5 -12h430q17 0 29.5 12t12.5 29v91q0 18 -12.5 30t-29.5 12h-430q-17 0 -29.5 -12t-12.5 -30v-91z" />
    <glyph glyph-name="hyphen" unicode="-" horiz-adv-x="475" 
d="M52 232v0q0 -17 12 -29t29 -12h281q17 0 29 12t12 29v92q0 17 -12 29t-29 12h-281q-17 0 -29 -12t-12 -29v-92z" />
    <glyph glyph-name="guillemotleft" unicode="&#xab;" horiz-adv-x="701" 
d="M25 265v0q0 -9 6 -17l143 -195q9 -11 22 -11h139q17 0 24.5 14.5t-1.5 29.5l-117 163q-11 16 0 32l117 163q9 14 1.5 28.5t-24.5 14.5h-139q-13 0 -22 -11l-143 -195q-6 -8 -6 -16v0zM331 265v0q0 -9 5 -17l144 -195q9 -11 22 -11h139q17 0 24.5 14.5t-2.5 29.5l-117 163
q-10 16 0 32l117 163q10 14 2.5 28.5t-24.5 14.5h-139q-13 0 -22 -11l-144 -195q-5 -8 -5 -16v0z" />
    <glyph glyph-name="guillemotright" unicode="&#xbb;" horiz-adv-x="697" 
d="M668 265v0q0 8 -6 16l-143 195q-9 11 -22 11h-139q-17 0 -24.5 -14.5t1.5 -28.5l118 -163q10 -16 0 -32l-118 -163q-9 -15 -1.5 -29.5t24.5 -14.5h139q13 0 22 11l143 195q6 8 6 17v0zM362 265v0q0 8 -5 16l-144 195q-9 11 -22 11h-139q-17 0 -24.5 -14.5t2.5 -28.5
l117 -163q10 -16 0 -32l-117 -163q-10 -15 -2.5 -29.5t24.5 -14.5h139q13 0 22 11l144 195q5 8 5 17v0z" />
    <glyph glyph-name="guilsinglleft" unicode="&#x2039;" horiz-adv-x="397" 
d="M27 265v0q0 -9 6 -17l143 -195q9 -11 22 -11h140q16 0 23.5 14.5t-1.5 29.5l-117 163q-11 16 0 32l117 163q9 14 1.5 28.5t-23.5 14.5h-140q-13 0 -22 -11l-143 -195q-6 -8 -6 -16v0z" />
    <glyph glyph-name="guilsinglright" unicode="&#x203a;" horiz-adv-x="393" 
d="M362 265v0q0 8 -5 16l-144 195q-9 11 -22 11h-139q-17 0 -24.5 -14.5t2.5 -28.5l117 -163q10 -16 0 -32l-117 -163q-10 -15 -2.5 -29.5t24.5 -14.5h139q13 0 22 11l144 195q5 8 5 17v0z" />
    <glyph glyph-name="quotedblbase" unicode="&#x201e;" horiz-adv-x="515" 
d="M315 3v0q-15 0 -26 10.5t-11 25.5v101q0 15 11 25.5t26 10.5h110q15 0 25.5 -10.5t10.5 -25.5v-122q0 -69 -34.5 -116t-93.5 -66q-18 -5 -32.5 6t-14.5 29v18q0 24 25 36q16 5 27 14q19 18 10.5 41t-33.5 23zM94 3v0q-15 0 -25.5 10.5t-10.5 25.5v101q0 15 10.5 25.5
t25.5 10.5h110q15 0 25.5 -10.5t10.5 -25.5v-122q0 -69 -34.5 -116t-93.5 -66q-18 -5 -32.5 6t-14.5 29v18q0 24 25 36q16 5 27 14q19 18 10.5 41t-33.5 23z" />
    <glyph glyph-name="quotedblleft" unicode="&#x201c;" horiz-adv-x="530" 
d="M198 589v0q14 0 25 -10.5t11 -25.5v-101q0 -15 -11 -25.5t-25 -10.5h-111q-15 0 -25.5 10.5t-10.5 25.5v122q0 69 34.5 116t93.5 66q18 4 32.5 -6.5t14.5 -28.5v-18q0 -24 -25 -36q-16 -5 -27 -14q-19 -18 -10.5 -41t34.5 -23zM452 589v0q14 0 25 -10.5t11 -25.5v-101
q0 -15 -11 -25.5t-25 -10.5h-111q-15 0 -25.5 10.5t-10.5 25.5v122q0 69 34.5 116t93.5 66q18 4 32.5 -6.5t14.5 -28.5v-18q0 -24 -25 -36q-16 -5 -27 -14q-19 -18 -10.5 -41t34.5 -23z" />
    <glyph glyph-name="quotedblright" unicode="&#x201d;" horiz-adv-x="515" 
d="M315 546v0q-15 0 -26 10.5t-11 25.5v101q0 15 11 25.5t26 10.5h110q15 0 25.5 -10.5t10.5 -25.5v-122q0 -69 -34.5 -116t-93.5 -66q-18 -5 -32.5 6t-14.5 29v18q0 24 25 36q16 5 27 14q19 18 10.5 41t-33.5 23zM94 546v0q-15 0 -25.5 10.5t-10.5 25.5v101q0 15 10.5 25.5
t25.5 10.5h110q15 0 25.5 -10.5t10.5 -25.5v-122q0 -69 -34.5 -116t-93.5 -66q-18 -5 -32.5 6t-14.5 29v18q0 24 25 36q16 5 27 14q19 18 10.5 41t-33.5 23z" />
    <glyph glyph-name="quoteleft" unicode="&#x2018;" horiz-adv-x="277" 
d="M199 589v0q14 0 25 -10.5t11 -25.5v-101q0 -15 -11 -25.5t-25 -10.5h-111q-15 0 -25.5 10.5t-10.5 25.5v122q0 69 34.5 116t93.5 66q18 4 32.5 -6.5t14.5 -28.5v-18q0 -24 -25 -36q-16 -5 -27 -14q-19 -18 -10.5 -41t34.5 -23z" />
    <glyph glyph-name="quoteright" unicode="&#x2019;" horiz-adv-x="270" 
d="M81 546v0q-15 0 -25.5 10.5t-10.5 25.5v101q0 15 10.5 25.5t25.5 10.5h110q15 0 25.5 -10.5t10.5 -25.5v-122q0 -69 -34.5 -116t-93.5 -66q-18 -5 -32 6t-14 29v18q0 24 24 36q16 5 27 14q19 18 10.5 41t-33.5 23z" />
    <glyph glyph-name="quotesinglbase" unicode="&#x201a;" horiz-adv-x="285" 
d="M88 -79v0q-24 -11 -24 -35v-18q0 -19 14 -29.5t32 -5.5q59 19 93.5 66t34.5 115v123q0 15 -10.5 25.5t-25.5 10.5h-110q-15 0 -25.5 -10.5t-10.5 -25.5v-101q0 -15 10.5 -25.5t25.5 -10.5v0q25 0 33.5 -23t-9.5 -41q-12 -9 -28 -15z" />
    <glyph glyph-name="space" unicode=" " horiz-adv-x="217" 
 />
    <glyph glyph-name="uni00A0" unicode="&#xa0;" horiz-adv-x="217" 
 />
    <glyph glyph-name="Euro" unicode="&#x20ac;" horiz-adv-x="661" 
d="M358 196v0v0q55 -59 149 -59q39 0 73 9q10 2 18 -4.5t8 -16.5v-107q0 -7 -4 -13t-12 -8q-46 -12 -97 -12q-111 0 -194 52.5t-125 144.5q-6 12 -19 12h-86q-11 0 -17 8t-4 18l18 72q2 8 8 12t13 4h34q9 0 15.5 6.5t6.5 15.5v7v0q-1 9 -7 15t-14 6h-52q-10 0 -16.5 8
t-3.5 19l18 72q2 7 7.5 11.5t12.5 4.5h65q12 0 19 13q42 95 127 149.5t194 54.5q65 0 132 -21q8 -3 11.5 -10.5t2.5 -15.5l-27 -103q-3 -9 -10.5 -13t-15.5 -2q-43 11 -82 11q-58 0 -102 -25q-9 -6 -10.5 -15.5t4.5 -17t16 -7.5h153q10 0 16.5 -8t3.5 -19l-18 -70
q-2 -7 -7.5 -11.5t-12.5 -4.5h-216q-9 0 -15 -6t-6 -15v0v-8q0 -9 6 -15t15 -6h192q10 0 16.5 -8t4.5 -18l-18 -70q-2 -8 -8 -12t-13 -4h-147z" />
    <glyph glyph-name="cent" unicode="&#xa2;" horiz-adv-x="619" 
d="M402 -37v0q0 26 27 39q115 42 159 157q7 21 -5 38.5t-34 17.5h-50h-46q-22 0 -35 -21q-32 -51 -90 -51q-45 0 -74.5 31.5t-29.5 80.5q0 50 29.5 81t74.5 31q55 0 89 -47q13 -19 35 -19h95q22 0 34 17.5t5 38.5q-43 112 -157 153q-27 13 -27 39v10q0 17 -12.5 29.5
t-29.5 12.5h-66q-17 0 -29.5 -12.5t-12.5 -29.5v-11q0 -26 -27 -39q-83 -28 -131 -95t-48 -158t48.5 -158t130.5 -96q27 -12 27 -39v-1q0 -17 12.5 -29t29.5 -12h66q17 0 29.5 12t12.5 29v1z" />
    <glyph glyph-name="currency" unicode="&#xa4;" horiz-adv-x="572" 
d="M560 108v0q10 -11 10 -24.5t-10 -24.5l-60 -60q-11 -10 -24.5 -10t-25.5 10l-42 43q-120 -67 -237 -8l-38 -38q-11 -10 -24.5 -10t-24.5 10l-60 59q-10 12 -10 25.5t10 24.5l38 38q-60 117 7 237l-42 43q-11 11 -11 24.5t11 25.5l59 59q12 10 25 10t25 -10l43 -43
q120 68 237 8l32 32q11 10 24.5 10t24.5 -10l60 -60q10 -11 10 -24.5t-10 -24.5l-32 -32q58 -117 -8 -237zM222 195v0q74 -66 145 -3v0q62 71 -3 145q-74 65 -145 3q-62 -71 3 -145z" />
    <glyph glyph-name="dollar" unicode="$" horiz-adv-x="609" 
d="M374 -37v0q0 25 28 36q76 20 120.5 72.5t44.5 135.5q0 57 -21.5 94t-55.5 59.5t-74 36t-78 22.5q-49 11 -81.5 24.5t-32.5 42.5q0 22 20 32.5t45 10.5q23 0 40.5 -8.5t25.5 -26.5q9 -22 33 -24l118 1q18 0 28.5 12.5t7.5 29.5q-21 123 -149 161q-26 11 -26 35v2
q0 15 -10.5 25.5t-25.5 10.5h-77q-15 0 -26 -10.5t-11 -25.5v-1q0 -25 -27 -35q-155 -45 -155 -194q0 -58 20.5 -94.5t53.5 -58t71.5 -34t76.5 -21.5q1 0 3 -1q48 -10 80.5 -24t32.5 -45q0 -26 -23.5 -40t-52.5 -14q-25 0 -45.5 10.5t-29.5 32.5q-11 25 -34 25h-123
q-17 0 -27.5 -13t-8.5 -30q26 -137 169 -176q12 -3 19 -13t7 -22v-5q0 -15 10.5 -25.5t25.5 -10.5h78q15 0 25.5 10.5t10.5 25.5v5z" />
    <glyph glyph-name="sterling" unicode="&#xa3;" horiz-adv-x="614" 
d="M576 173v0q0 14 -10 24t-24 10h-84q-15 0 -24.5 -10t-9.5 -24v0q0 -14 -10 -24t-24 -10h-87q-14 0 -23.5 10t-9.5 24v50q0 15 9.5 24.5t23.5 9.5h53q14 0 24 10t10 24v60q0 14 -10 24t-24 10h-53q-14 0 -23.5 9.5t-9.5 23.5v58q0 62 62 66q27 0 44 -17.5t17 -48.5v-11
h145q6 0 10.5 4t4.5 10v0q0 94 -59.5 148t-161.5 54q-106 0 -169.5 -55t-63.5 -147v-70q0 -10 -7 -17t-17 -7v0q-9 0 -16.5 -7.5t-7.5 -16.5v-80q0 -10 7.5 -17t16.5 -7v0q10 0 17 -7t7 -17v-86q0 -14 -14 -22l-31 -14q-15 -8 -15 -22v-57q0 -14 10 -24t24 -10h469
q14 0 24 10t10 24v141z" />
    <glyph glyph-name="uni20BD" unicode="&#x20bd;" horiz-adv-x="633" 
d="M395 258v0h-67q-11 0 -18 -7t-7 -17v0q0 -10 7 -17.5t18 -7.5h102q10 0 17 -7t7 -17v-63q0 -10 -7 -17.5t-17 -7.5h-102q-11 0 -18 -7t-7 -17v-50q0 -10 -7 -17t-18 -7h-122q-10 0 -17 7t-7 17v50q0 10 -7.5 17t-17.5 7h-27q-10 0 -17 7.5t-7 17.5v63q0 10 7 17t17 7h27
q10 0 17.5 7.5t7.5 17.5v6q0 11 -7.5 18t-17.5 7h-27q-10 0 -17 7t-7 17v79q0 10 7 17t17 7h27q10 0 17.5 7.5t7.5 17.5v224q0 10 7 17.5t17 7.5h239q101 0 159 -55t58 -149t-58 -149t-159 -55zM303 499v0v-74q0 -10 7 -17t18 -7h50q29 0 47 17t18 44t-18 44t-47 17h-50
q-11 0 -18 -7t-7 -17z" />
    <glyph glyph-name="yen" unicode="&#xa5;" horiz-adv-x="695" 
d="M641 666v0q13 0 19.5 -11t-0.5 -23l-184 -295q-7 -11 -0.5 -22.5t19.5 -11.5h86q9 0 15.5 -6.5t6.5 -15.5v-53q0 -9 -6.5 -15.5t-15.5 -6.5h-113q-9 0 -15.5 -6.5t-6.5 -16.5v0q0 -9 6.5 -15.5t15.5 -6.5h113q9 0 15.5 -6.5t6.5 -15.5v-47q0 -9 -6.5 -15.5t-15.5 -6.5
h-113q-9 0 -15.5 -6.5t-6.5 -16.5v-24q0 -9 -6.5 -15.5t-16.5 -6.5h-132q-9 0 -15.5 6.5t-6.5 15.5v24q0 10 -6.5 16.5t-15.5 6.5h-113q-10 0 -16.5 6.5t-6.5 15.5v47q0 9 6.5 15.5t16.5 6.5h113q9 0 15.5 6.5t6.5 15.5v0q0 10 -6.5 16.5t-15.5 6.5h-113q-10 0 -16.5 6.5
t-6.5 15.5v53q0 9 6.5 15.5t16.5 6.5h85q13 0 19 11t0 23l-183 295q-6 12 0 23t19 11h137q12 0 20 -11l107 -193q7 -11 19 -11t19 11l108 193q8 11 20 11h137z" />
    <glyph glyph-name="plus" unicode="+" horiz-adv-x="547" 
d="M476 249v0q17 0 29 12.5t12 29.5v75q0 17 -12 29t-29 12h-77q-17 0 -29 12.5t-12 29.5v84q0 17 -12 29t-30 12h-85q-17 0 -29.5 -12t-12.5 -29v-84q0 -17 -12 -29.5t-29 -12.5h-76q-17 0 -29.5 -12t-12.5 -29v-75q0 -17 12.5 -29.5t29.5 -12.5h76q17 0 29 -12t12 -29v-88
q0 -17 12.5 -29t29.5 -12h85q18 0 30 12t12 29v88q0 17 12 29t29 12h77z" />
    <glyph glyph-name="minus" unicode="&#x2212;" horiz-adv-x="590" 
d="M104 400v0q-17 0 -29.5 -12t-12.5 -29v-87q0 -17 12.5 -29t29.5 -12h384q18 0 30 12t12 29v87q0 17 -12 29t-30 12h-384z" />
    <glyph glyph-name="multiply" unicode="&#xd7;" horiz-adv-x="538" 
d="M465 415v0q12 13 12 29t-12 29l-53 53q-14 13 -29.5 13t-29.5 -13l-54 -53q-13 -13 -29 -13t-29 13l-60 59q-13 12 -29 12t-29 -12l-61 -60q-12 -14 -12 -30t12 -29l60 -60q12 -13 12 -29t-12 -29l-54 -54q-13 -14 -13 -29.5t13 -29.5l53 -53q13 -12 29 -12t29 12l54 54
q14 12 29.5 12t29.5 -12l62 -62q13 -12 29 -12t30 12l60 60q12 14 12 30t-12 29l-62 62q-12 14 -12 29.5t12 29.5z" />
    <glyph glyph-name="divide" unicode="&#xf7;" horiz-adv-x="540" 
d="M269 446q-37 0 -62 25.5t-25 61.5t25 61t62 25q36 0 61.5 -25t25.5 -61t-25.5 -61.5t-61.5 -25.5zM269 12q-37 0 -62 25.5t-25 61.5t25 61t62 25q36 0 61.5 -25t25.5 -61t-25.5 -61.5t-61.5 -25.5zM62 400v0q-17 0 -29 -12t-12 -29v-87q0 -17 12 -29t29 -12h415
q17 0 29.5 12t12.5 29v87q0 17 -12.5 29t-29.5 12h-415z" />
    <glyph glyph-name="equal" unicode="=" horiz-adv-x="584" 
d="M101 514v0q-17 0 -29 -12.5t-12 -29.5v-69q0 -17 12 -29.5t29 -12.5h388q17 0 29.5 12.5t12.5 29.5v69q0 17 -12.5 29.5t-29.5 12.5h-388zM101 291v0q-17 0 -29 -12t-12 -30v-69q0 -17 12 -29t29 -12h388q17 0 29.5 12t12.5 29v69q0 18 -12.5 30t-29.5 12h-388z" />
    <glyph glyph-name="notequal" unicode="&#x2260;" horiz-adv-x="584" 
d="M182 291h-81q-17 0 -29 -12t-12 -30v-69q0 -17 12 -29q9 -9 22 -11l-18 -31q-5 -10 7 -18t33 -8h99q14 0 25 4t15 11l24 41h210q17 0 29.5 12t12.5 29v69q0 18 -12.5 30t-29.5 12h-122l41 70h81q17 0 29.5 12.5t12.5 29.5v69q0 17 -12 30q-10 9 -22 11l17 30
q6 11 -6.5 19t-33.5 8h-99q-14 0 -25 -4t-15 -11l-24 -41h-210q-17 0 -29 -12.5t-12 -29.5v-69q0 -17 12 -29.5t29 -12.5h121z" />
    <glyph glyph-name="greater" unicode="&#x3e;" horiz-adv-x="572" 
d="M72 555v0q-22 7 -39.5 -5t-17.5 -34v-107q0 -27 29 -39l166 -53q29 -11 29 -39t-29 -40l-167 -53q-28 -12 -28 -39v-112q0 -22 17.5 -34t39.5 -4l457 186q26 13 26 38v113q0 25 -27 38z" />
    <glyph glyph-name="less" unicode="&#x3c;" horiz-adv-x="562" 
d="M495 -5v0q22 -7 39.5 5t17.5 34v107q0 27 -29 39l-166 53q-29 12 -29 39.5t29 39.5l167 53q28 12 28 40v111q0 22 -17.5 34t-39.5 5l-457 -186q-26 -14 -26 -39v-112q0 -26 26 -39z" />
    <glyph glyph-name="greaterequal" unicode="&#x2265;" horiz-adv-x="572" 
d="M72 717v0q-22 7 -39.5 -5t-17.5 -34v-107q0 -27 29 -39l166 -53q29 -11 29 -39t-29 -40l-167 -53q-28 -12 -28 -39v-112q0 -22 17.5 -34t39.5 -4l457 186q26 13 26 38v113q0 25 -27 38zM104 69v0q-17 0 -29.5 -12t-12.5 -29v-87q0 -17 12.5 -29t29.5 -12h384q18 0 30 12
t12 29v87q0 17 -12 29t-30 12h-384z" />
    <glyph glyph-name="lessequal" unicode="&#x2264;" horiz-adv-x="562" 
d="M495 157v0q22 -7 39.5 5t17.5 34v107q0 27 -29 39l-166 53q-29 12 -29 39.5t29 39.5l167 53q28 12 28 40v111q0 22 -17.5 34t-39.5 5l-457 -186q-26 -14 -26 -39v-112q0 -26 26 -39zM104 69v0q-17 0 -29.5 -12t-12.5 -29v-87q0 -17 12.5 -29t29.5 -12h384q18 0 30 12
t12 29v87q0 17 -12 29t-30 12h-384z" />
    <glyph glyph-name="plusminus" unicode="&#xb1;" horiz-adv-x="547" 
d="M476 249v0q17 0 29 12.5t12 29.5v75q0 17 -12 29t-29 12h-77q-17 0 -29 12.5t-12 29.5v84q0 17 -12 29t-30 12h-85q-17 0 -29.5 -12t-12.5 -29v-84q0 -17 -12 -29.5t-29 -12.5h-76q-17 0 -29.5 -12t-12.5 -29v-75q0 -17 12.5 -29.5t29.5 -12.5h76q17 0 29 -12t12 -29v-88
q0 -17 12.5 -29t29.5 -12h85q18 0 30 12t12 29v88q0 17 12 29t29 12h77zM83 49v0q-17 0 -29.5 -12t-12.5 -29v-87q0 -17 12.5 -29t29.5 -12h384q18 0 30 12t12 29v87q0 17 -12 29t-30 12h-384z" />
    <glyph glyph-name="asciitilde" unicode="~" horiz-adv-x="572" 
d="M51 480v0q2 -21 18 -31.5t37 -4.5q46 14 93 6t94 -23q57 -20 114.5 -26t114.5 28q20 14 19 38l-6 80q-2 21 -18 31.5t-37 5.5q-46 -14 -93 -6t-94 23q-57 20 -114.5 26t-114.5 -28q-20 -14 -19 -38q3 -40 6 -81z" />
    <glyph glyph-name="percent" unicode="%" horiz-adv-x="677" 
d="M504 778v0q14 19 35 19h104q25 0 36.5 -21t-1.5 -43l-492 -775q-14 -19 -35 -19h-104q-25 0 -36.5 21t1.5 43zM179 493v0q-67 0 -114 47t-47 114t47 114t114 47t114 -47t47 -114t-47 -114t-114 -47zM179 688v0q-14 0 -24 -10t-10 -24t10 -24t24 -10t24 10t10 24t-10 24
t-24 10zM510 248v0q67 0 114.5 -47.5t47.5 -113.5q0 -67 -47.5 -114.5t-114.5 -47.5q-66 0 -113.5 47.5t-47.5 114.5q0 66 47.5 113.5t113.5 47.5zM510 52v0q15 0 25 10t10 25q0 14 -10 24t-25 10q-14 0 -24 -10t-10 -24q0 -15 10 -25t24 -10z" />
    <glyph glyph-name="perthousand" unicode="&#x2030;" horiz-adv-x="1051" 
d="M524 778v0q14 19 35 19h105q24 0 35.5 -21t-0.5 -43l-493 -775q-14 -19 -35 -19h-104q-25 0 -36 21t1 43zM199 493v0q-67 0 -114 47t-47 114t47 114t114 47t114.5 -47t47.5 -114t-47.5 -114t-114.5 -47zM199 688v0q-14 0 -24 -10t-10 -24t10 -24t24 -10t24.5 10t10.5 24
t-10.5 24t-24.5 10zM531 248v0q66 0 113.5 -47.5t47.5 -113.5q0 -67 -47.5 -114.5t-113.5 -47.5q-67 0 -114.5 47.5t-47.5 114.5q0 66 47.5 113.5t114.5 47.5zM531 52v0q14 0 24 10t10 25q0 14 -10 24t-24 10q-15 0 -25 -10t-10 -24q0 -15 10 -25t25 -10zM894 52v0
q15 0 25 10t10 25q0 14 -10 24t-25 10q-14 0 -24 -10t-10 -24q0 -15 10 -25t24 -10zM894 248v0q67 0 114.5 -47.5t47.5 -113.5q0 -67 -47.5 -114.5t-114.5 -47.5q-66 0 -113.5 47.5t-47.5 114.5q0 66 47.5 113.5t113.5 47.5z" />
    <glyph glyph-name="at" unicode="@" horiz-adv-x="1015" 
d="M507 686v0v0q-128 0 -237.5 -52.5t-175.5 -152t-66 -239.5q0 -126 56.5 -224t154.5 -154t223 -56q72 0 146 23q29 13 29 40v42q0 20 -15.5 32.5t-35.5 7.5q-50 -13 -104 -13q-138 0 -227 85t-89 217q0 136 97.5 224t247.5 88q148 0 240.5 -84.5t92.5 -214.5
q0 -55 -21 -81.5t-49 -26.5q-24 0 -40 16.5t-16 47.5v186q0 17 -12 29.5t-29 12.5h-27q-9 0 -15 -9v0q-5 -7 -12.5 -8t-14.5 4q-54 43 -129 43q-99 0 -162.5 -63.5t-63.5 -163.5t63.5 -164.5t162.5 -64.5q71 0 124 40q12 9 26.5 8t25.5 -11q46 -37 117 -37q55 0 103 27.5
t77 81.5t29 133q0 135 -65 232t-172.5 148t-236.5 51zM583 242v0q0 -39 -25 -64t-64 -25q-38 0 -63.5 25.5t-25.5 63.5q0 39 25.5 64t63.5 25q39 0 64 -25t25 -64z" />
    <glyph glyph-name="ampersand" unicode="&#x26;" horiz-adv-x="644" 
d="M489 10v0q10 -10 23 -10h101q20 0 28 17.5t-4 34.5q-29 32 -55 62q-14 18 -3 38q40 65 52 148q1 15 -8 25.5t-24 10.5h-90q-11 0 -20 -6.5t-11 -18.5v0q-5 -20 -23 -24.5t-32 10.5q-13 15 -25 29q-9 12 -7 25t14 22q49 31 83.5 73t34.5 104q0 84 -62 130.5t-150 46.5
q-89 0 -151 -46t-62 -131q0 -28 10 -59t40 -77q6 -10 4.5 -22t-11.5 -20q-42 -31 -70 -74.5t-28 -105.5q0 -93 63.5 -150.5t164.5 -57.5q95 0 172 41q21 9 38 -7zM330 186v0q12 -15 6 -31.5t-25 -20.5q-12 -2 -25 -2q-34 0 -54.5 18t-20.5 47q0 27 16 49q9 13 24 13.5
t25 -11.5q25 -29 54 -62zM259 545v0q0 48 52 51q22 0 37.5 -14t15.5 -37q0 -18 -11.5 -33.5t-31.5 -29.5q-12 -8 -25.5 -5t-20.5 16q-16 31 -16 52z" />
    <glyph glyph-name="paragraph" unicode="&#xb6;" horiz-adv-x="720" 
d="M687 666v0v-91q0 -15 -10.5 -25.5t-25.5 -10.5h-20q-15 0 -25.5 -10.5t-10.5 -25.5v-552q0 -15 -10.5 -25.5t-25.5 -10.5h-86q-15 0 -25.5 10.5t-10.5 25.5v552q0 15 -10.5 25.5t-25.5 10.5v0q-15 0 -25.5 -10.5t-10.5 -25.5v-552q0 -15 -10.5 -25.5t-25.5 -10.5h-86
q-15 0 -25.5 10.5t-10.5 25.5v278q0 23 -23 34q-71 25 -112.5 80.5t-41.5 128.5q0 98 70 164t182 66h369q15 0 25.5 -10.5t10.5 -25.5z" />
    <glyph glyph-name="section" unicode="&#xa7;" horiz-adv-x="541" 
d="M504 326v0v0q0 -63 -41 -109q-15 -18 -3 -39q21 -32 21 -76q0 -81 -56.5 -124.5t-152.5 -43.5q-86 0 -141 37t-69 103q-3 16 7 27.5t25 11.5h92q19 0 30 -20q7 -14 23 -21.5t34 -7.5q20 0 35.5 9.5t15.5 26.5q0 24 -28 35.5t-68 20.5q-43 9 -86.5 25.5t-74 50.5t-30.5 97
q0 69 41 109q8 9 9 20t-6 21q-21 30 -21 73q0 82 56.5 126t151.5 44q85 0 140 -37.5t68 -103.5q3 -16 -7 -27.5t-25 -11.5h-92q-19 0 -29 19q-7 15 -22.5 22t-33.5 7q-20 0 -34.5 -9t-14.5 -26q0 -24 27.5 -36t68.5 -21q43 -10 86.5 -26.5t73.5 -50t30 -95.5zM194 337v0v0
q2 -25 30 -39.5t73 -24.5h1l6 -2q7 -2 13 1q29 14 30 47q-2 28 -31 43t-76 26h-1v0q-7 2 -13 -1q-31 -16 -32 -50z" />
    <glyph glyph-name="copyright" unicode="&#xa9;" horiz-adv-x="831" 
d="M415 -15q-109 0 -195 46.5t-135.5 128.5t-49.5 189t49.5 189t135.5 129t195 47q108 0 194 -47t135.5 -129t49.5 -189t-49.5 -189t-135.5 -128.5t-194 -46.5zM415 84q118 0 194.5 74t76.5 191t-76.5 191.5t-194.5 74.5q-119 0 -195.5 -74.5t-76.5 -191.5t76.5 -191
t195.5 -74zM421 151v0v0q69 0 119.5 35.5t71.5 95.5q4 15 -4.5 26.5t-23.5 11.5h-71q-16 0 -25 -15q-24 -39 -67 -39q-33 0 -55 23.5t-22 60.5q0 36 22 59t55 23q42 0 66 -35q10 -15 25 -15h71q15 0 23 12t4 26q-21 59 -70.5 93t-117.5 34q-90 0 -148 -55.5t-58 -141.5
q0 -87 58 -143t147 -56z" />
    <glyph glyph-name="registered" unicode="&#xae;" horiz-adv-x="512" 
d="M256 714q95 0 157.5 -62.5t62.5 -158.5q0 -95 -62.5 -158t-157.5 -63t-158 63.5t-63 157.5q0 96 63 158.5t158 62.5zM256 340q66 0 109.5 43t43.5 110t-43.5 110t-109.5 43q-67 0 -110 -43.5t-43 -109.5t43.5 -109.5t109.5 -43.5zM250 465v0q7 0 11 -6l24 -46q4 -6 11 -6
h32q7 0 10 5.5t0 11.5l-23 43q-2 4 -1.5 8t4.5 7q22 19 22 49t-20 49t-51 19h-72q-5 0 -8.5 -3.5t-3.5 -8.5v-168q0 -5 3.5 -8.5t8.5 -3.5h29q5 0 8.5 3.5t3.5 8.5v34q0 5 3.5 8.5t8.5 3.5v0zM238 522v0v18q0 5 3.5 8.5t8.5 3.5h13q22 0 23 -21q0 -18 -23 -21h-13
q-5 0 -8.5 3.5t-3.5 8.5z" />
    <glyph glyph-name="uni2117" unicode="&#x2117;" horiz-adv-x="824" 
d="M411 714q166 0 271.5 -102t105.5 -263q0 -160 -105.5 -262t-271.5 -102t-271 102t-105 262q0 161 105 263t271 102zM411 84q119 0 195 74t76 191t-76 191.5t-195 74.5t-195 -74.5t-76 -191.5t76 -191t195 -74zM596 399v0q0 60 -40.5 99.5t-102.5 39.5h-139q-10 0 -17 -7
t-7 -17v-337q0 -10 7 -17t17 -7h58q10 0 17 7t7 17v59q0 9 7 16.5t17 7.5h33q62 0 102.5 39t40.5 100zM487 399v0q0 -21 -12.5 -34t-33.5 -13h-21q-10 0 -17 7t-7 17v45q0 10 7 17t17 7h21q41 0 46 -46z" />
    <glyph glyph-name="trademark" unicode="&#x2122;" horiz-adv-x="715" 
d="M255.606 655.413v0q8.10059 0 13.7256 5.2002t5.625 12.4004v34.4023q0 7.2002 -5.625 12.4004q-5.625 5.20117 -13.7256 5.20117h-219.155q-8.10059 0 -13.9512 -5.20117q-5.84961 -5.2002 -5.84961 -12.4004v-34.4023q0 -7.2002 5.84961 -12.4004
q5.85059 -5.2002 13.9512 -5.2002h46.3506q8.10059 0 13.9502 -5.00098q5.85059 -5 5.85059 -12.6006v-175.61q0 -7.2002 5.625 -12.2012q5.625 -5 13.7256 -5h48.1514q8.10059 0 13.7256 5q5.625 5.00098 5.625 12.2012v175.61q0 7.60059 5.84961 12.6006
q5.85059 5.00098 13.9512 5.00098h46.3506zM618.01 445v0q-7.65039 0 -13.0508 4.2002q-5.39941 4.2002 -6.75 11.001l-13.0498 86.4053q-3.15039 13.2002 -16.4258 15.001q-13.2754 1.7998 -20.9258 -10.2012l-37.8008 -85.6055q-5.85059 -11.2002 -18.001 -11.2002h-24.75
q-11.7002 0 -18.001 11.2002l-37.3506 85.6055q-7.65039 11.6006 -20.9258 9.80078t-16.4258 -15.001l-13.0498 -86.0049q-1.35059 -6.80078 -6.75 -11.001q-5.40039 -4.2002 -12.6006 -4.2002h-53.1016q-6.75 0 -11.25 4.60059q-4.5 4.59961 -4.05078 11l42.752 249.615
q1.34961 6.40039 6.75 10.6006q5.40039 4.20117 12.6006 4.20117h56.7012q11.7002 0 18 -10.8008l51.3018 -104.807q5.85059 -10.4004 17.7754 -10.4004q11.9258 0 18.2256 10.4004l51.3018 105.206q6.2998 10.4014 18 10.4014h57.1514q7.2002 0 12.6006 -4.20117
q5.40039 -4.2002 6.75 -10.6006l41.8516 -249.615q0.900391 -6.40039 -3.60059 -11q-4.5 -4.60059 -11.7002 -4.60059h-52.2012z" />
    <glyph glyph-name="degree" unicode="&#xb0;" horiz-adv-x="381" 
d="M188 745q65 0 107.5 -42.5t42.5 -107.5q0 -64 -42.5 -107t-107.5 -43q-64 0 -107 43t-43 107q0 65 43 107.5t107 42.5zM191 523q32 0 52.5 20.5t20.5 52.5t-20.5 52.5t-52.5 20.5t-52.5 -20.5t-20.5 -52.5t21 -52.5t52 -20.5z" />
    <glyph glyph-name="bar" unicode="|" horiz-adv-x="295" 
d="M194 -92v0q17 0 29 12.5t12 29.5v724q0 18 -12 30t-29 12h-91q-17 0 -29.5 -12t-12.5 -30v-724q0 -17 12.5 -29.5t29.5 -12.5h91z" />
    <glyph glyph-name="brokenbar" unicode="&#xa6;" horiz-adv-x="299" 
d="M193 405v0q18 0 30 12t12 29v270q0 17 -12 29t-30 12h-91q-17 0 -29 -12t-12 -29v-270q0 -17 12 -29t29 -12h91zM193 -100v0q18 0 30 12t12 29v269q0 18 -12 30t-30 12h-91q-17 0 -29 -12t-12 -30v-269q0 -17 12 -29t29 -12h91z" />
    <glyph glyph-name="uni2116" unicode="&#x2116;" horiz-adv-x="1131" 
d="M902 630q81 0 132.5 -48.5t52.5 -126.5q-2 -78 -53 -126.5t-132 -48.5t-133.5 49t-52.5 126t52.5 126t133.5 49zM902 396q52 0 57 59q0 26 -15.5 42.5t-41.5 16.5t-42 -16.5t-16 -42.5t16.5 -42.5t41.5 -16.5zM424 403v0q17 -20 39.5 -12.5t22.5 32.5v209q0 15 10.5 25
t24.5 10h109q14 0 24 -10t10 -25v-597q0 -14 -10 -24t-24 -10h-99q-17 0 -28 14l-192 262q-17 20 -40 12.5t-23 -32.5v-222q0 -14 -10 -24t-24 -10h-109q-15 0 -25 10t-10 24v597q0 15 10 25t25 10h108q17 0 28 -14zM770 74v0q-14 0 -24 10t-10 24v73q0 15 10 25t24 10h264
q15 0 25 -10t10 -25v-73q0 -14 -10 -24t-25 -10h-264z" />
    <glyph glyph-name="asciicircum" unicode="^" horiz-adv-x="379" 
d="M9 587v0q-4 -13 3.5 -24.5t21.5 -11.5h69q17 0 25 18l34 107q8 19 25.5 19t25.5 -19l34 -107q8 -18 25 -18h72q14 0 22 11.5t3 25.5l-120 293q-8 17 -25 17h-72q-16 0 -25 -17z" />
    <glyph glyph-name="uni0308" unicode="&#x308;" 
d="M-196 639v0q0 -15 10.5 -25.5t25.5 -10.5h79q15 0 25.5 10.5t10.5 25.5v85q0 15 -10.5 26t-25.5 11h-79q-15 0 -25.5 -11t-10.5 -26v-85zM56 639v0q0 -15 10.5 -25.5t25.5 -10.5h79q15 0 25.5 10.5t10.5 25.5v85q0 15 -10.5 26t-25.5 11h-79q-15 0 -25.5 -11t-10.5 -26
v-85z" />
    <glyph glyph-name="uni0307" unicode="&#x307;" 
d="M-81 639v0q0 -15 10.5 -25.5t25.5 -10.5h78q15 0 26 10.5t11 25.5v85q0 15 -11 26t-26 11h-78q-15 0 -25.5 -11t-10.5 -26v-85z" />
    <glyph glyph-name="gravecomb" unicode="&#x300;" 
d="M-83 763h106q21 0 30 -22l35 -101q5 -16 -4.5 -29.5t-26.5 -13.5h-73q-17 0 -27 15l-67 100q-10 18 -1 34.5t28 16.5v0z" />
    <glyph glyph-name="acutecomb" unicode="&#x301;" 
d="M104 763v0q14 0 20 -11.5t-1 -23.5l-77 -116q-11 -15 -27 -15h-73q-17 0 -26.5 13.5t-4.5 29.5l34 101q10 22 31 22h124z" />
    <glyph glyph-name="uni030B" unicode="&#x30b;" 
d="M-177 763v0q14 0 20 -11.5t-1 -23.5l-77 -116q-11 -15 -27 -15h-73q-17 0 -26.5 13.5t-4.5 29.5l34 101q10 22 31 22h124zM32 763v0q20 0 29 -16.5t-2 -34.5l-66 -100q-11 -15 -27 -15h-74q-16 0 -25.5 13.5t-4.5 29.5l34 101q10 22 31 22h105z" />
    <glyph glyph-name="uni0302" unicode="&#x302;" 
d="M-379 627v0q-5 -8 -1.5 -15.5t12.5 -7.5h75q7 0 11 6l41 56q5 6 11.5 6t11.5 -6l40 -56q5 -6 12 -6h77q8 0 12 7.5t-1 15.5l-126 149q-5 5 -11 5h-27q-7 0 -12 -5z" />
    <glyph glyph-name="uni030C" unicode="&#x30c;" 
d="M-94 751v0q5 7 1 14t-12 7h-71q-6 0 -11 -5l-38 -53q-5 -6 -11.5 -6t-10.5 6l-38 53q-5 5 -11 5h-73q-8 0 -11.5 -7t1.5 -14l119 -141q4 -5 11 -5h25q6 0 11 5z" />
    <glyph glyph-name="uni0306" unicode="&#x306;" 
d="M-80 672v0q8 23 9 59q2 9 -5 15q-5 7 -14 7h-48q-7 0 -14 -6q-5 -5 -7 -13q0 -9 -2 -16q-4 -12 -17 -20q-13 -7 -43 -7t-43 7q-13 8 -17 20q-2 6 -2 16q-1 8 -6 13q-7 6 -14 6h-47q-9 0 -15 -7q-6 -6 -5 -15q1 -36 10 -59q10 -31 43 -50q32 -18 96 -18t97 18q33 19 44 50
z" />
    <glyph glyph-name="uni030A" unicode="&#x30a;" 
d="M-227.397 815.509q45.501 0 75.251 -29.75q29.751 -29.751 29.751 -75.252q0 -44.8008 -29.751 -74.9014q-29.75 -30.0996 -75.251 -30.0996q-44.8008 0 -74.9014 30.0996q-30.1006 30.1006 -30.1006 74.9014q0 45.501 30.1006 75.252q30.1006 29.75 74.9014 29.75z
M-225.298 660.106q22.4004 0 36.751 14.3506q14.3496 14.3496 14.3496 36.75t-14.3496 36.751q-14.3506 14.3506 -36.751 14.3506t-36.75 -14.3506q-14.3506 -14.3506 -14.3506 -36.751t14.7002 -36.75q14.7002 -14.3506 36.4004 -14.3506z" />
    <glyph glyph-name="tildecomb" unicode="&#x303;" 
d="M-89 664v0q3 15 4 38q0 10 -7 16q-7 8 -16 8h-14q-9 0 -15 -6t-8 -14v-3q-1 -2 -1 -4q-4 -5 -16 -5q-11 0 -30 4q-8 1 -14 3q-7 2 -11 2q-56 14 -86 14q-31 0 -47 -12q-14 -11 -18 -32q-3 -14 -3 -38q0 -10 7 -16q7 -7 15 -7h16q7 0 14 5q7 6 8 14q0 4 2 7q3 5 15 5
t30 -4q12 -2 19 -4q4 -1 6 -1q56 -14 87 -14t45 12q15 11 18 32z" />
    <glyph glyph-name="uni0304" unicode="&#x304;" 
d="M-362 640v0q0 -17 12 -29t29 -12h281q17 0 29 12t12 29v92q0 17 -12 29t-29 12h-281q-17 0 -29 -12t-12 -29v-92z" />
    <glyph glyph-name="uni0312" unicode="&#x312;" 
d="M-148.701 794.301v0q17.5 7.7002 17.5 24.501v12.5996q0 13.3008 -10.1494 20.6504q-10.1504 7.35059 -22.751 3.85059q-41.3008 -13.3008 -65.4512 -46.2012t-24.1504 -80.501v-86.1016q0 -10.501 7.35059 -17.8506q7.34961 -7.35059 17.8506 -7.35059h77.001
q10.5 0 18.2002 7.35059q7.7002 7.34961 7.7002 17.8506v70.7012q0 10.5 -7.7002 17.8496q-7.7002 7.35059 -18.2002 7.35059v0q-17.5 0 -23.4502 16.1006q-5.9502 16.0996 7.34961 28.7002q7.7002 6.2998 18.9004 10.5z" />
    <glyph glyph-name="uni0326" unicode="&#x326;" 
d="M-43.2988 -236.301v0q-17.5 -7.7002 -17.5 -24.501v-12.5996q0 -13.3008 10.1494 -20.6504q10.1504 -7.35059 22.751 -3.85059q41.3008 13.3008 65.4512 46.2012t24.1504 80.501v86.1016q0 10.501 -7.35059 17.8506q-7.34961 7.35059 -17.8506 7.35059h-77.001
q-10.5 0 -18.2002 -7.35059q-7.7002 -7.34961 -7.7002 -17.8506v-70.7012q0 -10.5 7.7002 -17.8496q7.7002 -7.35059 18.2002 -7.35059v0q17.5 0 23.4502 -16.1006q5.9502 -16.0996 -7.34961 -28.7002q-7.7002 -6.2998 -18.9004 -10.5z" />
    <glyph glyph-name="uni0327" unicode="&#x327;" 
d="M-88 -131v0q0 73 -80 93q-7 2 -10.5 7.5t-1.5 12.5l10 36q3 14 -5 25t-22 11h-28q-19 0 -27 -21l-31 -111q-2 -7 3 -13v0q5 -7 12 -7h38q28 0 31 -27q0 -26 -31 -28h-36q-12 0 -20 -8.5t-8 -19.5v-25q0 -12 8 -20t20 -8h49q56 0 92.5 28t36.5 75z" />
    <glyph glyph-name="uni0328" unicode="&#x328;" 
d="M-156 -129v0q0 -51 37.5 -82t94.5 -31q42 0 83 18q23 12 23 34v20q0 17 -12.5 27.5t-30.5 8.5h-12q-51 0 -56 45q0 57 88 90q24 12 24 36v0q0 20 -16 30.5t-35 4.5q-188 -77 -188 -201z" />
    <glyph glyph-name="gravecomb.aalt" horiz-adv-x="282" 
d="M31 763h106q20 0 30 -22l35 -101q5 -16 -4.5 -29.5t-26.5 -13.5h-73q-17 0 -28 15l-66 100q-10 18 -1 34.5t28 16.5v0z" />
    <glyph glyph-name="acutecomb.aalt" horiz-adv-x="301" 
d="M242 763v0q13 0 19 -11.5t-1 -23.5l-77 -116q-10 -15 -27 -15h-73q-17 0 -26.5 13.5t-4.5 29.5l34 101q10 22 31 22h125z" />
    <glyph glyph-name="uni030B.aalt" 
d="M-549 760l50 155h170l-89 -155h-131zM-342 760l75 155h177l-119 -155h-133z" />
    <glyph glyph-name="uni0326.aalt" 
d="M-210 -321v77q64 8 64 60h-70v137h153v-124q0 -64 -39.5 -103.5t-107.5 -46.5z" />
    <glyph glyph-name="uni0328.aalt" 
d="M-306 -129v0q0 -51 37.5 -82t94.5 -31q42 0 83 18q23 12 23 34v20q0 17 -12.5 27.5t-30.5 8.5h-12q-51 0 -56 45q0 57 88 90q24 12 24 36v0q0 20 -16 30.5t-35 4.5q-188 -77 -188 -201z" />
    <glyph glyph-name="glyph351" 
d="M-497 314v0q0 -17 12 -29t29 -12h315q17 0 29 12t12 29v74q0 17 -12 29t-29 12h-315q-17 0 -29 -12t-12 -29v-74z" />
    <glyph glyph-name="glyph352" 
d="M-803 553v0q0 -17 12 -29t29 -12h627q17 0 29.5 12t12.5 29v54q0 17 -12.5 29t-29.5 12h-627q-17 0 -29 -12t-12 -29v-54z" />
    <glyph glyph-name="glyph353" 
d="M-461 278v0q1 -31 10.5 -40t31.5 -1l314 143q21 7 31 15.5t10 25.5v73q3 54 -41 42l-314 -143q-47 -18 -42 -42v-73z" />
    <glyph glyph-name="glyph354" 
d="M-388 -60v0q17 0 23.5 6.5t15.5 21.5q0 1 1 2l439 744q10 30 -4.5 41.5t-35.5 11.5h-99q-28 0 -40 -30l-439 -744q-27 -53 40 -53h99z" />
    <glyph glyph-name="acute" unicode="&#xb4;" horiz-adv-x="301" 
d="M242 763v0q13 0 19 -11.5t-1 -23.5l-77 -116q-10 -15 -27 -15h-73q-17 0 -26.5 13.5t-4.5 29.5l34 101q10 22 31 22h125z" />
    <glyph glyph-name="breve" unicode="&#x2d8;" horiz-adv-x="339" 
d="M312 672v0q8 23 9 59q2 9 -5 15q-5 7 -14 7h-48q-7 0 -14 -6q-5 -5 -7 -13q0 -9 -2 -16q-4 -12 -17 -20q-13 -7 -43 -7t-43 7q-13 8 -17 20q-2 6 -2 16q-1 8 -6 13q-7 6 -14 6h-47q-9 0 -15 -7q-6 -6 -5 -15q1 -36 10 -59q10 -31 43 -50q32 -18 96 -18t97 18q33 19 44 50
z" />
    <glyph glyph-name="caron" unicode="&#x2c7;" horiz-adv-x="324" 
d="M300 751v0q5 7 1 14t-12 7h-71q-6 0 -11 -5l-38 -53q-5 -6 -11.5 -6t-10.5 6l-38 53q-5 5 -11 5h-73q-8 0 -11.5 -7t1.5 -14l119 -141q4 -5 11 -5h25q6 0 11 5z" />
    <glyph glyph-name="cedilla" unicode="&#xb8;" horiz-adv-x="434" 
d="M303 -131v0q0 73 -80 93q-7 2 -10.5 7.5t-1.5 12.5l10 36q3 14 -5 25t-22 11h-28q-19 0 -27 -21l-31 -111q-2 -7 3 -13v0q5 -7 12 -7h38q28 0 31 -27q0 -26 -31 -28h-36q-12 0 -20 -8.5t-8 -19.5v-25q0 -12 8 -20t20 -8h49q56 0 92.5 28t36.5 75z" />
    <glyph glyph-name="circumflex" unicode="&#x2c6;" horiz-adv-x="359" 
d="M28 627v0q-5 -8 -1.5 -15.5t12.5 -7.5h75q7 0 11 6l41 56q5 6 11.5 6t11.5 -6l40 -56q5 -6 12 -6h77q8 0 12 7.5t-1 15.5l-126 149q-5 5 -11 5h-27q-7 0 -12 -5z" />
    <glyph glyph-name="dieresis" unicode="&#xa8;" horiz-adv-x="447" 
d="M90.7246 756.429v0q-14.5811 0 -24.3008 -10.126q-9.72168 -10.125 -9.72168 -23.8955v-72.9043q0 -13.7715 9.72168 -23.8965q9.71973 -10.126 24.3008 -10.126h79.3848q13.7695 0 23.4912 10.126q9.71973 10.125 9.71973 23.8965v72.9043q0 13.7705 -9.71973 23.8955
q-9.72168 10.126 -23.4912 10.126h-79.3848zM279.725 757.429v0q-14.5811 0 -24.3008 -10.126q-9.72168 -10.125 -9.72168 -23.8955v-72.9043q0 -13.7715 9.72168 -23.8965q9.71973 -10.126 24.3008 -10.126h79.3848q13.7695 0 23.4912 10.126
q9.71973 10.125 9.71973 23.8965v72.9043q0 13.7705 -9.71973 23.8955q-9.72168 10.126 -23.4912 10.126h-79.3848z" />
    <glyph glyph-name="dotaccent" unicode="&#x2d9;" horiz-adv-x="289" 
d="M100.803 766.011v0q-16.2012 0 -27.001 -11.25q-10.8008 -11.25 -10.8008 -26.5508v-81.002q0 -15.3008 10.8008 -26.5508q10.7998 -11.251 27.001 -11.251h88.2021q15.2998 0 26.1006 11.251q10.7998 11.25 10.7998 26.5508v81.002q0 15.3008 -10.7998 26.5508
q-10.8008 11.25 -26.1006 11.25h-88.2021z" />
    <glyph glyph-name="grave" unicode="`" horiz-adv-x="282" 
d="M31 763h106q20 0 30 -22l35 -101q5 -16 -4.5 -29.5t-26.5 -13.5h-73q-17 0 -28 15l-66 100q-10 18 -1 34.5t28 16.5v0z" />
    <glyph glyph-name="hungarumlaut" unicode="&#x2dd;" horiz-adv-x="514" 
d="M237 763v0q14 0 20 -11.5t-1 -23.5l-77 -116q-11 -15 -27 -15h-73q-17 0 -26.5 13.5t-4.5 29.5l34 101q10 22 31 22h124zM446 763v0q20 0 29 -16.5t-2 -34.5l-66 -100q-11 -15 -27 -15h-74q-16 0 -25.5 13.5t-4.5 29.5l34 101q10 22 31 22h105z" />
    <glyph glyph-name="macron" unicode="&#xaf;" horiz-adv-x="475" 
d="M52 640v0q0 -17 12 -29t29 -12h281q17 0 29 12t12 29v92q0 17 -12 29t-29 12h-281q-17 0 -29 -12t-12 -29v-92z" />
    <glyph glyph-name="ogonek" unicode="&#x2db;" horiz-adv-x="440" 
d="M99 -129v0q0 -51 37.5 -82t94.5 -31q42 0 83 18q23 12 23 34v20q0 17 -12.5 27.5t-30.5 8.5h-12q-51 0 -56 45q0 57 88 90q24 12 24 36v0q0 20 -16 30.5t-35 4.5q-188 -77 -188 -201z" />
    <glyph glyph-name="ring" unicode="&#x2da;" horiz-adv-x="256" 
d="M131.603 815.509q45.501 0 75.251 -29.75q29.751 -29.751 29.751 -75.252q0 -44.8008 -29.751 -74.9014q-29.75 -30.0996 -75.251 -30.0996q-44.8008 0 -74.9014 30.0996q-30.1006 30.1006 -30.1006 74.9014q0 45.501 30.1006 75.252q30.1006 29.75 74.9014 29.75z
M133.702 660.106q22.4004 0 36.751 14.3506q14.3496 14.3496 14.3496 36.75t-14.3496 36.751q-14.3506 14.3506 -36.751 14.3506t-36.75 -14.3506q-14.3506 -14.3506 -14.3506 -36.751t14.7002 -36.75q14.7002 -14.3506 36.4004 -14.3506z" />
    <glyph glyph-name="tilde" unicode="&#x2dc;" horiz-adv-x="324" 
d="M298 664v0q3 15 4 38q0 10 -7 16q-7 8 -16 8h-14q-9 0 -15 -6t-8 -14v-3q-1 -2 -1 -4q-4 -5 -16 -5q-11 0 -30 4q-8 1 -14 3q-7 2 -11 2q-56 14 -86 14q-31 0 -47 -12q-14 -11 -18 -32q-3 -14 -3 -38q0 -10 7 -16q7 -7 15 -7h16q7 0 14 5q7 6 8 14q0 4 2 7q3 5 15 5
t30 -4q12 -2 19 -4q4 -1 6 -1q56 -14 87 -14t45 12q15 11 18 32z" />
    </font>
</defs>
</svg>
