<?xml version="1.0" encoding="utf-8"?>
<!-- Generator: Adobe Illustrator 16.0.3, SVG Export Plug-In . SVG Version: 6.00 Build 0)  -->
<!DOCTYPE svg PUBLIC "-//W3C//DTD SVG 1.1//EN" "http://www.w3.org/Graphics/SVG/1.1/DTD/svg11.dtd">
<svg version="1.1" id="Layer_1" xmlns="http://www.w3.org/2000/svg" xmlns:xlink="http://www.w3.org/1999/xlink" x="0px" y="0px"
	 viewBox="0 0 415.689 418.695" enable-background="new 0 0 415.689 418.695"
	 xml:space="preserve">
<g fill="#fff">
	<path d="M413.875,401.187c-0.549-2.172-0.442-3.364-0.246-5.743c0.207-2.407,0.498-5.715,0.179-11.413
		c-0.425-7.708-1.008-11.89-1.433-14.94c-0.213-1.488-0.375-2.664-0.476-3.896c-0.028-0.353-0.022-0.571-0.012-0.694
		c0.073-0.067,0.168-0.151,0.252-0.219c0.655-0.548,1.752-1.472,2.457-3.129c1.428-3.336,1.243-4.908,0.649-10.131l-0.134-1.17
		c-0.672-5.844-0.672-6.493-0.879-23.124l-0.006-0.106c-0.101-8.149,0.067-9.807,0.325-12.314c0.279-2.703,0.66-6.403,0.935-18.689
		c0.498-21.977-1.752-37.387-3.733-50.982c-0.235-1.618-0.471-3.219-0.694-4.797c-1.165-8.156-1.977-12.662-2.844-17.426
		c-0.694-3.89-1.422-7.909-2.385-14.206c-1.377-9.113-2.978-14.565-5.391-22.815c-1.326-4.551-2.994-10.21-5.004-17.884
		c-3.661-13.955-5.838-21.187-9.124-32.13c-1.74-5.782-3.711-12.337-6.37-21.416c-5.726-19.603-10.663-32.046-17.369-45.363
		c-0.056-0.229-0.123-0.453-0.224-0.677c-7.489-17.448-14.061-21.668-19.86-25.391c-1.433-0.918-2.787-1.786-4.086-2.821
		c-6.583-5.25-20.414-12.085-32.622-18.119l-3.393-1.679c-11.111-5.508-15.763-6.331-17.291-6.42
		c-2.687-0.325-5.697-0.991-6.89-1.511c-1.299-2.648-3.678-3.521-6.616-4.601c-0.61-0.224-1.305-0.481-2.083-0.778
		c-1.679-0.655-1.97-0.952-2.676-1.679c-0.812-0.839-1.925-1.993-4.433-3.543c-5.43-3.325-10.518,0.101-14.229,2.603
		c-1.231,0.829-2.396,1.612-3.487,2.155c-0.812,0.397-1.494,0.75-2.099,1.069c-2.799,1.456-4.081,2.122-13.96,4.579
		c-11.564,2.877-19.928,1.578-30.513-0.056l-0.075-0.011c-8.987-1.394-13.333-3.683-19.902-7.148
		c-0.783-0.42-1.598-0.845-2.452-1.293c-1.738-0.901-3.232-1.584-4.556-2.083V1.181l-0.011,0.006
		c-4.649-1.752-7.115-1.192-9.837,0.509c-0.148,0.089-0.292,0.179-0.445,0.269c-0.381,0.224-0.764,0.454-1.159,0.694
		c-1.799,1.091-3.669,2.216-6.129,3.095c-2.883,1.036-3.918,2.659-4.48,4.17c-2.265,0.929-4.752,1.836-5.074,1.953
		c-0.652,0.224-6.784,2.334-13.166,5.743c-1.461,0.778-2.762,1.522-4.016,2.239c-4.347,2.474-7.781,4.433-14.641,6.286
		c-10.123,2.743-23.02,9.991-31.36,17.638c-7.646,7.008-13.84,15.225-18.472,24.489c-0.098,0.134-0.196,0.28-0.277,0.431
		c-4.534,8.62-6.728,14.8-8.327,19.306c-0.666,1.864-1.24,3.476-1.799,4.747c-0.644,1.433-1.486,2.86-2.374,4.366
		c-1.766,2.989-3.772,6.381-4.467,10.563c-0.361,2.177-0.543,4.114-0.705,5.827c-0.229,2.457-0.412,4.394-0.985,5.687
		c-0.4,0.923-1.243,2.558-2.211,4.444c-2.007,3.901-4.506,8.754-6.07,12.857c-0.277,0.722-0.518,1.343-0.733,1.909
		c-1.635,4.221-2.023,5.229-5.572,17.509c-2.133,7.383-4.344,12.578-6.913,18.595c-2.133,4.998-4.545,10.663-7.335,18.572
		c-5.578,15.791-5.978,30.513-6.328,43.498c-0.053,1.809-0.098,3.6-0.163,5.374c-0.515,14.794-1.226,21.063-3.42,34.939
		c-1.377,8.688-1.192,10.255-0.694,12.712c0.235,1.131,0.515,2.536,0.448,6.88l-0.037,1.763
		c-0.176,10.837-0.367,22.038-2.085,35.354c-1.061,8.167-1.089,9.868-1.12,11.234c-0.017,0.828-0.028,1.427-0.487,4.517
		c-0.881,5.979,0.129,9.001,3.594,10.72c0.283,1.164,0.235,4.03-0.137,8.536c-0.221,2.788-0.47,4.87-0.75,7.282
		c-0.311,2.643-0.652,5.637-1.072,10.266c-0.263,3.006-0.395,5.643-0.515,7.972c-0.229,4.59-0.42,8.211-1.456,12.331
		c-0.683,2.703-0.355,4.909,0.974,6.561c2.337,2.904,6.258,2.771,12.191,2.569c2.729-0.09,5.816-0.19,9.381-0.057
		c10.014,0.392,15.105,1.12,20.991,1.965c1.853,0.269,3.767,0.543,5.922,0.817c1.789,0.229,3.397,0.375,4.836,0.375
		c2.706,0,4.802-0.515,6.345-1.959c2.334-2.184,2.138-5.329,1.995-7.624c-0.17-2.866,0.546-9.969,1.377-18.197
		c0.423-4.221,0.904-9.007,1.357-14.044c0.515-5.743,0.596-8.396,0.641-9.818c0.011-0.342,0.022-0.694,0.042-0.868
		c0.045-0.117,0.137-0.324,0.224-0.515c0.28-0.644,0.702-1.612,1.357-3.297c2.544-6.594,1.634-10.563,0.893-13.753
		c-0.21-0.952-0.4-1.764-0.467-2.553c-0.224-2.485-0.213-2.553,0.4-6.297c0.229-1.411,0.538-3.331,0.94-6.007
		c0.722-4.858,1.111-5.95,1.657-7.455c0.56-1.551,1.254-3.482,2.365-8.789c2.242-10.713,2.603-13.405,4.582-28.346l0.104-0.756
		c1.478-11.194,2.155-25.166,2.642-35.37c0.202-4.17,0.373-7.77,0.56-10.501c0.109-1.528,0.38-5.446,0.747-6.571
		c0.115-0.073,0.269-0.168,0.406-0.247c0.35-0.212,0.792-0.47,1.296-0.816c3.703-2.53,3.658-5.911,3.627-8.38
		c-0.017-0.896-0.028-1.808,0.098-2.793c0.252-0.672,1.713-2.424,2.894-3.835c2.919-3.504,7.251-8.692,11.156-16.697
		c0.257,1.333,0.487,2.631,0.607,3.801c0.081,0.856,0.092,1.556,0.028,2.435l-0.263,3c-0.092,1.058-0.154,2.127-0.207,3.185
		c-0.045,1.059-0.087,2.094-0.109,3.157c-0.044,2.11-0.005,4.332,0.163,6.471c0.165,2.116,0.35,4.053,0.451,6.034l0.146,3
		c0.039,1.063,0.104,2.094,0.165,3.13c0.258,4.103,0.532,8.127,0.705,12.146c0.171,4.013,0.252,8.021,0.171,11.989
		c-0.078,3.969-0.319,7.915-0.842,11.761c-0.126,0.963-0.28,1.914-0.439,2.86c-0.092,0.47-0.173,0.94-0.277,1.405l-0.303,1.438
		c-0.464,2.149-0.803,4.237-1.094,6.331c-0.579,4.175-0.946,8.34-1.159,12.538c-0.098,2.099-0.148,4.204-0.143,6.325
		c0.011,1.063,0.028,2.127,0.067,3.201l0.059,1.501c0.022,0.486,0.022,0.968,0.034,1.444c0.028,1.931-0.05,3.738-0.247,5.676
		c-0.19,1.941-0.431,4.097-0.568,6.213c-0.274,4.254-0.286,8.413-0.241,12.555c0.017,1.047,0.039,2.094,0.087,3.18
		c0.056,1.092,0.104,2.184,0.296,3.487c0.104,0.644,0.26,1.36,0.425,1.954c0.154,0.56,0.274,0.968,0.367,1.365
		c0.207,0.801,0.333,1.646,0.487,2.637c0.168,1.113,0.378,2.233,0.63,3.325c0.255,1.091,0.54,2.138,0.787,3.072
		c0.493,1.87,0.755,3.358,0.814,5.155c0.039,0.868,0.017,1.797-0.017,2.727c-0.042,0.963-0.098,2.088-0.109,3.18
		c-0.017,1.103,0,2.328,0.17,3.638c0.087,0.644,0.202,1.249,0.3,1.764l0.28,1.449c0.333,1.837,0.563,3.745,0.739,5.716
		c0.19,2.004,0.409,4.119,0.552,6c0.033,0.471,0.056,0.907,0.062,1.305c0.005,0.397,0,0.744-0.034,1.103
		c-0.056,0.699-0.229,1.601-0.417,2.575l-0.596,2.994l-0.3,1.522l-0.291,1.59c-0.19,1.114-0.35,2.267-0.414,3.577
		c-0.011,0.677-0.028,1.354,0.076,2.172c0.104,0.8,0.274,1.718,0.733,2.726c0.448,1.008,1.263,2.043,2.15,2.726
		c0.898,0.694,1.777,1.086,2.521,1.355c1.498,0.515,2.642,0.677,3.731,0.861l3.039,0.459c0.985,0.151,1.845,0.313,2.986,0.504
		c1.072,0.18,2.211,0.33,3.398,0.426c0.585,0.05,1.204,0.056,1.805,0.078c0.596-0.011,1.212-0.006,1.794-0.051
		c2.362-0.14,4.473-0.498,6.524-0.828l6.054-1.052c4-0.688,7.996-1.354,12.001-1.971l6.012-0.907l2.97-0.397
		c0.988-0.14,1.973-0.269,2.958-0.357c3.943-0.471,7.825-0.706,11.589-0.594c0.946,0.022,1.881,0.117,2.827,0.168
		c0.946,0.112,1.875,0.19,2.844,0.336c0.957,0.14,1.92,0.269,2.916,0.442l3.015,0.498c4.083,0.688,8.313,1.22,12.485,1.551
		l3.134,0.229l3.124,0.146c2.094,0.123,4.156,0.123,6.238,0.179l12.242,0.162l6.106,0.09c2.049,0.028,4.092,0.073,6.259,0.045
		c1.086-0.012,2.166-0.062,3.224-0.112l3.084-0.19l6.102-0.386l6.096-0.358c2.032-0.123,4.063-0.229,6.057-0.319
		c4.03-0.207,8.038-0.302,12.013-0.291c3.974,0.017,7.893,0.196,11.737,0.655c1.932,0.213,3.846,0.531,5.827,0.873
		c1.971,0.342,4.041,0.722,6.169,1.019c1.052,0.162,2.127,0.274,3.19,0.397c1.069,0.101,2.149,0.19,3.207,0.269
		c2.127,0.123,4.221,0.252,6.655,0.118c0.616-0.04,1.266-0.096,2.026-0.235c0.381-0.073,0.801-0.162,1.282-0.319
		c0.481-0.162,1.052-0.381,1.741-0.84c0.347-0.234,0.716-0.531,1.074-0.94c0.364-0.402,0.694-0.906,0.918-1.433
		c0.471-1.086,0.492-2.049,0.459-2.709c-0.051-0.655-0.151-1.114-0.235-1.478c-0.101-0.375-0.179-0.649-0.246-0.896
		c-0.14-0.48-0.224-0.806-0.269-1.041l-0.022-0.156l-0.028-0.28l-0.066-0.767c-0.051-0.504-0.096-0.969-0.096-1.248
		c-0.011-0.285,0-0.453,0.045-0.807c0.051-0.33,0.14-0.771,0.235-1.226l0.319-1.433l0.688-2.973c0.477-2.049,0.93-4.36,1.053-6.745
		c0.146-2.396-0.039-4.612-0.179-6.649c-0.151-2.049-0.297-4.024-0.392-6.018c-0.102-1.998-0.18-3.975-0.219-5.995
		c-0.051-2.015-0.084-4.035-0.062-5.95c0.022-0.935,0.056-1.897,0.14-2.647c0.017-0.201,0.051-0.33,0.073-0.504
		c0.022-0.134,0.056-0.252,0.078-0.347c0.045-0.18,0.073-0.235,0.258-0.594c0.168-0.324,0.498-0.906,0.767-1.472
		c0.285-0.577,0.531-1.147,0.744-1.719c0.437-1.147,0.795-2.301,1.063-3.431c1.081-4.546,1.271-8.884,1.288-13.16
		c0-2.127-0.09-4.237-0.202-6.337c-0.095-1.836-0.072-3.672,0.079-5.563c0.285-3.768,0.984-7.803,1.482-11.968
		c0.51-4.153,0.817-8.401,0.879-12.611c0.084-4.215-0.056-8.413-0.347-12.577c-0.135-2.088-0.325-4.159-0.532-6.23l-0.273-2.973
		c-0.034-0.492-0.09-0.979-0.118-1.466l-0.078-1.467c-0.219-3.913-0.168-7.78,0.162-11.698c0.308-3.913,0.862-7.915,1.327-12.029
		c0.481-4.109,0.834-8.29,1.024-12.461c0.218-4.176,0.185-8.34,0.134-12.499c-0.067-4.03-0.111-8.049,0-12.057
		c0.051-2.239,0.146-4.479,0.258-6.717c0.279,0.257,0.56,0.509,0.84,0.761c2.787,2.536,5.676,5.155,7.399,8.99
		c2.497,5.535,2.53,6.017,2.715,8.055c0.095,1.181,0.241,2.804,0.722,5.58c1.333,7.613,1.741,8.777,4.059,11.408
		c0.151,0.179,0.319,0.369,0.504,0.582l0.006,0.006c0.022,0.402-0.102,1.394-0.219,2.278c-0.297,2.356-0.75,5.922-0.654,11.737
		c0.044,3.577,0,5.536-0.04,6.969c-0.089,3.678-0.027,4.03,1.618,13.076l0.011,0.084c1.483,8.178,1.512,11.117,1.545,16.983
		c0.022,3.196,0.045,7.17,0.319,13.171c0.28,6.274,0.28,9.034,0.285,10.859c0,3.386,0,4.192,1.366,15.773
		c1.315,11.128,1.075,13.244,0.817,15.488c-0.168,1.444-0.358,3.096-0.213,6.521c0.235,5.653,1.125,7.366,2.547,9.684
		c0.756,1.22,1.69,2.754,2.894,6.432c0.286,0.873,0.538,1.629,0.756,2.301c1.517,4.601,1.517,4.601,1.954,8.563
		c0.162,1.512,0.392,3.577,0.761,6.555c0.94,7.529,0.616,11.357,0.297,15.063c-0.196,2.312-0.386,4.489-0.252,7.293
		c0.106,2.273,0.515,5.111,2.737,6.874c1.293,1.024,2.748,1.366,4.35,1.366c1.478,0,3.09-0.297,4.813-0.61
		c1.293-0.241,2.76-0.51,4.411-0.717l1.343-0.173c7.12-0.918,8.038-1.036,18.875-1.439c7.423-0.279,9.874,0.163,12.478,0.627
		c1.404,0.258,2.854,0.516,4.965,0.672c3.442,0.269,5.346-1.092,6.342-2.278c2.67-3.196,1.461-7.853,0.285-12.354
		C414.065,401.931,413.97,401.556,413.875,401.187 M174.662,11.156c6.714,3.543,12.015,6.342,22.236,7.92l0.073,0.011
		c10.966,1.696,20.437,3.163,33.456-0.079c10.322-2.563,12.136-3.397,15.595-5.194c0.571-0.297,1.198-0.627,1.959-1.002
		c1.54-0.756,2.967-1.724,4.355-2.653c0.604-0.409,1.142-0.767,1.646-1.081c0.297,0.196,0.577,0.499,0.638,0.952l0.106,0.806
		c0.454,3.482,0.975,7.428-1.611,15.147c-3.387,10.115-10.982,16.244-14.526,18.075c-8.625,4.444-13.837,4.97-29.361,2.95
		c-16.751-2.183-26.574-11.973-31.853-17.229l-0.683-0.678c-3.89-3.851-5.508-11.105-6.373-15.001
		c-0.12-0.526-0.229-1.008-0.333-1.433c-0.395-1.696-0.344-3.129-0.235-3.991c0.705,0.313,1.525,0.706,2.488,1.209
		C173.081,10.322,173.884,10.748,174.662,11.156 M162.224,9.813c-0.011,1.321,0.109,2.866,0.509,4.568
		c0.098,0.397,0.196,0.845,0.305,1.343c1.038,4.641,2.969,13.283,8.407,18.673l0.667,0.655c5.491,5.469,16.898,16.832,36.151,19.345
		c5.88,0.767,10.521,1.181,14.489,1.181c7.518,0,12.645-1.489,19.25-4.898c4.808-2.479,14.05-9.969,18.181-22.334
		c2.871-8.586,2.519-13.731,2.049-17.498c1.019,0.952,2.205,1.78,4.59,2.698c0.817,0.319,1.551,0.587,2.2,0.828
		c1.007,0.37,2.144,0.784,2.558,1.036c0.045,0.14,0.106,0.297,0.18,0.465c-0.555,3.258-1.333,7.405-3.633,15.007
		c-3.404,11.251-13.25,25.519-26.829,30.254c-15.215,5.312-26.289,5.592-43.874,1.114c-17.402-4.434-28.292-16.479-36.644-27.708
		c-5.651-10.002-5.147-18.673-4.71-21.774C158.549,11.878,160.55,10.798,162.224,9.813 M58.295,376.204
		c-0.448,4.999-0.93,9.763-1.352,13.966c-0.929,9.248-1.612,15.937-1.394,19.401c0.017,0.313,0.067,1.069,0.056,1.635
		c-0.68,0.072-2.08,0.084-4.847-0.274c-2.105-0.269-3.991-0.543-5.813-0.801c-5.841-0.845-11.36-1.634-21.763-2.037
		c-3.829-0.146-7.207-0.033-9.916,0.056c-1.979,0.067-4.321,0.146-5.67,0.017c1.198-4.78,1.405-8.895,1.646-13.652
		c0.121-2.373,0.247-4.83,0.498-7.69c0.409-4.528,0.75-7.468,1.05-10.064c0.293-2.479,0.54-4.618,0.781-7.534
		c0.241-2.944,0.378-5.352,0.325-7.344c2.659,0.464,6.255,1.164,9.882,2.093c2.665,0.684,4.845,0.935,6.717,0.935
		c2.81,0,4.948-0.564,7.039-1.125c2.253-0.599,4.587-1.214,7.991-1.164c3.171,0.057,5.813,0.432,8.368,0.789
		c2.575,0.358,4.948,0.694,7.372,0.622c-0.257,0.812-0.305,1.461-0.35,2.781C58.874,368.161,58.787,370.674,58.295,376.204
		 M301.191,400.246c-0.975-0.073-1.926-0.157-2.889-0.246c-0.951-0.112-1.914-0.213-2.866-0.358
		c-1.925-0.274-3.868-0.633-5.911-0.991c-2.043-0.353-4.153-0.705-6.28-0.945c-4.254-0.516-8.497-0.706-12.678-0.729
		c-4.182-0.021-8.335,0.073-12.46,0.28c-2.077,0.09-4.12,0.196-6.158,0.313l-6.129,0.353l-6.112,0.387
		c-2.038,0.117-4.014,0.251-5.9,0.274c-1.925,0.021-3.957-0.023-5.994-0.057l-6.118-0.101l-12.233-0.174
		c-2.001-0.062-4.014-0.062-5.998-0.179l-2.983-0.146l-2.97-0.213c-3.96-0.302-7.836-0.778-11.802-1.433l-3.023-0.493
		c-1.013-0.168-2.074-0.319-3.134-0.464c-1.047-0.157-2.155-0.252-3.233-0.375c-1.094-0.063-2.188-0.163-3.283-0.186
		c-4.391-0.123-8.673,0.174-12.83,0.678c-1.047,0.095-2.08,0.229-3.112,0.381l-3.101,0.425l-6.087,0.935
		c-4.052,0.639-8.105,1.321-12.138,2.026l-6.009,1.059c-1.965,0.33-3.89,0.638-5.6,0.744c-0.434,0.034-0.843,0.022-1.26,0.045
		c-0.42-0.022-0.826-0.017-1.256-0.056c-0.848-0.073-1.724-0.174-2.665-0.331c-0.876-0.146-2.023-0.353-3.056-0.503l-3.009-0.448
		c-0.887-0.134-1.718-0.302-2.177-0.459c-0.022-0.196-0.022-0.51-0.017-0.828c0.028-0.728,0.137-1.606,0.286-2.503l0.257-1.421
		l0.289-1.479l0.59-3.006c0.193-1.029,0.417-2.132,0.532-3.465c0.064-0.66,0.076-1.332,0.064-1.959
		c-0.017-0.621-0.053-1.203-0.092-1.746c-0.174-2.188-0.383-4.137-0.58-6.191c-0.201-2.087-0.459-4.231-0.854-6.409l-0.305-1.556
		c-0.095-0.481-0.17-0.885-0.215-1.248c-0.104-0.717-0.129-1.534-0.115-2.475c0.011-0.945,0.056-1.858,0.098-2.933
		c0.005-0.241,0.011-0.493,0.017-0.739c5.065,0.723,14.621,1.086,31.749-1.069c16.936-2.133,36.454-1.236,53.672-0.453
		c11.562,0.532,22.482,1.024,30.599,0.465c2.766-0.19,5.452-0.392,8.072-0.576c16.277-1.188,29.141-2.128,39.642-0.778
		c3.498,0.453,6.739,0.963,9.88,1.466c5.905,0.946,11.212,1.792,16.087,1.792c1.629,0,3.196-0.096,4.735-0.308
		c0.688-0.102,1.293-0.174,1.819-0.235c0.012,1.069,0.033,2.127,0.062,3.179c0.039,2.061,0.112,4.159,0.219,6.236
		c0.095,2.082,0.251,4.176,0.392,6.196c0.146,2.026,0.279,3.896,0.168,5.563c-0.09,1.702-0.414,3.409-0.862,5.335l-0.694,2.983
		l-0.353,1.556c-0.117,0.543-0.229,1.098-0.33,1.78c-0.101,0.655-0.162,1.506-0.14,2.239c0.022,0.744,0.084,1.293,0.129,1.808
		l0.072,0.756l0.045,0.476c0.028,0.207,0.062,0.409,0.084,0.604l0.022,0.084C304.337,400.425,302.753,400.347,301.191,400.246
		 M347.796,274.24c-1.567-8.648-1.567-8.648-1.489-11.56c0.034-1.41,0.096-3.543,0.034-7.271c-0.084-5.29,0.319-8.408,0.604-10.691
		c0.369-2.938,0.699-5.469-1.522-8.066c-0.207-0.24-0.397-0.459-0.571-0.654c-1.074-1.227-1.192-1.355-2.306-7.764
		c-0.432-2.464-0.549-3.841-0.644-4.954c-0.258-2.928-0.459-4.059-3.342-10.468c-2.362-5.245-6.152-8.682-9.191-11.447
		c-2.446-2.217-4.545-4.131-4.982-6.101c-0.021-0.096-0.044-0.185-0.078-0.274l0.504-6.393c0.291-4.114,0.492-8.268,0.576-12.415
		c0.096-4.148,0.034-8.285-0.061-12.41c-0.235-7.999-0.012-15.947,0.648-23.907c0.364-3.974,0.829-7.943,1.444-11.9
		c0.157-0.985,0.303-1.976,0.493-2.961l0.257-1.478l0.28-1.478c0.19-0.985,0.414-1.959,0.627-2.939
		c0.201-0.974,0.453-1.97,0.688-2.882l0.017-0.067c0.146-0.554-0.095-1.153-0.615-1.444c-0.616-0.358-1.411-0.134-1.764,0.481
		c-0.549,0.968-0.985,1.892-1.444,2.849c-0.42,0.958-0.845,1.92-1.231,2.888c-0.397,0.969-0.756,1.954-1.103,2.939
		c-0.364,0.985-0.66,1.981-0.985,2.972c-1.242,3.997-2.188,8.066-2.938,12.175c-1.433,8.223-2.032,16.619-1.819,24.931
		c0.067,4.03,0.112,8.055,0,12.063c-0.106,4.013-0.319,8.01-0.621,12.029l-1.014,12.191c-0.318,4.109-0.548,8.262-0.672,12.404
		c-0.134,4.148-0.101,8.29-0.056,12.416c0.034,4.002,0.045,7.999-0.179,11.973c-0.201,3.975-0.56,7.926-1.041,11.917
		c-0.471,3.991-1.059,8.072-1.422,12.292c-0.364,4.216-0.448,8.52-0.225,12.752l0.073,1.59c0.033,0.531,0.084,1.052,0.123,1.584
		l0.274,3.123c0.179,1.987,0.358,3.98,0.481,5.967c0.515,7.966,0.408,15.818-0.616,23.667c-0.476,3.935-1.209,7.948-1.578,12.314
		c-0.179,2.177-0.224,4.428-0.112,6.661c0.09,1.976,0.168,3.94,0.157,5.883c-0.022,3.885-0.258,7.758-1.098,11.156
		c-0.207,0.851-0.464,1.65-0.761,2.406c-0.146,0.375-0.303,0.744-0.471,1.086c-0.173,0.353-0.353,0.66-0.654,1.231
		c-0.297,0.543-0.7,1.416-0.913,2.228c-0.111,0.397-0.189,0.778-0.263,1.143c-0.045,0.33-0.117,0.705-0.14,1.013
		c-0.112,0.924-0.146,1.735-0.18,2.524c-0.728,0.078-1.522,0.174-2.418,0.303c-5.53,0.777-12.068-0.264-19.625-1.467
		c-3.168-0.51-6.437-1.03-9.997-1.489c-10.898-1.399-23.935-0.447-40.453,0.756c-2.608,0.19-5.29,0.387-8.044,0.577
		c-7.893,0.548-18.707,0.056-30.154-0.471c-17.372-0.795-37.072-1.69-54.349,0.481c-17.825,2.245-27.069,1.646-31.346,0.957
		c-0.064-0.694-0.143-1.394-0.257-2.093c-0.196-1.188-0.47-2.34-0.747-3.37c-0.274-1.036-0.532-1.959-0.739-2.854
		c-0.207-0.891-0.378-1.774-0.515-2.682c-0.163-1.024-0.345-2.199-0.638-3.375c-0.148-0.594-0.313-1.164-0.434-1.584
		c-0.109-0.393-0.165-0.678-0.229-1.036c-0.115-0.716-0.17-1.668-0.218-2.608c-0.044-0.951-0.067-1.942-0.086-2.933
		c-0.056-4.02-0.067-8.016,0.168-11.912c0.114-1.959,0.313-3.862,0.509-5.983c0.207-2.116,0.291-4.395,0.241-6.544
		c-0.006-0.537-0.017-1.08-0.045-1.612l-0.064-1.556c-0.045-0.963-0.067-1.937-0.081-2.916c-0.017-1.959,0.02-3.93,0.098-5.905
		c0.179-3.952,0.507-7.927,1.027-11.834c0.257-1.947,0.568-3.89,0.957-5.726l0.322-1.562c0.109-0.532,0.193-1.064,0.291-1.602
		c0.185-1.063,0.344-2.127,0.481-3.185c0.551-4.249,0.775-8.464,0.836-12.65c0.132-8.357-0.459-16.664-1.024-24.758
		c-0.07-1.008-0.135-2.004-0.185-2.979l-0.16-3.112c-0.12-2.093-0.333-4.22-0.495-6.168c-0.16-1.932-0.204-3.789-0.176-5.76
		c0.017-0.975,0.044-1.977,0.086-2.955c0.04-0.98,0.09-1.948,0.171-2.923l0.252-3.095c0.081-1.159,0.064-2.502-0.062-3.678
		c-0.271-2.346-0.705-4.372-1.136-6.42c-0.439-2.01-0.871-4.042-1.444-6.157c-0.291-1.024-0.59-2.06-1.013-3.157
		c-0.098-0.487-0.294-0.94-0.568-1.349c-0.05-0.123-0.109-0.252-0.159-0.369c-0.092-0.207-0.202-0.431-0.271-0.604
		c-0.067-0.168-0.148-0.342-0.199-0.504c-0.229-0.672-0.442-1.5-0.607-2.435c-0.179-0.912-0.333-1.88-0.476-2.866
		c-0.294-1.942-0.541-3.952-0.781-5.956c-0.476-4.002-0.859-7.982-1.089-11.967c-0.459-7.949-0.378-16.183-0.644-24.31
		c-0.143-4.075-0.331-8.167-0.898-12.365c-0.286-2.099-0.7-4.209-1.268-6.252c-0.565-2.043-1.254-4.03-2.074-5.956
		c-0.213-0.493-0.706-0.834-1.273-0.817c-0.745,0.017-1.335,0.633-1.318,1.377v0.011c0.053,2.054,0.162,4.075,0.202,6.062
		c0.053,1.993,0.059,3.941,0.005,5.917c-0.104,3.952-0.297,8.021-0.327,12.107c-0.028,4.097,0.059,8.155,0.092,12.247
		c0.053,4.086,0.115,8.212,0.333,12.376c0.218,4.159,0.596,8.307,1.061,12.404c0.235,2.049,0.47,4.092,0.767,6.18
		c0.148,1.042,0.311,2.094,0.518,3.18c0.188,1.075,0.445,2.239,0.876,3.499c0.109,0.319,0.229,0.616,0.355,0.918
		c0.045,0.118,0.092,0.218,0.132,0.319c-4.112,12.298-9.835,19.16-13.667,23.75c-2.458,2.944-4.229,5.066-4.557,7.563
		c-0.199,1.557-0.182,2.883-0.165,3.946c0.005,0.694,0.017,1.641-0.081,1.87c-0.017,0.027-0.095,0.117-0.291,0.251
		c-0.328,0.219-0.633,0.403-0.924,0.577c-3.874,2.317-4.207,4.725-4.763,12.7c-0.193,2.811-0.367,6.449-0.574,10.658
		c-0.481,10.07-1.139,23.868-2.583,34.749l-0.098,0.756c-1.954,14.705-2.304,17.358-4.489,27.803
		c-1.008,4.792-1.576,6.382-2.08,7.781c-0.739,2.043-1.231,3.565-2.024,8.889c-0.389,2.625-0.699,4.517-0.929,5.905
		c-0.658,4.063-0.762,4.831-0.465,8.15c0.115,1.31,0.378,2.457,0.638,3.565c0.607,2.647,1.133,4.937-0.59,9.403
		c-0.022,0.057-0.042,0.106-0.064,0.157c-2.712,0.397-5.371,0.028-8.511-0.414c-2.558-0.358-5.446-0.767-8.855-0.823
		c-3.986-0.078-6.695,0.655-9.096,1.293c-3.275,0.873-6.096,1.629-11.73,0.185c-4.388-1.125-8.648-1.914-11.427-2.384
		c-0.322-1.047-0.775-1.92-1.417-2.648c-0.722-0.822-1.531-1.259-2.093-1.533c-0.034-0.471-0.028-1.394,0.218-3.073
		c0.503-3.387,0.545-4.282,0.568-5.463c0.017-1.12,0.051-2.659,1.055-10.429c1.777-13.725,1.965-25.139,2.149-36.182l0.028-1.758
		c0.093-5.161-0.305-7.093-0.59-8.497c-0.286-1.394-0.476-2.317,0.75-10.06c2.214-13.999,2.986-20.771,3.51-35.846
		c0.062-1.791,0.109-3.6,0.16-5.424c0.35-13.049,0.716-26.544,5.911-41.221c2.709-7.691,5.077-13.238,7.165-18.136
		c2.659-6.241,4.957-11.638,7.215-19.446c3.457-11.973,3.823-12.913,5.359-16.898c0.224-0.565,0.465-1.204,0.745-1.926
		c1.422-3.723,3.916-8.575,5.738-12.113c1.066-2.077,1.908-3.722,2.407-4.853c1.055-2.396,1.301-4.987,1.581-7.988
		c0.163-1.668,0.322-3.392,0.644-5.312c0.464-2.805,1.948-5.323,3.523-7.988c0.966-1.624,1.957-3.303,2.771-5.127
		c0.675-1.534,1.293-3.269,2.004-5.278c1.055-2.961,5.135-12.5,5.407-12.998c4.389-10.994,11.078-20.341,19.695-28.234
		c7.428-6.813,19.314-13.507,28.268-15.937c7.772-2.104,11.956-4.483,16.384-7.002c1.215-0.694,2.469-1.411,3.84-2.144
		c6.028-3.224,12.007-5.245,12.065-5.262l0.084-0.034c0.115-0.039,2.763-1.002,5.298-2.032c0.04,4.802,1.095,11.906,5.564,19.77
		l0.134,0.202c8.78,11.828,20.277,24.545,38.953,29.297c8.544,2.178,15.642,3.286,22.379,3.28c7.825,0,15.174-1.478,23.806-4.489
		c14.896-5.194,25.653-20.688,29.343-32.88c1.857-6.135,2.759-10.182,3.336-13.205c1.869,0.806,4.707,1.562,9.073,2.066l0.067,0.072
		l0.336-0.039c0.672,0.09,4.467,0.772,14.296,5.643l3.409,1.69c11.278,5.575,25.323,12.51,31.278,17.263
		c1.596,1.276,3.174,2.284,4.696,3.263c3.213,2.06,6.32,4.058,9.701,8.598c0.05,0.095,0.095,0.196,0.15,0.296
		c11.066,19.95,16.916,32.466,24.479,58.36c2.67,9.107,4.641,15.673,6.387,21.467c3.27,10.87,5.43,18.052,9.057,31.878
		c2.038,7.775,3.717,13.484,5.055,18.085c2.334,7.959,3.868,13.221,5.184,21.841c0.974,6.398,1.707,10.474,2.418,14.408
		c0.856,4.702,1.651,9.135,2.793,17.151c0.225,1.589,0.459,3.195,0.694,4.824c1.948,13.312,4.147,28.391,3.666,49.734
		c-0.274,11.995-0.638,15.521-0.901,18.103c-0.279,2.765-0.47,4.59-0.369,13.165v0.106c0.213,16.664,0.225,17.66,0.94,23.874
		l0.129,1.175c0.554,4.837,0.543,4.864-0.095,6.348c-0.045,0.067-0.258,0.246-0.415,0.381c-0.996,0.834-1.914,1.825-2.451,3.303
		c-1.702-0.039-4.165-0.342-7.54-1.305c-4.248-2.099-7.528-2.787-10.932-2.295c-2.821,0.403-11.224,0.096-15.271-0.123
		c-3.269-0.179-11.441,0.269-14.744,1.707c-0.772,0.342-1.724,0.571-2.653,0.733c-0.084-0.134-0.162-0.263-0.246-0.386
		c-0.906-1.478-1.276-2.088-1.444-6.096c-0.117-2.85,0.022-4.075,0.168-5.362c0.313-2.682,0.604-5.218-0.817-17.207
		c-1.314-11.15-1.314-11.873-1.314-14.906c0-1.893-0.006-4.753-0.291-11.189c-0.264-5.861-0.292-9.757-0.309-12.886
		c-0.045-6.096-0.067-9.454-1.668-18.265L347.796,274.24z M403.895,408.934c-2.877-0.516-5.855-1.053-14.083-0.745
		c-11.173,0.42-12.287,0.565-19.536,1.495l-1.349,0.173c-1.853,0.235-3.42,0.526-4.809,0.784c-1.029,0.185-2.228,0.408-3.011,0.476
		c-0.045-0.263-0.084-0.627-0.106-1.131c-0.106-2.306,0.05-4.159,0.234-6.303c0.336-3.896,0.723-8.317-0.318-16.63
		c-0.37-2.916-0.594-4.954-0.75-6.438c-0.51-4.606-0.577-4.887-2.284-10.087c-0.219-0.666-0.471-1.416-0.75-2.283
		c-0.526-1.59-1.008-2.872-1.478-3.93c0.812-0.19,1.612-0.431,2.351-0.756c2.289-1.002,9.561-1.562,12.919-1.377
		c1.231,0.067,12.203,0.638,16.054,0.084c2.62-0.375,5.15,0.201,8.738,1.998l0.168,0.079l0.173,0.045
		c3.571,1.041,6.343,1.433,8.425,1.511c0.117,1.411,0.302,2.715,0.509,4.221c0.437,3.084,0.969,6.924,1.378,14.318
		c0.285,5.178,0.033,8.055-0.163,10.366c-0.235,2.693-0.408,4.825,0.442,8.212c0.101,0.387,0.201,0.772,0.303,1.164
		c0.386,1.467,1.029,3.98,1.086,5.329C406.335,409.375,405.148,409.163,403.895,408.934"/>
</g>
<g>
</g>
<g>
</g>
<g>
</g>
<g>
</g>
<g>
</g>
<g>
</g>
<g>
</g>
<g>
</g>
<g>
</g>
<g>
</g>
<g>
</g>
<g>
</g>
<g>
</g>
<g>
</g>
<g>
</g>
</svg>
