<svg xmlns="http://www.w3.org/2000/svg" viewBox="0 0 1440 320">

     

        <path fill="#fff" fill-opacity="0.05" d="M0,128L60,160C120,192,240,256,360,256C480,256,600,192,720,181.3C840,171,960,213,1080,229.3C1200,245,1320,235,1380,229.3L1440,224L1440,320L1380,320C1320,320,1200,320,1080,320C960,320,840,320,720,320C600,320,480,320,360,320C240,320,120,320,60,320L0,320Z"></path>

          <path fill="#fff" fill-opacity="0.05" d="M0,192L60,186.7C120,181,240,171,360,170.7C480,171,600,181,720,208C840,235,960,277,1080,293.3C1200,309,1320,299,1380,293.3L1440,288L1440,320L1380,320C1320,320,1200,320,1080,320C960,320,840,320,720,320C600,320,480,320,360,320C240,320,120,320,60,320L0,320Z"></path>

            <path fill="#fff" fill-opacity="0.05"  d="M0,192L60,208C120,224,240,256,360,245.3C480,235,600,181,720,133.3C840,85,960,43,1080,58.7C1200,75,1320,149,1380,186.7L1440,224L1440,320L1380,320C1320,320,1200,320,1080,320C960,320,840,320,720,320C600,320,480,320,360,320C240,320,120,320,60,320L0,320Z"></path>
</svg>